<svg enable-background="new 0 0 169.2 175.3" viewBox="0 0 169.2 175.3" xmlns="http://www.w3.org/2000/svg"><g fill="#67676b"><path d="m162.1 157.3c-.3 0-.4.3-.7.5-.4 0-.3-.5-.6-.5-.7.4-1.8.1-1.9-.8.3-.2.6-.4 1.4-.3.1-.4.3-.7.9-.6.5.6.9 1 .9 1.7z"/><path d="m138.1 168.2c-.1.2-.1.5-.2.7-.7-.1-1.1.2-1.5-.3.1-.5.9-.4 1.7-.4z"/><path d="m132.6 33.6c-.7-.7-1.5-1.1-2.3-1.4-.8.5-2.5.1-3-.2-.2.1-.3.3-.4.5-.5-.3-.8.2-1.2.3-1.2.3-3.4.2-5 .2-.5 0-1 .2-1.4.2-.5 0-1.6-.4-2.2-.6-4.3.6-7.9.3-12.2 0-3.1 1-6.2.3-8.7.3-2.9 0-5.6.3-8.4-.3-.3.5-1.2.4-1.7.1-.5.5-1.5-.1-2.1.3-1.5-.7-3 .2-4.4-.4-.4-.1-.4.3-.8.2-.4 0-.7-.2-1.1-.3-.3.2-.9.6-1.1 0-.2 0 0 .3-.2.3-.8-.5-1.7.6-2.3-.3-1 .6-1.9-.1-2.5.5-2.3-.8-4.3.1-6.4-.5-.3.1-.5.3-.9.3s-.5-.2-.6-.5c-1.7.4-3.5.3-5 .5-.3-.1-.6-.3-.8-.4-1.1.8-2.3.1-3.6-.2-.3 0-.4.3-.6.3-1.7-.4-3.3.2-4.7.4-.2.1-.2-.1-.2-.3-2.1 1.1-4.6.4-6.9.4-.7.3-1.5.1-2.3-.2-.1.1-.1.2-.3.2-1 0-2.1-.3-2.9 0-1.6-.8-3 0-4.2-.8-2.2.1-4.4 0-6.3.1-.3 1-1 1.4-1.5 2.1-1.1.4-2.4-.2-3.3-.9-.6-3.4 2.1-4.6 3.8-3 1.7 0 4.3.1 6.4.2 1.5.1 3.1.1 4.1.7 1.7-.2 3.8-.1 5.5 0 3-.5 6-.3 8.9-.7 3.6-.4 7.2 0 10.6-.2.2 0 .5.1.7.1 3.5.2 7.4-.2 11.2.1.2 0 .1.2.3.2 1 .3 3.5-.3 5-.3 2.3 0 5 .4 6.9.4.4 0 .8-.2 1.1-.2 1.5 0 3.8-.2 5.5-.1 2.5.1 4.9.8 7.4.1.1.2.5 0 .5.2 5.8-.7 12.3-.1 18.1-.6.3 0 .4.2.5.3 4.6.3 8.6-.9 13.2-.7.7-.8 1.2-1.9 2.6-2 .5.6 1.3.5 1.8 1.1.9 1.1.2 3-.7 3.9-.7.5-1.2.2-1.9.6zm.3-3.9c-.2.3-.5.6-.6 1 .5 0 .9-.1 1.2.2.2.9-.4 1-.7 1.5.2.2 1 .1 1.3 0 .1-1.4-.2-2.4-1.2-2.7zm-110.2 3.3c.1-.5-.1-1.2.8-1.2 0-.4-.5-.4-.7-.5-.4.1-.4.7-.9.7 0 1.2.7 2.1 1.7 1.5 0-.2 0-.3.1-.4-.3-.1-.7 0-1-.1z"/><path d="m134.6 169.4c-1.2-.2-2.3.5-3-.1-1.1.6-2.3.2-3.3.2-.2 0-1.2.2-1.8.2-.1 0-.3-.2-.4-.2-.5 0-1 .3-1.5.2-1 0-2-.4-2.9-.2-1.3.3-2.8.2-3.8.4-.3-.2-.8-.1-.9-.4-.7.2-1.2.5-1.8.2-.9.3-2.5.5-3.5.1-1.6.5-3.8-.1-5.3.4-.1-.1-.4-.1-.4-.3-.4.3-1.1.5-1.8.4-.3 0-.6-.4-.9-.4s-.8.2-1.1.2c-.8 0-1.5-.1-2.1-.5-1.3.3-2.6.3-3.5.1-.3 0-.4.2-.7.2-.2-.1-.6 0-.5-.3-.5.2-1.3.4-1.7-.1-.1 0-.1.2-.1.3-1.1 0-2 .2-2.5-.3-1.8 0-4.1.5-5.1-.1-.9 0-2.2.5-3.2-.1-.2 0-.2.4-.5.3-1.9-.3-3.1.1-4.9-.2-.1-.4.2-.4.3-.6.4-.1.7 0 .8.2.9-.6 2.5-.5 3.2-.1.5-.3 1.6-.4 2.2.1.5-.6 0-1.3.4-1.8.6 0 .7.3 1.1.6-.1.3-.1.5-.1.8.6.6 2-.3 2.4.5 1.4-.1 2.6-.9 3.8-.1.9-.4 2-.1 3.2-.3-.1.4.2.3.3.5.2-.1.2-.4.3-.5.8.5 2.5-.6 3.4.5.3 0 .9-.7.9 0 .2-.2.7-.5 1-.2 0-.6.1-1.3.2-2.1.2-.1.5-.2.8-.1.3.4.4 1.7-.1 2 .2.2.5.2.6.5 1.9-.3 2.6-.1 4.8-.2-.1.3.2.3.2.5.3-.1.3-.4.4-.6 1.3.7 2.6-.7 3.6.2.4 0 .4-.3.7-.3 1 .9 2 .3 3.2.1-.1-1-.4-.3.6-.2.4.4.6-.4 0 0 .1.4.4 0 .7 0 0 .3.1.4.2.5 1.1-.5 2-.7 3.6-.4 1.8-.7 2.5-.1 4.1-.4.8.5 2-.2 3 .1.4-1.1.2-2.2.4-3.7.2-.1.3-.2.4-.2 1.3 1-.2 3.1.6 4.4 1-.7 2.2-.4 3.4-.7.2-.1.2.1.2.3.5-.2 3-.5 2.4.7z"/><path d="m126.2 86.1c-.5-.2-.5 0-.9-.1-.3-1.4 0-3.1-.3-4.6-.1-.8-.9-1.8.3-2.2 1.4 1.7.5 4.4.9 6.9z"/><path d="m120.1 51.3c-.1.3-.3.5-.4.8-.3 0-.4-.2-.4-.5.3-.1.5-.2.5-.5.1.1.1.3.3.2z"/><path d="m103.9 99.6c-.7-.1-1.5-.1-1.5-.9.7-.7 2-.3 1.5.9z"/><path d="m20.3 168.6v.3c-.6.2-1.9.9-2.1-.1.4-.6 1.4-.4 2.1-.2z"/><path d="m18 169.1c-.6 0-.8-.2-1-.2-.6-6.6-.3-14.2-.8-21.1.4 0 .3-.5.8-.4.4 1.3 0 2.6.3 4 .2.9.4 2.5.5 3.9.1.9-.2 1.9-.2 2.7 0 .3.2.6.2.9 0 .6-.3 1.3-.3 1.9.1 1.3.2 2.6.3 4.1-.1 1.5.5 2.9.2 4.2z"/><path d="m17.1 144.2c-.3.2-.8.1-1-.1-.3-1.6 1.4-1.8 1 .1z"/><path d="m9.1 48.9c0-.3.2-.5.3-.7 0-.4-.4-.3-.4-.7.5-2.4-.2-4.5.7-6.5-.1-.3-.4-.3-.4-.6.1-.3.1-1.1.4-1.6-.2-2.7-.7-6 .7-8.1.4.1-.1.8-.2 1 .1 4.9.1 11.4-.6 15.9.1.6 0 1.2-.5 1.3z"/><path d="m7.7 161.9c-.7 0-.3-2.2-.9-3.1.1-1-.2-3 0-4.2-.6-.8-.1-1.3 0-2.5 0-.7.1-1.4.1-2.1 0-.9-.3-1.6-.2-2.5s-.4-1.8 0-2.6c-.6-.9.2-2.4-.5-3.1 0-.4.3-.4.3-.7-.5-1.7.2-3.9-.2-6.3-.1-.7-.4-1.5.1-2.1-.3-.8-.5-2-.2-3.3-.5-2.1-.2-4.6-.1-6.8 0-.8-.6-1.7-.6-2.4 0-.9.4-1.9.4-2.8 0-1-.3-2 .1-2.9-.6-1.4-.1-3.4-.1-4.8 0-.3-.3-.7-.2-1 .2-2.4-.5-5.7-.1-8.7.1-2.1-.6-4-.2-5.9.5 1 .1 2.3.3 3.4.1.9.6 1.7.7 2.6.2 2.2-.3 4.6.3 6.5-.2 10.7 0 21.8.4 31.5 0 .4-.3.5-.3.9-.1.4.3.2.2.5-.4 4.3 1.1 9.2.3 13.8.1 1.3.3 3.1.1 4.3.4 1.1.5 3.2.3 4.3z"/><path d="m169.2 160.9v.1c-.3.2-.2.9-.3 1.3-1.1.6-1.5 1.4-3 1.4s-3.2-.4-4.5-.4c-1.5 1-4.4 0-6 .2-.7-.3-1.1.1-1.6-.5-.7.7-2.1.1-2.8.8-.2-.1-.2-.3-.3-.4-1 .8-2.9-.2-4.3-.1-.4 1-.2 2 0 2.9-.5 2.4-.2 5.5-.4 7.7-1.3.2-2.4-1.4-3.6-.5-2.1-.7-5.3-.2-7.7-.3-.8.6-2.1.2-2.6.2-.2 0-.4.3-.6.3s-.4-.3-.6-.3-.5.1-.6.1c-.8 0-1.7 0-2.4-.1-4.1-.3-9.1.6-12.9.2-.9.4-2 .4-3 .1-2.3.1-4.6.3-6.9.6-.1 0-.5.1-.6.1-2.5-.2-5.4.2-7.5 0-2.6.9-5.8.3-8.7.5-.8-.2-1.5-.3-2.3-.4-1.6-.3-3.2-.2-5.1-.2-.8 0-1.7-.1-2.5-.5-.5.3-1.9.3-2.3-.1-5.1.9-9.4.9-15.1.1-4.1.5-8.3.5-12.3.5-2 0-4.1.2-6.2.1-1.6-.1-3.2-.4-4.7-.2-.7.1-1.3.4-2 .3-3.9-.2-7.8 1.3-12.3.3-1.4.6-3.4.2-5 .3-1.9-1-5.2.2-6.8-.6-.5.8-1.5-.2-2.2.3-1 0-1.7-.9-2.5-1-.7-.1-1.6.5-2.4.1-.2-.9-.4-2.1-.9-3.3.4-.5 0-1 0-1.6 0-1 .3-1.9.1-2.9-.3-1.1-.1-2.5-.3-3.7-.2-1.7.3-4.2-.1-6.4-.2-1.1-.1-2.6-.3-3.8-.1-1.1 0-2.5-.1-3.7 0-.8-.4-1.7-.3-2.5 0-.6.3-1.2.3-1.8-.1-3.9-.3-7.6-.2-11.7-.6-1.9-.4-3.6-.3-5.1.1-2-.3-3.9.1-6.2-.4-2.7-.2-5.5-.3-8.3 0-.2.3-.3.3-.4s-.2-.3-.2-.4c0-1.4-.3-3.1 0-4.5-.8-1-.4-3.4-.5-4.8-.1-1.5-.3-2.9-.2-4.4 0-.4-.5-.2-.3-.6.1-.8-.1-1.1.4-1.7-.2-.1-.5.1-.4-.4-.2-3.8.3-7.7 0-11.2.2-1.2 0-1.9 0-3.3 0-1.6.2-3.2.1-4.6-.1-1.3-.6-2.8-.1-4.1-.6-4.8-.7-11.6-.6-17.6-.4-.9-.5-2.5-.2-3.7-.1-.4-.5-1.7 0-2-.7-4 0-5.8-.4-9.7-.1-.5.3-.3.3-.7-.6-1.3-.1-3-.4-4.5 0-.4.4-.3.3-.7-.6-1.1 0-2.6-.5-4.2.4-.6.2-1.4.8-1.9.3 0 .7-.1 1 0-.2-1.2 1-1.8 2-1.3-.1-.7 1-.7.5-1.3.7.2.9-.2 1.8 0 1.7-.4 3.6-.9 4.9-1.3 2.6-1.6 5.8-2.2 8.5-3.5.3 0 .6 0 .7.1.3-.7 1.1-.6 1.6-.9.4-.2.8-.4 1.2-.2 2.4-1.6 5.7-2 8.3-3.5 1.8-.3 3.7-1.2 5.4-1.9.6.1 1.1-.5 1.8-.3 3.1-1.6 7.1-2.8 10.2-4.1.5-.1.3 0 .7.1.8-.8 2.2-1.3 3.5-1.7 1.4-.4 2.8-.7 3.9-1 .2-.3.4-.4.7-.5s.6-.1.9 0c.5-.9 1.8-.7 3-1.1.9-.3 1.8-1.1 2.7-.9 1.1-.7 2.2-1.1 3.6-1.4 1.3-.7 2.8-1.8 4.6-1.7.6-.7 1.7-.5 2 .1-.9.3-1.7 1.1-2.7 1-4.6 2.9-10.2 3.9-15.5 6.3-2 .3-3.4 1.2-5.4 1.5-.8.9-2.2 1-3.4 1.4s-2.3 1.1-3.6 1.2c-1 .8-2.6 1.2-3.7 1.8-.7-.1-1.3.5-2 .1-1.2 1.1-2.8 1.3-4.3 1.7-.7.2-1.4.5-2.1.8-2.6.9-4.9 2.3-7.6 2.8-.6.7-1.4.7-2.3 1s-1.8.9-2.5 1.2c-1.2.5-2.5.8-4 1.1-.4.4-1.2.3-1.3.9 1.9 0 3.2-.3 4.7 0 1.1-.4 2.3.1 3.6.1 1.2 0 2.7-.6 3.8-.3 5.7-.8 11.6-1.1 17.1-1 8.8.2 17.8.4 27 .6.6 0 1.3-.1 1.9-.1 1.5-.1 2.9-.1 4.4-.1 1.6 0 3.2-.3 4.8-.3.6 0 1.3.2 1.9.2 1.6 0 2.2-.3 3.6-.4.5 0 1.1.3 1.7.3.5 0 1.1-.3 1.6-.3h2.1 5.4c6.6.2 13.4-.1 20.6-.1 4.3 0 8.8.1 13.3 0-1.8-1.4-4.6-1.2-6-2.7-1.9-.5-4.1-.8-5.3-2.2-.3-.1-.4.5-.5.2-.3-.2-.6-.2-.6-.6-.8.1-1.5-.1-2-.7-.5 0-.5.1-.9 0-1.7-.7-3.8-1.4-5.8-2.3-.1-.2-.3-.3-.3-.6-1.7 0-2.7-1.5-4.7-1.5-.9-.7-3.3-.9-3.9-1.8-.8.3-1.8-.1-2.6-.5-.5-.2-1-.6-1.4-.7-.1 0-.4.2-.5.1-1-.4-1.9-1-2.6-1.5-.9.1-1.7-.2-2.1-.8-.4 0-.7 0-.9-.1-.8-.7-2.5-1.2-3.6-1.5-.6-.6-1.6-.4-1.8-1.1-.3-.3-.3.4-.8.2-2.3-1-4.3-1.9-6.7-2.5 0-.3.4-.6-.1-.6-.6.3-2.9.3-3.6-.6 0-1.1 1.6-.8 2-.2.5-.1.7.2 1.2.1 0 .7.6.1.6.6 2.9.2 5 2 7.6 2.4.3.2.6.4.8.6 4.6 1.3 8.3 3.9 13.4 5.1.3.4.8.4 1.2.7 1.2-.4 1.4.4 2.1.7.3.1.9 0 1.3.2.3.1.5.5.8.6 2 .6 4.2 1.1 6 2.5 1 .3 2 .5 2.6 1.2 1.7-.1 2.9 1.4 4.4 1.3.9 1.1 2.6.4 3.4 1.7.9-.1 1.4.3 2 .6.3.1.6.2.9.3 1.1.4 1.7 1.1 2.6.9.2.1.2.3.3.5 2 .1 3.9 1.2 5.5 2.1 3.4-.1 6.5 1.3 9.3.3.9.7 2.1.1 2.8.2.4.9 1 1 1 1.8-.6.4-.7-.4-1.2-.4-.6.3-1.1-.2-1.7-.2-.7.7-2 .3-2.8.8-.6-.5-1.7-.3-2.5-.2-1-.8-2.1-.3-2.9-.4-.4 0-.8-.3-1.2-.3-.3 0-.6.2-.9.2-.4 0-.8-.4-1.3-.4-.1 0-.3.2-.6.2-.2 0-.5-.2-.6-.2-.2 0-.3.3-.5.3-.3 0-.6-.3-.9-.3-.3.2-.2.3-.7.3-.9-.1-2.7.1-3.7-.4-.4 0-.3.4-.6.4-.4-.6-1.9.5-2.5-.4-.5 0-.3.6-.9.4-2.2-.3-4.4 0-5.8-.2-.3-.1-.5-.1-.7-.1-.1 0-1.1 0-1 0-.2.1-.2.3-.5.3-.5 0-1.1-.2-1.6.1-1.3-.7-3.7.3-5.7-.3-1.6.6-3.5.1-5.8-.1-1.1.6-2.2 0-3.2 0-.6 0-.7.3-1 0-.2-.1-.1.1-.2.1-1.2-.1-2.6.2-3.6-.1-.7-.2-.4 0-1 .1-.3 0-.6 0-.7 0-2.3.1-4 0-5.7.3-2.3-.5-6 .5-8.5-.2-1 .5-2.2.1-3.4.5-.4 0-.4-.4-.8-.4-1.2.8-2.6 0-4.1.2-2.5.3-5.3 0-6.9-.3-.7.4-.7.8-1 .8-3.2-.3-5.5.3-8.7-.5-1.5.6-3-.1-4.5.2s-2.5-.2-3.7-.2c-1 0-1.9-.1-2.7-.1-.9 0-1.7.4-2.5.4-.5 0-1-.3-1.6-.3s-1.1.3-1.7.3c-1 .1-2.2-.1-3.2-.1-1.2.1-2.4.4-3.6.5-.9.1-1.9-.1-2.7 0-.6.1-1 .3-1.6.3-4.2 0-8.7-.1-13.6.2-.6.6-1.5.3-2.4.7.1 1.7.1 2.8-.1 4.4.5 1.8-.2 4.2.2 6.2-.4 5.1.1 9.9 0 13.8.6 1.1.2 2.5.3 3.8.1 1.6.2 3.2.3 5 .1 5.1.4 10.6.7 15.9 0 .2-.2.4-.2.6s.2.3.2.5c.1 1.6.2 2.8.3 4.4.1.5-.3.5-.3.8.3.1.2.4.3.6.1 4.3.4 8.9.9 13-.1.2-.2.5-.3.7.2 1.7.5 3.2.7 4.6.1.8.3 1.6.4 2.4 0 .5-.2 1.1-.2 1.6 0 .4.3 1 .3 1.5.1.5-.1 1.2 0 1.6s.4.6.4.9c.1.4-.1 1-.1 1.4.1.4.4.7.4 1 .2 1.4.2 3 .2 4.4.8 1.3 1.1 3.4 1.4 5.2.6 3.1 1.5 6.1 2 9.2.7 1 .7 2.8 1.3 4 0 .3-.2.4-.1.8 1 1.5 1 3.2 1.4 4.8.4 1.3 1.1 2.6 1.5 4 .2.8.3 1.6.6 2.1.6 1.2 1 2.5 1.2 4 .1.3.3.6.4.8v.8c.6.9.7 1.7 1.1 2.6.6 1.4 1.9 3.4 1.7 4.8.9 1.5 1.5 3.3 2.6 4.9.9.5 2.1.3 2.7.8.8-.1 1.6-.3 2.7-.4.7 0 2.1-.1 2.4.3.3-.6 1.9-.9 2.3-.2 0-.3 0-.5.2-.5 4.6.5 10.5-.1 14.9.4 2.5-.1 5.2-1.2 8.1-.2 1.8-.8 3.3.2 4.9.2 1 0 2.1-.3 3.2-.3 1.8 0 3.7.3 5.6.4 3-.4 7.8-.6 11.4-.5.9 0 1.9.2 2.6.2 1.5-.2 3.4-.6 4.6.1.5-.7 2.3-.3 3.6-.6.4-.1.2.4.5.3.5-.3 1.1-.4 1.8-.4.5 0 1.1.2 1.6.2.3 0 .4-.3.7-.3 1.5-.2 3.1.6 4.5.6.8 0 1.6-.5 2.4-.1.1-.2.3-.2.5-.3 1.2.1 3.3-.3 5.2-.3.8 0 1.5.1 2.2.2.6-.4 1.4-.4 2.1-.1 1-.2 2-.4 2.7.2.1-.2.1-.5.4-.4 1.3.2 3.5.2 5.4-.2.4-.2.3.2.6.2 2.5-.6 6.4-.1 9.8-.1 2.3 0 4.5-.5 6.1-.1.7-.8 2.3 0 3.3-.5 1 .4 2 .2 2.7.8.9-.2 1.9-.1 2.4.3 1.2-1.1 4.5-.6 6.2-.5.6 0 1.3.2 1.9.2 1.4-.1 3.6-1.2 4.1-.2.7-.9 1.9 0 3.2-.3.2-.6.8-.9 1.1-1.3-1.1-1.4-1.3-2.9-2.6-4.3 0-1.4-1.6-2.2-1.3-4.1-.7-.4-.4-1.2-1.1-1.6-.2-1.8-1.8-2.6-1.3-4.4-.6 0-.3-.5-.4-.9-.7-.8-.9-1.7-1.5-2.9 0-.4 0-.7.1-.9-.4-.8-.8-1.7-.7-2.5-.7-.1-.5-1.3-1-1.7-.2-1.9-.8-3.4-1.2-5.1-.1-.4.2-.4.2-.7-.5-.1-.6-.8-.4-1.3-.7-.8-.9-2-1.4-2.9.1-.2.3-.3.2-.6-.2-.7-.5-1.3-.8-1.9-.4-.8-.3-1.9-.6-2.9-.1-.4-.4-.6-.4-.9-.1-.3.1-.8 0-1.1-.2-.9-.8-1.8-1-2.7s-.1-2-.4-2.9c-.1-.4-.4-.7-.4-1-.1-.3 0-.6 0-1-.1-.6-.6-1.4-.7-2 0-.1.2-.4.2-.5-.2-.7-.6-1.4-.7-2.2-.2-1.7-.4-3-.5-4-.1-.6-.2-1.5-.2-1.8 0-.2.2-.3.2-.5-.1-1.1-.5-2.1-.7-3.2-.2-1.3-.1-2.7-.5-4 .4-2.5-.4-6.5-.1-9.1-.5-2.4-.3-4.2-.6-6.3-.1-.5.2-.5.2-.8-.3-1.8-.1-4.2-.4-6.4-.1-.9-.1-1.3-.1-2 0-.3-.1-.5-.1-.7-.1-6.1-.3-13.3-.5-18.5.3-5-.6-11.4.1-17.2-.8-2.8.6-6.4-.1-8.9.1 0 .1-.2.2-.3.4-.1.4.3.8.2.7 2.5.1 5.3-.2 7.7.7 1.1.1 2.4.1 3.6-.1 2.7.3 5.8.3 8.4 0 .8-.3 1.5.1 2.2-.3 6.6.5 13.1.2 19.5.7 1.2.1 2.6.2 4 .1 1.8.6 3.6.7 5.3.1 1.6 0 3.3-.1 4.7.3 1.2.4 2.5.5 3.9.2 2.6.3 5.3.4 8.1.1 2.9.7 7 .7 9.8.6 2.8 1.3 6.7 1.5 9.8 1.6 5.1 2.2 11.6 4.3 16.3 0 1.4 1.1 3.1 1 4.6.6.5.3 1.2.6 2 .1.4.6.7.6 1.1.2 1 .4 1.2.7 1.9.1.2 0 .5 0 .7.2.7.8 1.5.4 2.2.6-.1.2.5.3.7.1.3.4.5.5.8 1.2 3.5 2.3 6.4 3.6 9.7.9.6.6 1.9 1 2.9.5 1.1 1.5 1.9 1.5 3.1 1.5.7 1.9 2.1 2.5 3.3zm-24.3 10.2c.2-2.6.3-5 .3-8-1.5 0-3.1.5-4-.1-.2.4-.8.3-1.2.4-.2 1.8-.2 3.4 0 5.1-.2.4-.5.4-.9.4-.5-1.9-.1-4.1-.1-5.3-2.8.2-4.5-.1-7-.1-1.3.4-3.1.4-4.6.1-1.4.4-2.6.7-4.3.3-1.9.2-4.2.2-6.3.2-.2 0-.3.2-.5.2s-.4-.2-.6-.2c-1.1.1-2 .2-2.9.1-2-.2-3.8.5-5.7.6-1.4.1-3 0-4.4-.5-.8.5-1.5 0-2.2-.1-1.3-.1-2.6.2-4 .4-1.1.1-2.2-.2-3.2-.1-.5.1-1 .3-1.6.3-1.2 0-2.3-.3-3.5-.3-.9.1-1.7.4-2.6.4-.5 0-1.2-.1-1.7-.1-4.1-.2-8.1 0-11.8.2-1.9.1-3.9-.3-5.8-.2-3.8.2-7.5-.7-11.8-.3-.7.5-2.1.4-2.8 0-.7.4-1.6-.1-2.5.2-.4 0-.6-.2-.9-.3-.3.6-1.6.4-2 .6 0-.3-.6 0-.5-.4-3.7.1-7.8.2-11.4.2 0 .4-.4.3-.6.4-1.2-.4-2.6.2-4 .2-2.2-.1-3.4-1-4.4-2.2-1.4-2.8-2.6-6-4-8.7-.1-1.8-1.7-3.1-1.3-5-1.1-1.6-1.7-4-2.2-6.6-.8-1-1.2-3-1.3-4.4-1.7-3-1.7-7.2-3.3-10.7.1-.1.1-.3.1-.5-2.1-6.7-2.8-14.2-4-20.3-.2 1.2.4 3.4-.1 4.3.8 2.2.4 5 .5 7.2.3 4.7.6 9.5.6 14 .4 2.5.6 5.4.5 8.5 0 5.5.9 11.6.5 18.2.2 4.5.1 9.1.7 13.2-.3.3-.1.5-.1.9 1.7.2 4.3.1 6.1 0 0 .2.3.1.2.4.6-.3 1.4-.1 1.9.3.2-.4.8-.3 1 0 .2-.4.8-.1 1.3-.1 1.8-.8 4.4.4 6.6 0 .2-.3 1.1-.5 1.4-.1 1.1-.6 3.2-.8 4.4-.5.5-.6 1.1-.1 1.8-.1.9 0 1.7-.3 2.5-.3 2.1-.1 4.2.3 6.4.3.1 0 .1.2.2.3 1.4-.6 3.5-.2 5.3-.3.8-.1 1.4-.4 2 .1.2-.1.1-.4.5-.3 2.8.3 6.8-.5 10 .1 2.5-.5 4.9.6 7.4.1v.3c1.6-.7 3.3-.6 5.6-.8.3-.1.2.3.4.3.6-.4 1.7-.3 2.1.1 3.3 0 5.8 0 8.5.6 2.6-.1 7.2.2 10.1-.5 2.5 0 5.4-.3 8.1-.1.5-.8 1.6-.1 2.2-.1.2 0 .5-.4.7-.4.1 0 .2.2.4.2 1.7-.1 4.6-.7 5.9-.1.1-.1.2-.3.4-.3 4.2 0 7.8-.6 12-.1 1.6-.2 3.3 0 5 0 2.9 0 5.8-1 8.9-.3.3 0 .2.4.4.4.7-.6 1.8.2 3.3-.1.3-.6-.1-.7-.1-1.2zm-134.8-7.9c0-.3.4-.1.3-.4-.5-1.8.1-3.4 0-4.9 0-.7-.2-1.6-.2-2.2s.3-1.1.3-1.6c-.1-.5-.4-1-.4-1.5 0-1 .3-2.2.5-3.1-.1-.3-.5-.3-.5-.7.1-.2.3-.4.2-.7-.9-3.4-.5-6.5-.5-9.7-.1-.2-.2-.5-.3-.6.5-.4 0-1.1.4-1.6-.5-.1-.4-.6-.4-.7 0-1.9.2-4-.1-5.2-.1-.7-.4-1.6 0-2.2-.3-2.1-.6-5-.3-6.4-.2-2.6-.3-5.3-.1-7.8-.8-1.3-.3-2.9-.3-4.5 0-1-.3-2.2-.3-3.2 0-.2.3-.4.3-.6.3-1.8-.4-3.9 0-5.6-1.1-8.2-.7-15.9-1.4-23.2-.1-.6.2-1.2.2-1.9 0-.6-.5-1.3-.4-1.9 0-1 .2-2.3-.3-3.3-.1-.3.2-.3.2-.7 0-.3-.1-.6-.2-.8.1-2.9-.2-7.9-.2-11.3-.6-1.8-.1-3.5-.3-5.4-.2-1.7-.3-3.6-.5-5.5 0-.1.2-.2.2-.3-.2-4.7.1-10.1.1-15.1 0-1.5.2-3.3-.8-4.6-.2 1.4.5 3.6-.1 5.3.1.2.4.2.3.5-.8 1.2.4 2.6-.7 3.7.4 1.2.8 3 .2 4.3.4 1 .3 2.3.5 3.1.2 1-.2 1.9-.2 2.7 0 .5.3.9.3 1.4 0 .9-.5 1.8-.6 2.5.2.1.4.2.4.5-.1.4-.2.7-.4 1.1.4 1.4-.1 3.3.1 4.5.7.7.3 1.6.2 2.8 0 1.4.5 3 .5 4.1 0 4.6.2 9.7-.3 13.6-.2-.3 0-.3-.4-.1-.3-1.4-.4-3.2-.2-4.4.4-2.4-.5-4.3 0-5.9-.5-1.3-.1-2.7-.2-4.2-.1-3.4-1.2-7.1-.3-10.5-.8-1.4.3-2.9 0-4.2 0-.2-.3-.4-.3-.6 0-.1.2-.3.2-.5-.2-.9.1-2.5-.2-3.3-.1-.2-.3-.3-.3-.5 0-.1.2-.4.2-.5 0-.2-.2-.5-.2-.7 0-.5.2-1 .2-1.5s-.5-.9 0-1.4c-.6-1-.1-2.2.1-3.3 0-.3-.2-.4-.3-.6.7-2 .2-3.9.3-6.4-.4.4-.6-.1-1.1.1-.2.3-.3.7-.4 1.2-.2-.1-.3-.3-.6-.2-.4.5.1 1 0 1.6-.1.4-.5.7-.5 1.1-.1.7.1 1.6 0 2.4-.2 4.6.3 8.4.5 12.3 0 .2-.4.1-.3.4.3 2.1 0 3.4.4 5.4-.1.2-.2.5-.3.7.9 2.9.7 7.3.8 11.1-.2.2-.3-.1-.5.1.3 1.2 0 2.5.2 3.8.1.7.7 1.8-.1 2.4.6.8.8 2.3.3 3.1.1.1.2.3.3.4-.2 0-.4 0-.3.2 1 1-.8 2.8.5 3.4-.2.8.4 1.9-.3 2.2.2.1.4.2.4.5.3 3.9-.1 8.8.3 12.3-.1 0-.3 0-.4 0 .2.5 0 .5-.2.8.5 1.3 0 2.7.1 3.9 0 1.2.5 2.4.5 3.7 0 .1-.3.3-.3.4s.1.5.1.7c0 1.5.1 2.5.3 3.3.2 1.4-.2 3.4-.2 4.7.5.6.7 1.9.4 2.7.6.7.1 1.4.1 2.3 0 1.6.2 4 .2 5.2-.1 2.1.3 4.5.2 6.4s0 3.9.2 5.6c.6 4.7-.3 9.6.2 13.9.1.7-.2 1.5-.1 2.2.1.4.3.7.3 1 .1 1.1-.2 2.3-.2 3.4 0 .8.3 1.7.4 2.5 0 .2-.2.5-.2.7 0 1.5.4 3.5.5 5.1 0 .7-.2 1.4-.2 2.1 0 .4.3.8.3 1.1 0 .2-.2.5-.2.7 0 .8.4 1.5.5 2.3-.2 1.6 0 3.8.3 5.4.7.2.9.2 1.7.2-.6-1.8.7-3.7-.4-5.1.2-1 .1-1.9 0-2.9.2-.2.4-.3.8-.2.4.6 0 1.2 0 1.9 0 1.7 1 3.9.3 5.3.6.2-.2 1.1.2 1.5.8.1 1.3.3 2.5.2-.5-3.1-.9-6.1-1-9.8z"/><path d="m160 154.8c-1.2-1.4-2.2-2.5-2.7-4.8-.5-.6-1.4-1.8-1.1-2.5-.8-.6-1.1-1.8-1.6-2.8-.9.5-1.8.2-2.5-.3-.2.2-.4.3-.6.4-.7.1-1.6-.4-2.4-.4-.4 0-.9.3-1.4.3-.9.1-1.9-.1-2.6-.1-.4 0-.9.3-1.4.2-.6-.1-1.6 0-2.3-.3-.1 1.1.8 1.6.9 3 1.2 1.1 1.4 3.3 2.5 4.5.1 1.4.9 2.1 1.4 3.1.1.3-.2.3-.2.5.4.7 1.2-.3 1.5.4 2-.6 3.6 0 5.5-.6.2.3.5.4.8.5.2 0 .1-.4.2-.4 1.3 0 3.1-.3 4.3.3.2.5.1.8-.2 1.1-.4-.1-.9-.1-1.3-.3-1.8.6-3.6.1-5 .6-.3 0-.4-.1-.5-.2-.6.2-1.4.5-1.9.1-1.1.2-2.2-.1-3.2.4-.7-.3-1.5-.2-2.3-.5-1.2.5-3.1.7-4.4.3-2.9.1-5.3.5-7.9.3-.9.3-2.3.6-3.2.3-1.2.3-3.3.9-4.6.3-1.7.3-3.5.1-5.3.2-3.2.2-6.5.6-9.2.5-1.4.3-2.8.5-4.9.6-1.9.1-3.8-.2-5.7-.1-1.4 0-2.9-.2-4.4-.1-2.8.1-5.6.7-7.9-.1-.2 0-.1.3-.3.3-.3.1-.8-.2-.9-.2-1.3 0-3 .2-4.2.2-1.7-.1-3.7.4-5.5.2-1.6-.2-3.6-.3-5.3-.3-1.1-.1-2.5.2-3.5-.2-.7.4-1.7.4-2.4 0-.2 0-.1.3-.3.3-4.9.5-8.1-.4-12.6 0-.2-.1-.6-.1-.8-.2-.6.3-1-.1-1.6.4-1.8-.4-3.7.1-5.3-.4-.7.2-1.6.1-2.5.1-1.2 0-2.4.3-3.6.3-.4 0-.7-.2-1.2-.2-1.4.1-2.9.6-3.4-.5 0-.5.3 0 .4 0 .1-.3.2-.5.3-.7 1.4.3 3.4-.7 4.5.1.3-.2.5-.3.8-.4 1.7.4 3.7-.5 5.6.3 1.5-.4 2.9.7 4.8.2-.3-1.4-1.9-2.4-1.5-3.8-.7-.4-.6-1.6-1.4-1.9.3-.8-.1-.6-.1-1.4-.2-.3-.3.2-.5.1-1.4-1.9-2.1-3.9-2.6-6.3-.3-.2-.9 0-1.1-.4-2.9.3-4.4.1-6.7.5-2.4-.7-5.4 0-8.4-.5.1 2.3 1.9 4 2.2 6.2 0 .1.2.1.3.1-.1 1.3 1 1.5.9 2.8.7.9 1.2 2.6 1.7 3.7.4.8.9 1.4-.3 1.9-.3-.4-.9-.6-.6-1.2-1.3-.7-.9-2.7-1.9-3.4 0-1.6-1.7-2.8-1.2-4.8-.2-.4-.7-.4-.5-1.1 0-.3-.4-.2-.6-.2-.4-2.4-1.5-4.4-1.7-7-.3-.4-.6-.8-1-1 .2-.4-.2-.6-.3-.8-.7-1.3-.8-3-1.3-4.3 0-.1-.3-.3-.3-.4-.1-.3 0-.9-.1-1.1-.3-1-1-3-1.2-4.4-.3-1.8-.8-3.9-1.1-5.8-.2-1-.7-2-.9-3s-.1-1.9-.3-2.9c-.3-1.9-.6-3.8-.9-5.6-.3-1.5-.5-3.2-.4-4.9-.4-.6-.4-1.7-.2-2.6-.6-.6-.4-1.3-.5-2.3 0-.4-.3-.8-.3-1.1-.5-3.9-.9-7.5-1.1-11.9-.3-.2-.5-.5-1-.6.1-.3.1-.3 0-.6.2-.1.5-.2.7-.3-.2-2.7-.9-4.7-.4-7.2.5-.2.5-.3 1-.3.1 2.9.1 4.7.7 7.3 2.9 0 5.2-.3 8.1-.1.9.7 2.2-.2 2.7.7.7 0 1.8-.4 2.4.3.9-.6 1.9-.2 2.7-.4-.3-1.7.2-2.3-.4-3.8.2-.2.2-.4.4-.5-.9-.6-.2-1.9.1-2.7.9.2.5 1 .5 1.9.1 1.5.4 2.9.4 4.7 0 .1.2.1.2.2.5 0 1.2.1 1.6-.2 3.5.1 8.6-.6 11.4.6.8-.3 2.2.2 2.8.1.4-.9-.8-2.8.4-3.5-.5-.2-.3-1.1 0-1.5-.3-1.3-1.1-2.8-.3-4.1 1.5.2.5 3.3.4 4 1.2 1 .5 3.7 1.2 5.1 1.9 0 3.7-.1 5.7.2.9 0 2.8-.5 3.9-.4.4 0 .6.4 1-.1 1.9.2 3.1-.2 5.3.1-.5-3.1-.4-5.7-.6-8.1.2-.6 1.2-1 1.5-.1.1.3-.2.6-.2.9-.2 2.2.6 6 .8 7.4 6.1 0 12.1-.8 17.7-.6-.3-2.2-.9-4.3-.9-6.4-.1-.4.2-.4.3-.6-.3-.5-.3-1.4.3-1.9.7.9.6 2.9.9 4.7.2 1.4.8 2.6.8 3.9 1 .5 2.6.2 3.9.3 2.2.1 4.4.7 6.5.7 1.7-.4 4-.1 6.1.1.7-.3 1.4-.1 2.1-.3-.7-2.8-.8-5.5-1-8 .5-.4 0-.7.1-1.5.4.1.6-.6 1.1-.1.4 2.8.1 6.6.9 9.6 6.7.5 12.8-.3 18.7.6.3-.9-.3-1.9.5-2.7.6.5.8 1.4.9 2.5 1.3.8 3.3.2 4.7.7.9-.3 2.3-.1 3.2.2.4-.3 1-.4 1.4 0 .2-.2 1.1-.7 1.4-.2.3 0 .1-.4.4-.4 1.8-.1 3.5.6 5.1.1-.5-2.6-.4-5.9-.4-8.8 0-1 0-1.6.8-2.2.6.4.4 1.5.2 2.2.4 1.8.3 4.3.2 6 .2.7.2 1.8.1 2.5.4.2.7.2.7.9.1.4-.4.2-.4.5 0 2.7.5 5.1.6 7.4 0 1.2.7 2.5.7 3.5 0 .8 0 2.3.2 3.3.2 1.1.3 2.4 1.1 3.2-.6 2.3.4 5.2.5 7.2 1 3.4 1.9 7.8 2.5 11.5 1 2.5 1.6 5.6 2.1 8 .6 1.6 1.2 2.9 1.5 4.4.6.7 1.4 2.3 1.1 3.2 1.3 2.2 2.1 5.7 3.7 7.9 0 .4.1.4 0 .7.5.5.7 1.3 1.2 1.9 0 .2.1.4-.1.4.2.2 1.1 1.3.1 1.7zm-6.5-14.3c-1.4-2.1-2-5-2.9-7.3.3-.3 0-.6.2-.8-.3 0-.3-.2-.4-.3-.5-1.9-1.1-4-1.7-5.8 0 .2-.1.4-.2.4-4.9.3-9.7.3-13.4-.1-.3.5.2 1.2.4 1.6 1.4 5.4 3.6 10.7 5.4 15.5 1.1.5 2.5-.4 3.2.3.4-.4 1.7-.3 2 .3-.1-.4.3-.4.4-.5 2.1-.2 3.3.1 5.2-.2.6.4 1.8.2 2.5.4.1-1.4-.9-2.2-.7-3.5zm-5.4-20c-.8-1.1-.7-2.5-1.1-3.9.8-1.4-.6-2.8-.7-3.9 0-.4.2-.8.2-1.4 0-.4-.3-.6-.3-.9 0-.2.1-.5.1-.6-.1-.7-.7-1.1-.5-1.8-1.5 1.5-4.1 0-5.7.8-.7-.3-1.5-.3-2.2-.4-2.3-.2-4.5-.6-7.2-.1.7 3.2 1.8 6.7 2.1 9.8.4 1.3 1.5 2.8 1.2 4.4.4.6.8 1.5.7 2.4 3 0 5.9.6 8.7.6.4 0 .8-.3 1.3-.2.1 0 .2.3.2.3.9.4 2.2-.2 3-.1.3 0 .6.4.9.3-.1-1.8-1.1-3.6-.7-5.3zm-2.5-14c-.8-3.2-.5-5.9-1-9.1-.1.1 0 .4-.3.3.4-1.1-.4-2.1.1-2.9-.7-.3-.7-1.2-.2-1.7-.3-.9-.6-2-.8-3-1.3 0-2.1.4-3-.3-.7.2-1.4.2-2-.1-.4-.1-.2.4-.6.4-3.4.1-6.4.4-9.9.1.4 2.3.4 3.9.8 6.1.2 1.1.4 2.4.6 3.2.3 1.2.1 2.3.7 2.8-.1 1.7.6 2.7.4 4.2 1 .3 2.2.4 3.1-.2.3.6 1.1-.2 1.4.5 1.5-.5 3.5.2 5.5.1.2 0 .1.3.3.3.1-.1.1-.2.2-.3.9.2 2.4-.2 3.4.4 0-.4.1-.6.3-.8.3.3.6.3 1 0zm-1.6 46.5c-1.2-.9-2-2.6-2.1-4.4-.2-.3-.3.4-.5 0 0-.9-.9-1.8-.9-3.1-.3-.6-1.4-.4-1.9-.6-.3.4-.8 0-1.2.3-1.5-.7-2.5.3-4.2-.3-1.1.5-2.3.1-3.2 0-.1 0-.1.2-.3.2-.3 0-.5-.3-.8-.3s-.6.2-.9.2c-.4 0-.9-.3-1.1-.3-.1 0-.4.3-.4.3-.4.1-.7-.2-1.2-.2-.1 0-.3.3-.5.3 0 0-.3-.2-.3-.2-.7 0-1.4.2-2.1.3.1 1.1 1.2 1.7 1 2.7.3.1.5.3.6.5 1 2.6 2.4 4.7 3.4 7.4.5-.1.4.6.5.8 3-.1 6.8-.8 9.5-.2 2.2-1.1 5.4 0 7.5-.6-.4-.8-1-1.6-.9-2.8zm-5.3-12.9c-.3-.1-.6-.2-.7-.5-.9-3.1-2.5-7.1-2.9-10.4-.7-.7-.8-2-1.5-2.6-.6.1-1.2-.1-2-.1-2.4-.1-5.6-.3-8.5-.4-1 0-2.6 0-3.1.3-1.5.6-1.6 2.9-3.1 3.8.3 1.3 1.2 2.4.9 3.6 1.1.4.6 1.6.9 2.5.1.4.4.7.5 1 .1.2-.1.3-.1.5.1.7.7 1.4 1 2.1.5 1.4.8 2.8 1.5 3.8 4.9.1 8.8-.4 13.5.1.4 0 .4-.3.7-.3 0 .2 0 .4.2.3 1-.4 2.3-.1 3.2.1.4-1.5-.6-2.3-.5-3.8zm-6-18.5c-1.1-2.1-1.5-4.3-1.6-6.5-.1-.1-.4-.1-.4-.4-.1-.5 0-.3.1-.7-.9-.9-.7-3.3-1.3-4.4.1-.6-.1-.9-.2-1.3-3.2-.2-5.9-.1-8.9-.2-.3.6.2.6.3 1 .9 2.2 1.3 4.6 1.6 7.1-.1.3-.3.4-.3.7.2 2.4-.7 5.1-1.2 7.4 4.1-.3 8.6.5 12.7.5 0-.1.1-.1.1-.3-.5-.3-1.1-1.9-.9-2.9zm-4.6-23.2c-.9-1-1-3.3-.9-4.9-.7-.8-.5-2.3-.9-3.1-1.7-.5-3.3-.4-4.7-.2-3.1-.8-7.1.2-10.7-.4 0 .2-.3.2-.4.3-1.3-.2-2.1-.5-3.2-.2.6 1.9.6 3.3.6 5.3.5.2.1 1.4.7 1.8-.5.5.1.9.1 1.6.9.6 2.8.2 3.3 1.3.3.1.3-.1.5-.1.3.3.7.5.9.9 1.7.1 1.9 1.6 3.5 1.8.8 1.8 2.4 2.2 3 4 3.9.2 5.8.1 9.3.1 0-2.8-1.7-5.5-1.1-8.2zm-2.8 56.2c0 .2-.2.1-.3 0 0-1.7-1.9-3.5-2.1-5.4-.8-.2-.6-1.4-1.2-1.8 0-.2.2-.3.2-.5-.6-.3-.9-.9-1.1-1.7-1.3-.2-3.1-.1-4 0-1.1.1-2.3-.2-3.3-.2-.3 0-.5.1-.7.1-1.6-.2-3.3.3-5 .2-.2 0-.4-.3-.6-.3-1.6 0-3.1.3-4.7.4.5 2 1.7 3.2 2.1 5.3.6.4 1.1 1.3 1 2.1.2.3.4.6.7.7.1 1.7 2.1 2.4 1.4 4.3 3.7-.2 6.7-.4 10-.5.5-.3 2-.6 2.6 0 .1-.1 0-.4.3-.3 2 .1 3.7.2 5.5.1.3-.8-.7-1.7-.8-2.5zm-5.4-30.9c.6-2.8 1.3-5.4.9-8.5-.1-.7.1-1.4 0-1.9-.3-1.8-1.4-3.4-1.5-5.1-3.1-.3-5.2-.7-8.5.1.5 1 .5 2.5.8 3.6.2.6.7 1.1.3 1.7.8.3.5 1.1.7 1.7.2.7.6 1.4.8 2.3.4 1.8 1 3.3 1.2 5.1.5.6.7 1.6.8 2.4 1.1.1 2.9-.4 3.9-.4 0-.4.3-.8.6-1zm-1.7 14.3c-.8-.9-.5-2.9-1.3-3.7.2-.4-.2-.8.1-1.2-.9-.2-.4-2-1.3-2.2-.8.5-1.9 1.1-2.7.8-.8 1-2.8 1.7-4.2 1.4-2.1 2.1-7.1 1.7-10.6 1.3.1 2.4 1.8 4.5 2.1 6.8.8.7 1.1 1.7 1.5 2.8 4.8-.5 7.5.2 11.3-.4.1.1.2.2.2.4.9-.3 1.8-.4 2.7-.4 1.4 0 2.4.1 4 .3-.2-2-1.7-3.8-1.8-5.9zm0-31.8c-.8-.5-1.1-1.4-1.8-2.1-.4-.4-.9-.5-1.4-.8-.3-.2-.5-.7-.9-.9-.3-.2-.8-.3-1.2-.5-1.5-1-2.7-2-4.2-1.9.5 2.4 1.2 4.6 1.8 6.9.4.1 1.2-.3 1.5.2.9-.3 1.9-.6 2.8-.5.8.1 1-.1 1.9-.1.5 0 .9.2 1.5.1 0-.2 0-.3 0-.4zm-2.2 20.7c-.1.7.4.8.3 1.5.6-.5 1.2-1 1.4-1.8-.7 0-1 .3-1.7.3zm-13 6.7c.9-.1 3.4-.2 3.8-.4 1.4-.7 2.7-1.5 4.2-1.2 1.1-1.2 3.5-1.2 4.5-2.6.1-1.1-.7-1.6-.9-2.5-3.8-.4-7.1-.4-9.8-.3-3.3.1-5.7-.8-8.6-.4.2 2.3 1 4 1.2 6.3 1.7.6 3.7 1.2 5.6 1.1zm10.2-12.4c-.1-.2-.4-.2-.4-.4.3-.2 0-.4.2-.8-.8-1.1-.7-2.6-1.3-3.6-.1-.4.2-.4.2-.7-.1-.2-.4-.2-.4-.5-.5-1.9-1.3-3.7-1.5-5.3-.1-.3.3-.2.2-.6-.3-.2-.3-.7-.6-.8-3.9.3-8.2-.2-13.1 0-.9 0-1.6-.2-2.1-.2-.7 0-1.6.6-2.5.3.2 2.4 1 4.8 1.7 7.1.9 3.1.8 6.4 2.2 9.1 1.5.1 2.5 0 4.3 0 .1.3-.2.4.1.5.4-.1.7.1 1.3-.2 2.9.4 6 .1 9 .2.2.1.2.3.4.4 1.3-.1 1.9 0 3.3-.3-.1-1.7-1.3-2.5-1-4.2zm-5.3-19.5c.9-2.3-2.1-2.8-3.5-2.8.4-.8.9-.9 1.9-1.1.1.2.4.3.5.5.3 0 .3-.4.6-.1.2-.9-.5-1.6 0-2.2-.7-1.5-.4-3.1-1.1-4.3.5-.6.1-1.5-.1-2-1.1 0-2.4.4-3.2-.2-1 .4-2.2.1-3.3.2-1.6.1-3.6-.2-5.1 0-.8.1-1.1-.3-2-.4-1.5-.2-3 0-4.4-.1 1 3.8.9 6.9 1.9 10.5 1.1-.7 2.5-1.1 3.8-1.6 1.2.5 3.1-.6 3.7.3-.3.1-.3.4-.6.5-1.3.2-2.8.1-4 .8-1-.1-1.7.9-2.6 1.3.1 2.4.6 4 1 5.7 3.4-.3 5.9.3 8.5.2 0-.1 0-.3.1-.3 3.5-.2 6.7.4 9.4.6-.2-2.1-.7-3.9-1.5-5.5zm-2 53.5c-1.1-.5-1.5-1.6-1.7-3-.1-.1-.4 0-.4-.2-.7-1.3-1.4-2.5-1.6-4.3-.6-.6-.7-1.8-1.4-2.4-4.1.3-6 .1-9.7.2-3 .6-6.4.1-9.8.5.9 1.9 2 3.7 2.7 5.8-.6 0-1.4.2-1.3-1-.9-.8-1.8-2.1-1.9-3.3-.4-.5-.9-1-1.3-1.4-3-.3-4.6 0-6.6-.5-.6.5-1 .1-1.8.1-2.5 0-5.3 0-7.6-.4.2 1.4 1.2 3.2 1.2 4.5.5-.1.5.4.5.9.5.8 1.1 1.4 1.3 2.4.8.5.9 1.7 1.3 2.5-.2 0-.2.3-.4.3-.6-.4-.9-1.2-1.5-1.6-.3-1.3-1.9-2.4-2.1-4.4-1.2-1.2-1.7-3.2-2.4-4.9-2.8.2-5.3.5-7.7.3-.2 0-.3-.2-.5-.2-.6-.1-1.1.3-1.8.3-1.1.1-2.3-.4-3.4-.4-1 0-2.1.3-3.1.1.3 1.5.6 3.1 1.5 4.2 1.2 2.7 2.6 5.2 3.7 8 .3 0 .3-.4.5-.1.1.3.3.7.2 1.1 2.7.2 3.4 0 5.8.1.1-.1.2-.2.3-.3 1.3 0 2.3-.1 3.2.4 2.9-.8 5.1-.1 7.9-1-.2-.3-.1-1.3.5-1.4.4.1.5.4.6.7-.1.2-.4.3-.3.7.8.4 2.3-.1 3.5.6 2.8-.1 4.9-.3 7.6.1 1.8-.4 4.2-.2 6.6-.3-.2-.9-1.2-1.1-1.3-2.2-.2-.1-.4-.3-.5-.4 0-.4-.5-1.1-.9-1.5 0-.5-.3-1.6.3-1.9 1.4 1.9 2.8 3.7 3.7 6 1-.4 2.8 0 3.6.4 2.5-.8 4.4-.8 7.9-.3.4-.1 1.1-.4 1.2.1.9-.2 1.9 0 2.5-.2.1.2.2.4.5.4 0-.1 0-.3.1-.3 1.5-.1 2.7.2 3.5-.5-.5 0-1-1.2-1.2-2.3zm-6.6-13.4c-.3-.5-.1-1.1-.3-1.7-.4-1.1-1.5-1.7-1.1-2.9-.2-.7-.8-1.2-1-1.9-.1-.3.5-1.2-.1-1.5-2.8-1.1-6.5-1.4-8.3-3.9-.2 0-.4 0-.5-.1-.1-.3 0-.3-.1-.5-1.3-.6-2.1-1.8-2.9-2.9-3.5-.3-6.9.1-9.9-.3 0 .2-.1.3-.2.3.6 1 .2 2.5 1 3.4-.2 1.4.8 1.6.7 3 .8.5.4 2.2 1.2 2.7.7 3.1 1 6.3 2.6 8.9.4-.1.5.1.6.3.5-.4.9-.2 1.6-.1.5-.4 2.3-.3 2.8 0 .4-.3 1.1 0 1.2 0 1.2-.1 2.4-.1 3.6-.2.5 0 1-.3 1.5-.3.2 0 .3.2.4.2.4 0 .9-.3 1.3-.3.9 0 2.2.2 3.1.3.2 0 .2-.2.3-.2.2 0 .3.2.4.2.3-.1.4-.3.6-.3.7-.1 1.5 0 2.4 0 0-.8-.7-1.7-.9-2.2zm-4-14.2c-.5-.2-.4-1-.8-1.4-2.7 0-5.7.7-7.7.2.2.5.5 1.2 1 1 .8 1.6 2.6 2.2 3.8 3.3 1.1.2 2 .5 2.7 1.1.5-.3 1.4.4 1.8.2-.1-1.5-1.2-2.4-.8-4.4zm-1.3-4.6c-.1 0-.2 0-.3-.1.2-2.4-1.4-4.2-1-6.6-.4-1.2-1-2.7-.9-4.1-.5-1-.8-2.1-.8-3.6-1.9-.9-4.7-.2-7-.4-.3 2.1-1.4 3.9-1.5 6 0 .8.5 1.7 0 2.2.4 2.2.7 4.9 1.9 6.7 0 .3-.2.2-.1.5.7.1.6 1 1.4 1.2 1.1.3 3.9.1 5.5 0 1.1-.1 1.9-.2 2.8-.2-.2-.5-.3-1 0-1.6zm-4.6-21.3c-1.8.4-2.3 2.2-3.7 3-.3.9-1 1.3-1.1 2.3.9-.6 3-.4 3.7.2.9-.1 1.3-.1 2.2-.1-.2-2.4-1-3.1-1.1-5.4zm-1-3.1c.1-1.3-.2-1.5-.3-2.8-.8-1.3-.4-3.5-1.3-4.8-.1-.9-.2-1-.3-1.9-6.3.1-11.6.4-17.8.9.2 1.3-.1 1.8.5 3-.5 1.8.5 3.2.7 5.2.1.9-.2 1.9 0 2.5.3 1 .9 2.5.7 3.8.6.5.3 1.8.7 2.3 2.3.1 5.3-1 7.3-.1.2 0 0-.5.3-.4 1.3.2 2.8.2 4.5.2 1.2-2.7 2.9-4.9 5.7-6 .1-.8-.5-1.2-.7-1.9zm-6.9 17.1c-.2-2.7.8-5.3 1.4-7.6-4.1-.6-7.3.1-11.5.2.5 3.6 1 6.1 1.9 9.6 0 .2-.4.1-.3.4.4.4.3 1 .4 1.6.3 1 .9 2.1 1 2.9 0 .4-.3.8-.2 1.3.1.3.5.5.4.8 2.7.1 5-.3 7.2-.2.9 0 1.6.5 2.3.1-1.7-2.3-2.3-5.9-2.6-9.1zm-3.7 26.2c-.1-.3-.4-.4-.4-.7-.6-3.4-1.7-5.8-2.8-9.3 0-.3.2-.2.1-.5-1-1.5-.7-3.5-1.3-5.3-4.6-.3-9.4.2-14.2-.6-.3.3-1.1.2-1.7.2 0 1.8.5 3.7.9 5.5.3 1.1.3 2.2.7 3.2.2.4.6.7.7 1.1.5 1.2.5 2.5 1.2 3.5-.2 0 0 .4-.1.5.8 1.6 1.2 3.5 2.2 4.9 2-.3 3.5.2 5.3-.3.2.3.5.4.9.5.2-.1.2-.4.4-.5 1.3.1 3.4-.1 4.7.3 1.1-.5 3 .4 3.9-.4-.3-.3-.7-1.4-.5-2.1zm-5.4-21c-.3-2.4-.2-4.3-1.3-6.2.1-2-.6-4.1-.8-6.5-5.9-.2-10.2-.5-16.1-.8.4 2.4-.3 5 .9 6.8.1 2.1 1.2 3.8 1 6.2.2.2.3.5.4.8-.4 1.2.9 1.9.5 3.1 3.1-.1 6.2.6 9.3-.1 0 .2.1.4.3.5 0-.2 0-.4.1-.4 2.5 0 4.9.5 6.7.2-.9-.9-.1-2.9-1-3.6zm-3.7-20.8c.3-3.6-1.2-6.3-1.6-10.2-4.6-.3-9.6.3-14 .1 0-.1 0-.3-.1-.3-.3.4-.9.2-1.5.2.1.5.1.8-.1 1.3.2.1.3.3.3.5.3 5.1 1 8.7 2.1 13.1-.3.3-.1.7-.2 1.1 1.9.3 3.3.4 5 .3 0 .2 0 .4.1.4.1-.1 0-.4.2-.4s.2.2.2.4c.6-.2 1.3-.6 2 0 1.1-.1 2.4-.4 3 .3.7-.5 1.9-.1 2.4.2.5-.9 1.8-.3 3.1-.4 0-2.4-.2-4.9-.9-6.6zm-9.9 37c-.3 0-.3-.3-.4-.4-.4-1.9-1.3-3.1-1.3-5-.4-.4-.7-1.3-.3-2-.7-1.3-.2-2.6-1-4-1 0-1.7.3-2.4-.3-2 .4-3.5.1-5.3.5-2.2-.8-5.6-.1-8.3-.1 1.2 6.1 3.1 11.6 4.7 18.1 1 .6 3-.3 4.1.5.2 0 .1-.4.4-.3 1.1 0 2.1 0 3 .4.7-.6 2.6-.5 3.5-.1 1.8-.1 3.3-.3 5.4-.3-.6-2.4-1.7-4.5-2.1-7zm-3.6-16.6c-.3.1-.3-.3-.4-.4.4-.8.1-2.4-.7-3-.1-1-.6-1.4-.5-2.4-1.2-2.3-.5-4.8-1.3-7.3-.8-.4-1.7 0-2.8-.1-.8 0-1.6-.3-2.5-.4-1.3-.1-2.6.5-4 .5-1.9-.1-4-.7-5.9-.4-.6-.3-.7-.1-1.3-.2-.2 1.9 1.1 4.2.6 6.3 0 .2.3.2.3.4-.4 1.7 1.2 4 .8 5.6.5 1 .5 2.6 1 3.5-.4.5 0 1.5.5 1.9.2-.1.9-.1 1.3.1.4-.2 1.4-.3 1.9.1 1.3-1 2.7.4 4.1-.4 1 .7 2.2-.5 3.4.5.2-.2.6-.1.8-.3 1.2.5 3-.2 4.7.5 1.2-1.3-.5-3.2 0-4.5zm-2.7-16.6c-1-1.7-1-4.1-1.1-6.4-.1-.3-.4-.4-.4-.7 0-.4.6-.5.3-.8-.5-.1-.3-.9-.5-1.2.5-.1 0-.7.3-1.2-.7-.6-.6-1.8-.7-2.7-.3-.4-.5-.7-.5-1-3.4.1-6.1-.8-9-.8-2.2.3-4.5.2-6.9.2-.6 1.2.2 2.1.4 3.9.1 1.5.3 2.7.4 3.9.2 0 .4.1.4.2-.3 2.9.5 5.9.9 8.4 2.9.1 5.2.4 7.9.3.2 0 .1.3.3.3.1-.1 0-.4.3-.3 1.5.3 2.8-.4 4.1.3.7-.6 3.2 0 3.9-.3-.3-.9-.3-1.4-.1-2.1zm-10.3 35.9c0-.2-.3-.1-.3-.2.2 0 .2-.2.2-.4-1-.8-.8-2.4-1.1-3.6-.2-.7-.6-1.3-.8-2-.4-1.8-.6-3.7-1.1-5.2.2-.7-.6-.9-.3-2-.4.1-.3-.4-.5-.5-3.6.5-6.8.2-10-.2-2-.3-4.4.4-6.7.2.5 1.7 1.1 4.1 1 5.5.5.6.7 1.6 1 2.4.6 2.2 1.3 4.5 2.2 6.5.1 1.3.7 2.2 1 3.3 3.1.8 5.7-.1 8.2.6.3 0 .4-.3.8-.2.7.7 2.2-.6 2.9.2.5-.3 1.2-.4 1.7 0 .2-.4 1.3-.4 1.4.1.4-.3.9-.2 1.3-.3-.4-1.5-1-2.5-.9-4.2zm-5.8-20c-.3-2.2-1-4.1-.8-6.5-.6-1.9-.8-4.4-1.1-6.6-3.2-.4-7 .2-10.5.1-1.8-.1-4.6-.2-5.6.2.1 1.2.6 2.6.4 3.6.6 1.1.8 2.8.7 4.1.1.3.4.3.3.7 0 2.9 1.2 6 1.4 8.9.8.7 2.5.5 3.4.4 1.2.5 2.6-.4 4.2-.2v.4c2.8-.2 5-.1 8.2-.2.2 0 .1.4.4.3.1-.5.3-.4.8-.4-.6-1.5-.4-3.9-1.8-4.8zm-2.5-20.1c0-.3-.4-.1-.3-.4.3-1.4-.8-2.3-.2-3.2-.2 0-.3-.1-.3-.2.2-1.6-.4-2.3-.5-3.9-.1-.2-.3-.3-.4-.5.1-.6-.3-1.6.5-2.1-2-.2-5.6.2-8-.5-1.1.4-2.4.6-3.7.1-1.3.5-3 0-4.4.5.4 5 .3 9 1.2 13.4-.1.2-.3.3-.3.6.5.5.3 1.8.6 2.5 3.4-1.1 5.7.4 9.5-.5.4-.1.3.4.6.3.1-.1 0-.4.2-.4.7.3 1 0 1.6.4 0-.2.1-.3.3-.3 1.5-.1 2.3-.1 3.8-.1.4-2.2-.8-3.7-.2-5.7z"/><path d="m137 70.5c-.3-.1-.3-.5-.5-.6-1.9 1.2-3.8.1-6.1.7-1.9-.4-3.4-.4-5.3-.3-1.4-.4-3 .1-3.9-.6-.3 0-.4.3-.6.4-.4-.5-.8.1-1.2-.4-.1 0-.1.3-.1.4-1.7-.2-2.4-.6-4.1 0-.3-.1-.6-.1-.6-.4-.2.1-.8.5-.7-.1-.7.4-2.1.5-2.9.3-.9.1-2.3.8-3.6.3-.2 0-.1.3-.3.3-2.5-.3-5 .6-7.2-.3-.5.2-1.6.4-2-.1-.6.4-1.2.4-1.6.1-.7.3-1.5.5-2.3.6-.6 0-1.4-.2-1.9-.2-.8.1-2-.2-2.7-.2-.2 0-1 0-1.3-.1 0 0-.5-.3-.3-.3-.3 0-.8.4-1 .4-1.4-.1-3-.2-4.4 0-1.3.2-2.4-.3-3.6-.4-.7 0-1.3.2-1.9.1-.7-.1-1.2-.1-1.9-.3-1.1.5-2.2.1-3.2 0-1.3.4-2.4.5-4.1.2-.1.2-.3.3-.5.4-5 .2-9.3.2-13.4.2-.4-.1-.2.4-.6.3-.6-.4-1.2-.3-2.1-.3s-1.7-.3-2.6-.4c-2.2-.2-4.5.4-6.6-.5-.5.3-1.9.2-2.4-.2-2.8.4-6.2.2-8.9.9-.4-.1-.9-.1-1.2-.4-.3-.1-.2.3-.5.2-2.5-.8-6.6-.3-9.4 0-2-1.5-.8-4.6-1.8-7.1.3-.8.1-1.7.4-2.3-.2-.2-.8-1.5-.2-2.1 0-.2-.6-.3-.3-.4.4-.4.6-.9.1-1.2.1-4.4.2-7.6-.5-12.1.9-.3 2.2-1.1 3.7-1.1.2-.1.2.1.2.3 1.4-.8 2.6-.1 4.3-.2 2.2-.1 4.5-.4 6.9 0 1.8-.6 4-.1 6.3-.1v.6h.6c.3-.2.6-.4.8-.6 2.6.6 5.9.1 8.3 1 6.4-.7 12.7-.6 19.8-.5 3.5.1 8 0 11.8-.1 1.1 0 2.1 0 3.1.1 2.4.1 4.9 0 7.1.3.7.1.7.3 1.4.2.4-.1.9.2 1.4.2 2.1 0 4.8-.2 7-.2 1.8 0 3.8-.4 5.3-.3.2 0 .4.2.5.2.2 0 .3-.2.5-.2s.1.2.4.3c.1 0 1.5-.2 2.1-.2 1.5 0 2.6 0 3.6.5 1-.4 2.3.1 3.1 0 .2 0 .3-.3.5-.3.9-.1 1.9.2 2.7 0 .4-.1.6-.4.9-.4 1.5-.2 3.1.3 4.5.4 4 .2 8.4-.2 11.6.2.2-.1 0-.5.1-.7.3.1.3-.2.5-.1.4 0 .2.6.8.4.5 1.2.2 2.6.2 3.9-.1 3.6.6 7.4-.4 10.6.4.5.2 1 .6 1.5-.7 1.9.5 4.3-.2 6.1.1.4.6 1.3.1 1.6.8.6.5 1.9-.3 2.1zm-.8-17.3c-.1-1.9 0-4.6-.2-6.5-1.4-.4-1.8 0-3-.3 0 .1 0 .3-.1.3-.8-.1-2.1.1-3.2.3-.8-.2-2.1 0-3.4-.6-2 .6-4.3-.4-6.4-.2-1 .1-1.8.6-2.8.6s-2.1-.4-3.3-.6c-2.2.6-5.7-.2-7.4.2-.2 0-.1-.3-.3-.3-1 .6-3.7.3-5 .6-.1-.1-.3-.2-.4-.3-.7.4-2.1-.1-3.1-.1.1.3-.3.3-.4.4-2.2-.3-4.4 0-6.7-.1-1.8-.1-4-.6-6-.7-.6-.1-1.1.2-1.6.1 0 0-.4-.2-.5-.2-.2 0-.1.3-.3.3s-.3-.3-.5-.3c-.8.1-1.9.3-2.7 0 0 .3-.4.3-.6.4-1.7-.2-3.3-.4-4.8.2-2.1-.7-3.6 0-5.7-.5-.6.3-1.8.4-2.3 0-2.2.3-4 .7-6.2 0-.9.3-1.8.5-2.7.5-.4 0-.8-.3-1.2-.3-1.7.2-3.6.2-5.5.3-.4 0-1.2.4-1.2-.1-.3-.1-.1.4-.5.2-1.3-.4-3.2-1.4-4.3-.5-1.1-.2-2.7-.5-3.8-.8-.2 0-.2.4-.5.3-1.9-.3-3.8-.2-5.4-.4-.8.5-1.6.4-2.4.1 0 .1 0 .3-.1.3-3.5-.5-6 .6-9-.5-.4.2-.9.5-1.3.1.1.6-1 .5-1.4.3 0 .7-1 .4-1.3.8.2 3.3.4 5.9-.1 9.1.5.6-.1 1.3.3 2-.3 1.8.1 3.8.2 5.8.1 1.7.7 3 .2 4.3.1.3.3.5.4.8-.1.2-.4.3-.3.6 2.5-.4 5.5-.5 8.3-.1 2.2.3 4.1-.2 6.1-.2 2.4 0 4.8-.4 7-.1s5.1.5 7.1.7c2.2-.5 5.3.2 6.8.3 2.6-.5 5.3-.5 7.3-.2 0-.2.1-.3.2-.3.8.1 1.6.2 2.4.2 1.6-.1 4.2-.3 6.3-.6 2.2-.3 4.3.2 6.3.1.2 0 .3-.1.5-.1 4.1.3 8.7-.2 13 .5.3-.4 1.9-.2 2.2.2 1.1-.4 3.1-.3 4.7-.6.4-.1.3.3.6.2.6-.5 1.3 0 2 .1 4.8.4 10-1.2 15.2-.3 4-.7 7.9.3 12.6.3.2.1 0 .5.3.4 2.8.1 5.3.6 7.8-.2.1.2.2.6.4.3.3-3-.7-6.5.1-9.2-1.3-1.9.4-4.6-.3-6.3 0-.3.2-.4.3-.7-.2.1-.3 0-.4 0z"/><path d="m68.8 169.1c-1.7.1-3.3 0-4.7.2-.2 0-.2-.1-.2-.2-3.1.3-7.1.5-10.7.4-.8 0-1.8-.2-2.3-.5-1.9.2-4.2.4-6.4.3-3.5.1-7.6.3-10.8-.1-1.6.6-4.3.2-6.2.1.3-1.1 1.9-.6 2.7-.5.2-.5 0-1.4.1-2.1.2-.1.5-.1.7-.2.5.4.5 1.4.3 2 .4.5 1.2 0 1.7.4.8-.3 2.3-.3 2.8-.1.4-.1 1.1-.5 1.1 0 1.4-.9 3.3-.1 4.9-.1 1.3 0 2.7-.5 4-.1.2-.1.5-.2.7-.3 0-.4 0-.8.1-1 .4.1.3-.4.7-.2 0 .4.3.7.1 1.3.6.3 1.2-.3 1.8.4 1.9-.3 3.6-.2 5.6-.2.9 0 1.6.2 2.7.1 2.4-.3 4.8.2 6.9-.2.4-.4 0-1.5 1-1.3.3.2.1 1 .3 1.4.4.1.9-.3 1 .3.7-.7 2.2-.5 2.1.2z"/></g></svg>