<svg enable-background="new 0 0 245.1 199.7" viewBox="0 0 245.1 199.7" xmlns="http://www.w3.org/2000/svg"><g fill="#67676b"><path d="m81.6 64.6c.3.1.3.2.6.2.3.4.7.7.8 1.2.6.2 1.1 1 1.5 1.5.2.1.3-.1.5.1 1.3 1.5 3.6 2.5 4.8 4.2.5 0 .6.5.8.6.4.4 1 .5 1.5.8.6.3.9.9 1.5 1.1.8.3 1.7.8 2.5 1.3 1.2.1 1.6.9 2.7 1v.3c.7-.1 1.5.2 2.1.7 1.4.2 2.6.9 4.2 1 .1.2.2.3.5.3h.6c.2 0 .1.2.2.2.8 0 1.6.7 2.3.4 1.1.1 1.8.3 2.7.1.1.1.1.2.2.2 1.1-.2 2.1-.1 3.3.1.5-.1 1-.2 1.4-.4.2.1.4.1.5.2 1-.4 2-.1 2.8-.4.3.4.6.3.9.4-.3.5-.9.8-1.5.4-1.7.7-3.8.2-5.5.5-1-.6-2.2.4-2.8-.4-.2.4-.4 0-.6.4-2.2-.2-4.5-.5-6.5-1.3-1-.2-2.4-.5-3.3-1.2-1.7-.3-3-.9-4.3-1.5-.3-.1-.4-.4-.7-.5-.2-.1-.4.1-.5 0-.3-.1-.5-.5-.8-.5-1.5-.5-2.8-1.5-4.2-2.5.1-.2-.1-.2 0-.4-.2-.1-.3 0-.4.1-.4-.7-1.5-.7-1.5-1.6-.6 0-1.1-.6-1.2-1.1-.5 0-1-.4-1.6-.9-.3-.2-.7-.5-.9-.7-.4-.4-.6-1-.9-1.3-.7-.8-1.6-1.2-1.9-2.1-.4 0-.2-.2-.6-.3 0-.7-.9-.8-.9-1.5-.5-.2-1-.6-1.1-1.2-.5-.3-.8-.7-.8-1.2-.4-.3-1.1-.9-1.2-1.6-.2.1-.2-.1-.4-.1-2-3.5-4-7-4.8-11.1-.7-.5-.3-1.5-1.1-2 0-.2 0-.5 0-.7-.7-1.2-.8-2.8-1.3-4.1 0-1.3 1.2-1.3 2.2-1.2.9 1.2 2.1 2.6 3.5 3.8 0 .1 0 .1-.1.2 1 .9 1.8 1.8 2.4 2.9.3.2.8.4.7.8.5.3.8.6.9 1.1 1.2.6 1.4 1.7 2.5 2.3 0 .2.2.3.2.4 1.5.8 1.9 2.3 3.2 3.2 1 1.1 2.3 2.1 3.4 3.2.5 0 1 .4 1.2.8.3 0 .3.1.7.2.1.7 1.6.8 1.8 1.5.2.1.3.1.4 0 .6.3 1.2.8 1.9 1.2.6.3 1.4.5 1.9.9.4.3.7.3 1.3.6.8.3 1.5 1 2.2 1.2.4.1.7-.1.8.3 1.5.4 3.2.6 4.5 1.1 2-.2 4.1.8 6.1.3.6.4 1-.1 1.6 0 2.1-.3 4.1-1.1 6-1.3.1-.4.3-.5.5-.6.2.1.3.2.4.3-.1.2-.4.4 0 .5-.2.1-.7.3-.8.1-.5.6-1.2.8-1.9.8-.1 0-.1.2-.2.2-3.4.7-6.9 1.8-10.7.4-.3 0-.5.3-.6-.1-.4.2-.9.1-1.4-.2-1.8-.3-3.1-.4-4.8-1.5-.7.1-1.2-.2-1.5-.8-.2-.1-.3 0-.4 0-3-1.6-5-2.4-7.2-4.1-.2 0-.2.2-.3 0-.7-.8-2.1-1.2-2.5-2.1-.8-.3-1.3-.9-1.7-1.5-.7-.5-1.7-1.2-2.3-2.1-.4 0-.8-.5-.8-1-2-1.7-3.1-3.2-5-5.1 0-.1.1-.2.1-.3-.5-.1-1-.7-1-1.3-.9-.4-1.5-1.7-2.2-2.2-.1-.2-.2-.4-.3-.6-1.3-.9-2-2.2-3.1-3.2-.1 0-.1 0-.2 0-.3.8.4 1.7.1 2.1 0 .2.3 0 .3.2 0 .1-.1.2-.1.3.2.2.2.4.4.5-.1 1.5 1 2.3 1 3.7.4.8.7 1.7.8 2.7.4.2.3.7.6 1 0 .2-.2.2-.3.3.5.5.7 1.1.7 1.8.4.7 1.1 1.2 1.2 2.1.9 1 1 2.4 2.2 3.2 0 .2-.2.1-.2.2.5.6 1.1 1.2 1.7 1.8.2.1-.1.4-.2.5.1.1.3 0 .5.1-.2.2.4.9.7 1.1.6.5 1.1 1.1 1.3 1.6 0 .4.5.7.3 1z"/><path d="m75.1 48.9c0-.1 0-.1.1-.2.9.2.9.9 1.3 1.3-.1.3-.3.4-.4.6-1-.3-.3-1.2-1-1.7z"/><path d="m77 51.2c.1-.1.1-.1.2-.1 1.4.8 2 2.1 3.4 3.1 0 .1-.1.1-.2.3.1 0 .2 0 .3-.1.8.7 1.7 1.4 2.2 2.3 1.3.6 2.2 1.9 3.6 2.6 0 .1.3.1.1.4.8.3 1.7 1 2.2 1.7 0 .1-.1.2-.1.4-.4-.2-.5-.4-1-.6-.6-.2-1.5-.7-2-1.2-.2-.2-.6-.7-1.2-.8-.4-.7-1.6-1-1.6-1.9-.7.2-.7-.5-1.1-.8-.1 0-.3 0-.4 0-.2-.1-.9-1.1-.8-1.4-.3.1-.4-.2-.7-.1-.9-1.5-2.3-2.4-2.9-3.8z"/><path d="m84.3 65c0-.1.1-.1.1-.1 3 2 5.2 4.7 8.9 6.5.1.2.4.3.5.5.6-.1.7.5 1.1.7.3.2.8.1 1.1.3 1.2.5 2.5 1.6 3.8 2 .2.1.4 0 .6.1 1.3.5 2.6 1.2 4.1 1.4 0 .2.3.1.2.3.8-.1 1.5.2 2.2.3.5 0 1-.1 1.4 0 .3.1.6.3.9.4s.6 0 .9 0c.3.1.6.3 1.2.3h1.4c.8 0 1.4-.3 2.2.1-.5.7-1.4.7-2.4.5-.6.7-2-.1-2.8 0-.2 0-.1-.2-.3-.3-.3.2-.4-.1-.6-.1-.6-.2-1.6.1-2.5 0-1.3-.2-2-1.1-3.1-.9-2-.6-5-1.3-6.2-2.8-.9.1-2-.8-2.8-1-2-1.5-4.3-2.5-6-4.1-.4-.4-.8-.8-1.1-1.2-.3-.1-.4-.2-.7-.3-.6-1.1-1.4-1.7-2.1-2.6z"/><path d="m96.5 67.8c.3.1.4.3.6.5 0 .3-.4 0-.6 0 0-.2 0-.3 0-.5z"/><path d="m128.8 42.6c-.3-.4-.5-.1-1.1-.3-1.6-.4-2.2-2.3-1.8-3.8.4-.6 1.1-.7 1.6-1.2.7 0 1.5.2 2.3.6v.3c1 .4.8 1.5 1 2.3-.1 1.4-1.2 1.7-2 2.1zm-1.5-1c.9.3 1.8.2 2.4-.3.2-1.5 0-2.8-1.8-3.2-.8.2-1.3.8-1.8 1.5.8.5.7 1.4 1.2 2z"/><path d="m146 51.6c1.5.9 2.5 2.7 1.4 4.6.1.5-.2.6-.3 1.2-.9.6-1.1 2.7-1.9 3.3-.1.2-.1.4-.1.5-.3.2-.5.7-.8.9-.1.2.1.2 0 .4-.8.9-1.2 2.6-2.1 3.5.1.4-.2.6-.3 1.1-.6.4-.9 1.6-1.5 1.9-.1.2-.1.4-.1.6-1.1 1.2-1.7 3.3-3.4 3.9-.7 1.2-1.9 1.4-2.8 2.2-.3 0-.5 0-.6-.2-.1.5-.6.2-.8.6-1.2 0-2.1.4-3.4-.1-.7-.3-1.7-.7-2.3-1.1-.7-.4-1.3-1.1-1.9-1.5-1-1.2-1.6-2.9-2-4.8-.2-1.3-.9-3.2.3-4.5 1.1-1.9 2.3-3.1 3.7-4.6 3.7-1.9 7-4.7 11.2-5.8.8-.4 1.7-.9 2.7-1 .6-.7 1.9-.7 2.9-.8.3 0 .7-.2 1-.2s.7.3 1.1-.1zm-3.3 1c-1 .4-1.8 1.1-2.9 1.1-1 .6-2 1.1-3.2 1.2 0 .2-.1.3-.2.3-1.3.4-2.3 1.3-3.6 1.8 0 .1-.1.2-.1.3-1.3.4-2.3 1.6-3.7 2 0 .2-.2.2-.2.3-1.1.2-1.8 1.4-2.6 1.7-.1.7-1 1.7-1.7 2.1-.1.3 0 .4-.1.7-.2.1-.3.3-.5.4-1 1.6 0 2.7-.2 4 .4 1 .9 2.1 1.2 3.2.8.7 1.5 1.4 2.3 2.1 1.8.7 3.6 1.8 5.5.9.1 0 .2.1.4.1 2.4-.9 4.3-2.6 5.7-5.2.1-.2.3-.2.4-.4.2-.6.5-1.2.8-1.7.1-.1.4.1.4-.1-.1-.1.1-.4.1-.6 1.1-1.1 1.4-2.7 2.4-3.8.5-1.7 1.6-2.3 2.1-4.1 0-.3.3-.1.3-.4 0-.2-.2-.2-.1-.5.9-1.5 2-2.8 1.5-4.4-.2-.2-.6-.3-.5-.8-.4-.1-.6-.3-.9-.6-.5.4-1.6.3-2.6.4z"/><path d="m137.8 69.4c-.3-.1-.4-.2-.5-.4.7-3 .3-5.9-2.8-7.1-.3 0-.2-.3-.4-.3-.6-.1-.9-.1-1.4-.3-.2 0-.2.1-.3.3-.3-.3-.4-.3-.7-.5-.1.1-.3.3-.4.3-1.1-.1-1.6.4-2.2 1.1-.2.1-.2-.2-.4 0-.2.6-1 1-1.3 1.7-.1.2-.1.5-.2.8-.2.6-.7.7-.4 1.3-.2.3-.1.5-.3.8.1.4.2 1.2-.2 1.4-.3-.1-.3-.3-.5-.5.2-.6.1-1.2.1-1.7.2-2.2 1.4-3.8 2.6-5.1.7-.4 1.1-.5 2.1-.6.8-.1 1.6-.2 2.6 0 .5.1.9.5 1.4.7.3.1.6.1.9.2.9.4 1.4 1.2 1.8 2 .3.8.9 1.7 1 2.7 0 .4-.2.9.1 1.2-.1.7 0 1.5-.6 2z"/><path d="m126.2 69.3c0-.2.2-.2.2-.5.2.1.3.3.2.5-.1 0-.2.2-.4 0z"/><path d="m129 65.1c.5-.1.8-.4 1.1-.9.8 0 1.2-.5 1.8-1 .4.1.6 0 .9-.1 2.1.6 3.2 1.5 3.9 3.4-.3.3.1.6.1.9-.1.9-.7 1.5-.9 2.1-.9.4-.9 1.8-2.2 1.5-.2 0 0 .2-.2.3-.6 0-2.4.6-3.2-.3-1.4-1.5-3.1-3.8-1.3-5.5 0-.2-.1-.2 0-.4zm4.7 5.7c1.1-.7 2-2.1 2.3-3.6-.2-.9-.6-1.8-1.3-2.5-.9-.3-1.8-.7-2.6-.8-.6.5-2 .6-2.6 1.4-.5.7-.8 2.4-.2 3-.1.4.3.5.2.9.8.9 2 2.1 3.1 1.6.1.1.1.2.3.3.2-.4.5-.3.8-.3z"/><path d="m127.4 70.6c.7.2.9.6 1.3 1.2 1.3.6 1.6.8 3 1.2 0 .2.2.3.1.6-.8.1-1.4-.1-1.9-.6-.7.1-1.1-.6-1.7-.6-.2-.5-1.6-1.1-.8-1.8z"/><path d="m133.6 65.2c.3.2.3.6.7.8.3.8.5 1.7.2 2.3s-.9.7-1.6.9c-.5.1-.7.4-1.5 0-.8-.3-1.7-1.4-1.4-2.2.1-.4.5-.6.7-.8.4-.4.6-.9 1.2-1.1.4-.1.9.1 1.7.1zm.1 2.8c.7-1.4-.2-2.4-1.6-2.4-.5.4-1.2.9-1.3 1.7.4 1.4 2 1.6 2.9.7z"/><path d="m133.6 73.1c.4-.8 1.1-.8 1.7-1.3.1.2.2.4.2.6-.2.1-.3.3-.4.4-.5-.2-.6.2-.8.5-.3-.1-.5-.2-.7-.2z"/><path d="m133 82.6c1.3.4 1.5 1.5 1.3 2.8-.1.1-.1 0-.2-.1-.5.9-1.5 1.6-2.6.6-.1 0-.1-.4-.2-.4-.3-.3-.7-.4-.7-.7-.2-.9.6-1.6 1.4-1.9.1 0 .2.1.4.1.1-.1.3-.1.6-.4zm-.4 3.1c.3.1.5-.1.9-.3.4-1.7-1.2-2.9-1.9-.9.5 0 .4 1 1 1.2z"/><path d="m142.3 54.3c.4.1.2.5.4.6 0 .4-.3.4-.3.8 0 .3.2.2.5.3.1.7.8.6 1.2.3.7-1.1-.7-1.1-.5-1.9.8.1 1.3.7 1.7 1.3-.2.3 0 .9-.4 1.2-.8.3-1.4.9-2.3.4-1-.5-1.4-2-.3-3z"/><path d="m130.9 102.7c.1-.2.4-.2.5-.2.9.7 1.5 1 2 1.8 1.6.3 2.6 1.3 3.5 2.1-.1.3-.3.5-.5.6-1.3-1-2.2-1.7-3.8-2.2 0-.6-.7-.4-.6-1-.5.2-.9-.7-1.1-1.1z"/><path d="m147.6 66.2c0-.1.1-.1.2-.3.8-.1 1.4.4 2 .3s.9-.7 1.5-.7c.1.1.3.2.3.4-.5.4-.8 1-1.4 1.2-1.2-.3-1.9-.4-2.6-.9z"/><path d="m141.6 96.5c.8.5 1.4 1.1 1.9 1.8.2.1.7.4.7.8 1.1.7 1.9 1.6 2.6 2.7-1.2-.1-1.3-1-2.3-1.6-.9-1.3-2.3-2-3-3.3 0-.2.1-.3.1-.4z"/><path d="m148.7 102.4c.3.2.5.4.7.7 0 .1-.1.3-.1.4-.3.1-.6 0-1 0-.2-.4-.2-1.1.4-1.1z"/><path d="m144.7 115.2c.7.4 1 1 1.3 1.6.4.5 1.3 1 1.6 1.7.2 0 .7.2.6.5.7.2 1.4 1 1.8 1.5-.6.4-1.4-.1-1.5-.8-.5-.2-.6-.3-.8-.6-.1 0-.2 0-.3.1-1.3-1.1-2.6-2.2-2.7-4z"/><path d="m176.7 58.6c.1-.4.5-.3.8-.5 1.6 1.3 3.9 1.4 5.7 2.1.2.1.4.4.6.4.1 0 .1-.2.2-.2.6-.1 1.4.6 2.1.6.1.2-.2.2 0 .3.8-.4 1.1.4 1.9.1.2 0 0 .2.1.3 1.1-.1 3 .6 4 .8.2 0 .1.3.3.3.7 0 1.3-.1 1.5.5-.1.2-.3.2-.4.4-.7-.2-1.3-.1-2-.6-2.4-.5-5.2-1.1-7.6-2.1-.9-.1-2-.3-2.9-.6-.3-.1-.9-.2-.9-.5-1.3 0-2.1-.7-3.4-1.3z"/><path d="m158.3 131.9c.3.6.7 1.1.8 1.8.4.2.6.6.7 1 .4.2.7.5.7.9-1 .3-1.5-1.2-2.1-1.7 0-.6-1-1.4-.1-2z"/><path d="m200.3 65.4c.1-.1.5.1.6-.1 2.1.7 3.1 1.1 5.4 1.9.2.1.4.2.4.4.2.1.2-.2.4 0 .1.2.4.2.3.5.2.1.3-.1.4-.2.7.5 1.8.2 2.3 1.1.1-.1.4 0 .5-.1.1.1.1.2.1.3.7-.2 1 .4 1.5.6.4.2.7 0 .9.5.1 0 .1-.1.2-.1.3.1.1.4.2.6.2-.2.6 0 .9-.1 1.2.8 2.4 1.3 3.8 2.1.1.2.2.3.3.5 1 .2 2 1 2.7 1.8 0 .3-.3.1-.3.4-1.3-1-2.9-1.4-3.8-2.6-.2-.1-.2.1-.3.1-2-1-3.8-2-6-3.1 0-.1-.1-.2-.1-.3-.1 0-.1.2-.2.2-2.4-1.2-5.7-2.2-8.4-3.4-.7-.1-2.1-.1-1.8-1z"/><path d="m83.1 65.2c-.2-.1-.1-.5.1-.7 0 .2-.1.4-.1.7z"/><path d="m110.7 0c.2.2.2.4.5.6.3 1.3 1.5 2.2 1.7 3.5.4.5.9.9.9 1.6.4.3.3.9.8 1.1 0 .3.2.5.2.8.8.6 1.2 1.4 1.5 2.3.6 1.1 1.5 2 1.9 3.3.2 0 .2.2.4.2.7 1.7 2 3 2.5 4.8.7.9 1.2 1.8 2 2.6 0 .1-.1.2-.1.3.4.5.7 1.2 1.2 1.6 1.2 2.9 3.2 5.1 4.5 8 0 .1.2 0 .3.2-.1.3.3.3.1.7.5.2.8.9 1 1.5.3 0 .2.1.4.2.4.9.9 1.8 1.7 2.5.9 1.9 2 3.2 3.2 4.9-.1.2.1.3-.1.4 1.4 1 1.5 2.7 2.9 3.8 0 .1-.1.2-.1.3.5.2.6.7.8 1.2.5.3 1.2 1.2.7 2-.3-.2-.6-.4-.6-.7-.2-.2-.3.1-.5 0-.2-.6-.7-.9-.7-1.6-.5-.2-.8-.6-.9-1.3-.2-.4-.8-.6-.7-1.1-.1-.1-.2-.2-.3-.2 0-.5-.3-.8-.7-1.1-.1-.6-.7-1-.8-1.6-1-1.1-1.7-2.3-2.4-3.6-2.9-4.2-5.5-8.5-8-13-1-1.8-2.5-3.4-3.3-5.4-.5-.3-.7-.8-.8-1.3-.4-.4-.7-.8-.8-1.3-.9-1.4-2-2.8-2.6-4.4-2.3-3.1-4.2-7-6.1-10.5-.3.1-.5.3-.7.5-.8 1.8-1.3 3.6-2.3 5-.1.2-.1.3 0 .4-.2.2-.3.5-.6.6-.1.4.2.8-.3.9.2.5-.3 1.7-.6 2.3 0 .2.1.4.1.6-.5 1.2-.1 2.2-.9 3.4-.3 3.3.2 6.4-.1 9.6.4.6.6 1.1.2 1.7.7.8.5 2.5.7 3.8-.1.3.2 0 .2.2 0 .5-.2 1.1.4 1.3 0 .9.4 1.4.8 2 .4 2 1.6 3.6 2 5.6.4.1.5.7.6 1.1.5.3.4.9.9 1.2.1.5.1 1.1.7 1.2-.1.3.4.6.6.9s.2.7.4.9c.1.1.2 0 .3.1.3.3.3 1 .8 1.1.5.7.7 1.6 1.6 2.1v.4c.6.3 1.2 1 1.4 1.7 1.5 1.1 2.5 2.5 4 3.7-.2.2.2.2 0 .4.7-.1 1.3 0 1.7.5 1.1 0 1.4 1.1 1.9 1.8 2.1-1.5 4-3.5 6.6-4 .1-.2.3-.3.4-.4.5 0 .7-.4 1.2-.3.8-.5 1.7-.6 2.7-.9 1.2-.3 2-1.1 3.4-.7 0 .1-.1.3-.1.4-1.7.3-3.1 1.2-4.9 1.4-.3.3-.6.4-.9.7-.4 0-.6.2-1 .4-.5.3-1.2.4-1.7.6-.2.1-.3.3-.5.5-.2.1-.9.3-1.1.4-.3.2-.5.6-.9.8-.5.4-1.1.6-1.6 1.1-.3.3-.9 1-1.5 1.4-.1.3-.2.5-.2.8-1.6.5-1.8 3.5-3.2 4.2.2.7-1 2.8-1.6 1.8.3-1.1 1.4-1.8 1.7-3 .7-.5.7-1.4 1.2-2.2.4-.6 1.1-1.1 1.2-1.8.2-.9-.6-1.4-.7-2.3-.4 0-.8-.4-1-.6-.5.1-.8-.1-1.3 0-.4-.4-1.2-.6-1.3-1.2-1.3-.7-2-1.9-3-2.8-.6-1.4-2.2-2.3-2.5-3.9-1.7-1.5-2.4-3.5-3.8-5.1-.1-.9-1-1.4-1.1-2.4-.4-.5-.4-1.2-.9-1.6 0-1.2-.9-2-.9-3.2-1-2-1.5-4.2-2.1-6.3 0-.2.2-.1.2-.3-.3-.8-.1-1.8-.5-2.6 0-.2.1-.3.2-.2-.6-1.4-.5-3.5-.4-5.1-.4-3.1.5-7.1 1.5-10.9.9-3.2 2.3-7 4.6-8.3.1-.7.2-.6.3-.7z"/><path d="m120.7 80.1c0-.1.1-.2.1-.3.6-.2 1.4.1 1.7-.5 1.3.2 2.2.2 3.5.5 1.3-.2 3.3-.3 4.8-.3 1.1-.7 2.7-.6 3.7-1.6.2.1.2-.1.3.1.4-.5 1-.6 1.4-1.2 1-.3 1.9-1 2.7-1.9.9-.9 1.4-2.4 2.2-3.4.3-1.1 1-1.7 1.5-2.5.2.1.3 0 .4-.1.1.1.2.2.3.3.1-1.3.9-1.9 1.8-2.1 0 0 .1.2.2.1.8-.2.9-.1 1.6.1 1.1.3 2.3.1 3 .3.2 0 .1.2.2.3.6-.1 1.2 0 1.5-.7.2 0-.2.3.1.3.5-2.2 2.8-2.9 3.9-4.7.2.2-.2.3-.1.5.5-.4.8-2 1.6-2.3-.5-4.8-1.2-9.5-1.9-14.3-.3.1-.4 0-.7.1-.2-.1-.1-.4-.3-.6-.1.3-.1.5.1.6 0 .3-.3.2-.3.5-1.5.1-2.5.9-4.1.9-.8.5-1.6.2-2.5.6-.2-.1-.3-.1-.5-.2-1.9.6-4.5.4-6.3.9-.6-.3-1 .2-1.5-.2.3-.4.7-.7.9-1.2.5.1.5.4.6.6.5-.1 1.2-.4 1.7-.1.1-.2.4-.2.6-.4.8.2 1.6-.4 2.5-.1.3-.5 1.1-.3 1.5-.1.3-.2.7-.1.9-.5 1.3.1 2.5-.2 3.7-.8.2 0 .1.2.2.2.7-.5 1.5-.6 2.2-.7 0-.3.2-.3.2-.6 1-.2 2-.1 2.7-1 .3.2.7-.2 1 .1.8-.4 1.9-.5 2.7-.8.2 0 .1.2.2.2s.1-.2.2-.2c.2 0 .1.2.3.3 2.9.2 4.7 2.8 7.2 4.4v.3c1.2.8 2.4 2.2 3.5 3.1 1 .2 1.8.6 2.1 1.3.9.6 2.4.6 2.8 1.4.2-.1.5.2.7.1.2.1 0 .3.2.4.5.2 1.6.2 1.8.7 1.4.3 2.6.8 3.6 1.5.6-.2 1.3.4 2 .6 1.1.4 2.6.6 3.7.7.3 0 .1.2.2.2.2.1.2-.2.4-.2.6.3 1.5 0 1.9.6.4-.2.4.1.9.3 1 .4 3.3.8 4.3 1.6.1 0 .1-.1.1-.2 2.2 1.1 3.9 1.3 6.1 2.4.1 0 .1-.1.2-.1 1.3.6 2.2.7 3.5 1.5 1.1.3 3.2 1 4.1 1.9 1 0 1 .8 2.1.7.8.8 2.3.7 2.9 1.5.8.3 1.4.2 1.7 1 .2 0 .5 0 .4.3.2 0 .3 0 .4-.1.1.1.3.3.3.5 1.1.3 2.3 1.1 3.3 1.7v.3c1.4.3 2.3 1.2 3.2 2.1 1 .1 2.2 1 2.8 1.7.1 0 .1-.1.2-.2.9.8 2.3 1.3 3.2 2.1 0 .1-.1.2-.1.3.1 0 .1-.1.1-.2 1.2.7 2.6 1.5 3.6 2.3.3 0 .6.1.6.4.2.1.5.1.8.2.5.2.6.6 1.1 1 .9.7 2.2 1 2.8 1.9 1.4.5 2.9 1.6 3.8 2.7.3.1.2.1.5.2.2.5.6.8.7 1.4-.4 1.8-1.9 2.5-3.5 2.6-3 1.1-7.4.2-10.3-2-.9 0-1.5-.8-2-1.2-.6-.4-1.1-.4-1.6-.9-2.7-2.4-6.9-5.1-10.5-7.3-.9-.2-1.8-.5-2.4-1.1-.5 0-.9-.2-1.2-.5-.7-.2-1.8-.4-2.2-1-2.8-.4-5.7-1.9-8.5-2.3-.5-.5-1.2-.2-1.7-.8-1.2.4-2.5-.5-4.1-.6-.3-.3-.9-.2-1.2-.6-.5.1-.7-.3-1.3-.5-.5.1-1.4 0-1.6-.5-.2 0-.3.2-.5.1-.6-.5-1.6-.5-2.3-1.2-.6.1-1.6-.3-2-.7-.2-.1-.2.1-.4.1-.7-.5-1.9-.7-2.4-1.2-.2 0-.2.1-.3.2-.8-.4-2.2-.6-2.9-1.2-1.2-.1-2.6-.6-3.5-1.4-1.3 0-2.6-.8-4.2-1.4-.1-.1-.3-.3-.5-.4-.8.7-.7 2.3-1 3.3.1.4.2.8.2 1.2-.3.2-.1.8-.5 1-.2 1.3-.5 2.5-.2 3.6-.3 1.2-1 3.1-1 4.2-.5.4-.6 1.3-.8 2-.9.9-.8 2.3-1.6 3 .2.4-.2 1.1-.6 1.1-.1 1.3-1.2 2.3-1.5 3.2-.2.1-.5.2-.7.4-.2 1.4-1.6 1.6-2.1 2.9-.8.5-1.4 1.5-2.2 2.2-.1 0-.2 0-.4 0-1.5 1.9-3.2 3.1-4.9 4.5-.1 0-.2-.1-.3-.1-1.2 1.4-2.7 2.3-4 3.4.5.8 1.1 1.6.6 2.6-.2.4-1 .9-1.5 1.3-.1.1-.3 0-.3.1-.7.6-1.3 1.2-1.9 1.3.1.4.5.6.4 1.1 1.3.4.9 2.2 2.3 2.7.1.4.5.7.7 1 0 .2.1.4.1.7.9.6 1 1.7 1.9 2.2v.4c.6.4 1 1.1 1.2 1.9.7 1 1.5 1.9 1.8 3.1 1.4 1.1 1.8 2.8 2.9 4.1v.4c1.1.7 1.2 2 2.2 2.7.4 1.6 1.9 2.6 2.3 4.2.1.1.3.2.4.3-.1.4.1.6 0 1 .8.3.8 1.1 1 1.7.2.7 1.1 1.3 1.1 2.2.8.4 1.1 2.1 1.6 3.1 0 .2-.2.2-.2.3 0 .2.3.3.4.4.6 1.8 1.2 3.5 1.9 5.4 0 .1-.1.3-.1.4 0 .2.1.1.3.2 0 1 .8 1.6.7 2.7.1.2.2 0 .3.3-.1 1.1.7 1.3.6 2.4.1.2.3.3.4.5 0 .3-.2.3-.1.4-.1.4.4.4.2.9.6 1 .5 1.9.8 3 .5.4.2 1 .3 1.8.1 1 .7 1.8.2 2.3.2.6.4.9.3 1.8.4 2.1 1.1 3.9.9 6.3.2.8.4 1.6 0 2.5.1.2.3.4.4.6-.5 1 .2 1.3-.1 2.3.4.4.2.6.3 1.4 0 .4.2.8.1 1-.1.4-.4.3-.9.6-.4.2-.6.6-1.2.5-1.4-.2-2.1-1.2-3-1.6-.3-.6-.4-1.5-.9-2-.1-1.4-.5-2.6-.7-3.9-.2-1.4.2-3.2-.3-4.5.1-.3 0-.5.2-.6-.4-.7-.3-1.6-1-2 0-.2 0-.3 0-.5-.9-.7-.8-2-1.8-2.6-.5-1-1.7-1.8-1.7-3.1-1.7-2.7-1.8-6.3-2.2-9.7-.2-.7-.8-1.2-.9-1.9-.4-.2-.7-.5-.9-.8-.9-.3-1.5-1.3-2.6-1.7-.8-.9-1.7-1.8-2.3-2.9-.2 0-.2-.2-.4-.2-.4-1.3-1.5-2.2-1.5-3.7-.3-.7-.5-1.5-.9-2.2.5-.6-.6-1.7-.9-2.5-.1-.2 0-.3 0-.5 0-.1-.3-.2-.3-.3-.2-.4-.1-.9-.3-1.3-1-.4-1.4-1.6-2.4-2.1.1-.2 0-.2 0-.4-.2-.1-.2.1-.3.2-.3-.1-.3-.4-.5-.5-.3.3-1.3-.1-1.3-.6-.5.2-.7-.4-1.2-.3-.1-.1 0-.3-.1-.4-.2-.2-.3.1-.4.1-.7-.5-1.8-.9-2.1-1.8-1.3-.4-1.5-1.9-2.5-2.6 0-.5-.4-.7-.3-1.3-.9-.2-.3-1.6-1.2-1.9.1-.4-.1-.7-.1-1-.1 0-.3-.1-.4-.1-.3-1.1-1.3-1.8-1.9-2.8-.3-.2-.3-.1-.6-.1-.1-.2-.5-.3-.4-.6-.1 0-.3.1-.4.1 0-.3-.4-.2-.6-.3s-.4-.5-.6-.6c0 0-.3.1-.3.1-1.2-.5-2.3-1.6-3.4-1.9.1-.3-.1-.5-.3-.6s-.2 0-.3.2c-1.4-.7-2.8-1.5-3.9-2.5-.2-.9-.8-1.5-1.1-2.4 0-.3.2-.2.2-.5-.2-1.6-1-3.1-.6-4.8 0-.2-.2-.4-.2-.6.1-.3.3-.5.5-.7-.5-.5-.2-1-.3-1.7-.4-1 .3-2.5-.2-3.5.3-.5 0-.9 0-1.4.1-.2.1-.4.2-.5-.3-.2-.2-.6-.4-.8.2-1.5.1-2.5 0-3.9-.5-.2-1-.4-1.3-.9.1-.3 0-.6-.2-.8 0-.8.6-2 1.1-3-1.2-.5-2.3-.6-3.6-.9zm3.7 4c.4 0 .1.4.4.5.6-.1 1.6.8 1.8 1.3 1 .4 1.6 1.3 2.5 1.8-.1.2.1.2.1.3.2 0 .3 0 .5.1.1.2.2.4.1.7.2.1.2-.2.4-.1 1.7.9 3.6 2.7 5.4 3.9-.1.2-.1.3 0 .4 0-.2.2-.2.4-.1.9.8 2.5 1 3.3.4.5-1 .4-1.9 0-2.7-.5-1.1-1.3-2.2-1.6-3.2.2-.5-.2-.7-.6-1-.1-.3-.1-.6-.3-.8-.3.2-.4.7-.8.5-.5 1-1.3 1.4-2 1.9-.4-.2-.9.6-1.5.1-1 .5-2.3-.8-2.6-1.5 0 0 .1-.2.1-.2-.1-.2-.3-.1-.4-.3-.1-.1.1-.3.1-.5 0-.1-.2-.1-.2-.2-.1-.3 0-.4.1-.7-.8-.5-.1-2.3.7-2.4-.1.9-.4 1.7-.5 2.6.6 0 .5.7.9 1-.1.1-.2.2-.2.4.2.1.5.2.7.1.3.9 1 .9 2.1 1.3 1-.4 2.1-.8 2.7-2 0-.5 0-1 0-1.5.1-.1.3-.1.3-.4-.5-1.2-1.3-2.2-2.8-2.8-.2 0-.1.3-.3.2-1.1 0-1.9.5-2.7 1.1-.2-.1-.3-.3-.2-.6.8-.4 1.4-1.3 2.3-1.2-.4-.7-1.2.5-2.1 0-1.4.4-2.9.4-4.6.3-1 1-1.9 2.1-1.5 3.3zm1.2 5.9c.2 0 .3.1.2.2-.3.6.3.8-.2 1.3.1.1.3.1.3.3 0 1.5-.1 3.2-.2 4.5 2.2-1.1 4.9-1.6 7.2-2.6.1 0 .2.1.4.1.2-.5.7-.5 1-.9-.8-.4-1.2-1.4-2.2-1.6-.3-.3-.3-.8-.8-.6-.1-.6-1.1-.7-1.2-1.3-.5-.1-1.4-.5-1.4-1.1-.1.1-.1.1-.2.2-.9-.7-1.8-1.1-2.7-2.1-.2 1.2-.1 2.4-.2 3.6zm24.5 18.7h-.1c-.6-.8-1.3-1.5-1.5-2.5-.2-.1-.2.1-.4 0-.1-.6-.9-.9-1-1.5-.2-.1-.3 0-.5-.1 0-.1 0-.2-.1-.3-1.6-.5-2.8-2.4-4.4-3.1-.4-.8-1.5-1.2-1.9-2-.6-.5-1.3-1.3-2.1-1.9 0-.2-.1-.3-.1-.5-1.5-.8-1.7-2.1-3.6-2.6-.1.1-.2.4-.3.5-.7-.1-1.2.4-1.7.3-2 1.2-4.6 1.4-6.5 2.7.3.3-.1.9.2 1.2 0 1.9.7 3.4.6 5.2.1.1.4.1.2.4.5.5.5 1.2 1 1.5.5-.1.8.5 1.1.7 2.6 1.5 5.1 3.1 7.6 4.3.4.7 1.7.7 1.8 1.7.3 0 .4.1.6.2 0 .1-.1.2-.1.3.8.4 1.4 1.7 1.3 2.6.2 0 .2.2.3.2.1.8.9 1.4.9 2.2.7.8 1.3 1.6 1.8 2.5.4.2.8.4.8.9.3 0 .3.1.6.2.3.8 2 1.2 2.3 1.9.8.1 1.6.5 2.2 1.1 0-.1.1-.1.3-.1.1.1.3.2.2.4 2.2 1 2.6 2.7 3.8 4.1-.1.3.1.4.1.6 1.1 1 .9 2.7 1.7 3.9 0 .1-.1.1-.2.3.8 1.8 1.4 3.8 3.1 5.2-.1.2 0 .2 0 .4.5.1.5.4.7.6.2.1.3.1.5.2.4.9 1.9 1.3 2.4 2.3 1 .4 1.7 1.4 1.8 2.5.1.2.1 0 .4.1.2 1.1.7 2.1.5 3.5.1 0 .2.1.2.1 0 1.7.4 3.2 1 4.6 0 .1-.1.2-.1.3.3.5.7 1 .7 1.7.4.6.9 1.1.9 1.9 1.1.4 1.1 1.4 1.8 2 .2.9.9 1.4.8 2.4.4.5.7.9.4 1.5.9.7.1 1.8.7 2.7-.2.9.2 1.9-.1 3.1.1.1.2.2.2.3 0 .2-.1.4-.2.4.3.4.5.9.4 1.6.1.2.5.4.2.8.5.4.5 1 .5 1.6 1.1.7 1.7 1.6 3.1 1.7.4-.2.7-.4.8-.9-.7-1.3-.3-2.9-.5-4.4.3-1.5-.4-3.3-.2-4.8-.2-.1-.2-.3-.3-.5 0-.1.1-.1.1-.2-.2-.2-.4-.5-.2-.9-.3-.8-.2-1.8-.6-2.5.1-.7-.1-1.1-.1-1.6-.1-.6-.1-1.1-.1-1.6-.1-1.8-1-3.6-1.3-5.3-.1-.3 0-.7 0-1-.1-.6-.7-1.2-.7-1.8 0-.3.2-.2.2-.5-.3-.3-.9-.8-.6-1.3-.8-1.1-1-2.6-1.3-3.9-.1-.3-.4-.6-.1-.9-.4-.2-.5-.7-.7-1 0-.6-.4-1.3-.3-1.8-.6-.5-.5-1.3-.8-1.9.1-.2.1-.4.1-.5-.6-.2-.6-.7-.6-1.2-.2 0-.2-.2-.4-.2.1-.7-.6-.9-.5-1.6-.6-.1-.8-1.1-.5-1.7-.8-.3-.5-1.3-1.3-1.6 0-.9-.6-1.4-.9-2.1-.6-.1-.4-1.3-1.2-1.5 0-.2 0-.3 0-.5-.2-.1-.2.1-.3-.1-.1-.6-.7-.9-.9-1.5.1-.2-.1-.2.1-.5-1-.5-1.7-1.5-1.9-2.4 0 .1-.1 0-.2 0-.8-1.4-1.6-2.8-2.6-4.1-.1-.2.1-.3.1-.5-.4 0-.2-.3-.6-.3 0-.2-.2-.2-.1-.4-.4 0-.3-.3-.6-.4-.6-1.6-1.8-2.9-2.4-4.4-.5-.2-.4-.8-1-.9-.1-1.3-2.2-1.9-2-3.6-.3 0-.4-.5-.4 0zm-15.1-27.6c.2.1.2-.1.5.1.8.9 1.1 2 1.9 2.9 0 .1-.1.1-.2.3.7.9 1.2 2 1.4 3.2.1 0 .2.1.4.1.2.6.5 1.1.8 1.7.1.2.1.3.3.5.1.1 0 .3 0 .4.1.1.3.2.4.3.3.6.3 1.7-.1 2.4-.2.3-.4.3-.5.4-.4.4-.7.9-1.2 1.1-.7.2-1.6-.1-2.3-.5.3 1 1.7 1.4 2 2.3.1.1.2 0 .3 0 0 .2.1.3.1.4.3.1.3.3.7.4.5.8 1.6 1.4 2.1 2.2.5.1.5.4.7.7.8.4 1.4.9 2.1 1.5.5.4 1 .8 1.5 1.2.1.1.1.3.2.4.6.4 1.3.6 1.8 1 .3.2.9.9 1.4 1 .7.1 1-.6 1.6-.9.3-.2.6-.2.7-.3.2-.3.1-.7.5-.5.7-1.1.2-2-.4-2.7-.1-.1-.2 0-.3-.1 0 0 .1-.2 0-.2-.3-.2-.6-.1-.4-.4-.7-.3-1.2-.7-1.3-1.3-.7-.2-1.6-.7-1.7-1.4-.6.1-.6-.5-.8-.8-.1.3-.3 0-.5.1-.3-.7-1.5-1-1.6-2-.6-.2-1.1-.7-1.3-1.2-1.3-.4-1.7-1.8-2-2.9.1-.2.1.2.2-.1-.1 0-.2-.1-.4-.1-.1-.7-.2-1.4-.5-2 .2-.9-.7-1.2-1-1.8 0-.1.1-.1.2-.3-.7-.2-.9-.7-.9-1.4-.6-.2-.9-.6-.8-1.1-.6-.2-1.1-.8-1.3-1.4-.8-.3-1-.9-1.2-1.5-.2-.1-.4.1-.4-.1 0-.1.2-.3 0-.4-.6-.1-.7-.8-1.3-1-.3.2-.8.2-1.1.6.6.5 1.5.7 1.7 1.2zm.9-.9c.7 0 .7.6.8 1.1.2.1.2-.2.4 0 1.1 1.6 2.3 3.2 3.3 4.9.2.1.3 0 .4.1.7 1 1.2 2.1 1.1 3.6.6.3.2 1 .8 1.3-.1.2 0 .3 0 .5.6.3.5 1 1.3 1.2-.1.2 0 .3 0 .4.8.6 1.8 1.2 2.4 2.4.7.1.9.8 1.4 1 .4-.3.7-1 1.1-1.3.2-.1.2.1.4 0 .9-.9 1.8-1.7 2.4-3.1 1.1-.9 1.8-2.7 3-3.5.1-.3.3-.4.3-.7.1-.1.3-.1.4-.3.6-1.1 1.8-1.9 1.8-3.2.8-.9.9-2.5 2-2.8.1-.4.4-.4.3-.8.5-.4.7-1.5 1.4-1.5.4-1.2 1-1.7 1.6-2.4.1-.2-.1-.2.1-.5 1.1-1.1 1.4-2.9 2.5-3.9.4-.9.6-2.4 1.4-2.9.4-1.8.9-4.2 1.8-5.3-.1-.4.3-1.1.5-1.5-2-.6-4.2-1.4-6.8-1.9-1 .1-1.5-.2-2.5.1-.1-.1-.1-.1-.3-.2-.6.3-1.2.3-1.9.4-.3 1.1-.9 1.7-1.3 2.6-1 .3-1.6 1.5-2.3 2.2-.2.2-.4.2-.6.4-.3.3-.3.7-.6 1-.1.1-.4.1-.5.2s-.1.3-.2.3c-.5.4-1.5.7-2 .3-.1 0-.1.3-.3.2-.4-.1-.3-.3-.8-.3-.9.3-2.3-.1-3.2-.3-.3.3-.7.4-1.1.5-.2.3-.3.9-.7.8-.4.5-.6 1.1-1 1.7 0 .1-.2.1-.3.2-.1.2-.2.5-.3.8-.3.5-.7.8-.9 1.3-.2.4-.2.9-.5 1.4-.4.7-1 1.2-1.5 1.7-.2.2-.4.5-.6.8-.5.5-1.1.6-1.5.8-.7.3-1.4 1-2 1.4v.1c.6-.1.7.3.8.7zm29.9-33c-1-.3-1.4-1.2-2.1-1.6 0 0-.2.1-.3.1s-.3-.3-.4-.3c-.8-.3-1.5-.2-2.1-.5-.8.3-1.4.8-2.5.7-.7.6-2.1.1-2.6 1.3.3.6.2 1.3.2 2 .5.6.1 1.4.5 2.1-.2.6.5 1.5.1 2.2.2 0 .2.2.2.3-.2.6.2 1-.1 1.6.5.5.5 1.2.4 1.9.5 1 .3 2.4.4 3.5 2.9-.7 7 .1 9.6 1.2.7 0 1 .2 1.5.5.9.2 2.5.7 3 1.5.1-.3.4-.1.5-.1.5.1 1 .4 1.8.6.1.1.1.1.1.3.8 0 1.6.6 2.2.7.5.1 1.5.8 2.4 1v.2c.2.1.2-.3.4-.1.1.4.8.2 1.2.4.2.1.2.4.3.4 0 0 .2-.1.4-.1.7.1 1.6.9 2.6.9.1.1.2.3.4.3.3-.2 1.1.2 1.3.4.2 0 .3-.1.6 0 1 .4 2 .9 2.9 1.2s2.2.4 3.3 1c.1.1.3.3.4.4.1 0 .3-.1.4 0 .4.1.8.6 1.4.5.3.5 1 .3 1.5.4.9.2 2 .9 3.2 1 2.4.4 5.8 1.5 7.6 1.8.1.1.1.2.3.3 6.1 1.3 12.1 4.2 16.5 7.6.9.7 2.3 1.3 2.9 2.4 1.1.5 2.1 1.2 2.9 2 .1.1.2-.1.3-.1 1.6 1 3.1 2 4.9 2.7 1.2.5 2.5.3 3.6.8 1.6-.4 3.3 0 4.6-.9.1-.1.3 0 .5.1.2-.8 1-.6 1.2-1.4 0-.4-.5-.4-.3-.9-.1-.2-.2.1-.4 0-1.9-1.8-4.3-3-6.8-4.5 0-.2-.3-.2-.2-.4-.7 0-1-.6-1.7-1-.5-.3-1.2-.3-1-.7-1.9-.9-3.8-2.1-5.4-3.4-.2-.1-.3.1-.5-.1-.4-.4-1.2-.7-1.6-.9-.3-.2-.6-.6-.9-.7-1.8-1.1-4.2-2.5-5.8-3.8-.6-.1-1.5-.6-1.6-1.1-.2 0-.4 0-.6 0-1.1-1.2-3.3-1.5-4.3-2.6-.9.2-1.4-.9-2.7-.9-.4-.5-1.3-.7-2.1-.8-.6-.7-1.4-.3-2.4-1.1-.8-.1-1.7-.7-2.8-1-.1-.1.1-.3 0-.4 0 .2-.1.2-.3.2-3.5-1.2-8.7-2.7-12.4-4.6-.4.1-1.1-.2-1.4 0-.1-.1-.2-.2-.5-.3-.9.2-1.9-.1-2.7-.6-.8.2-1.8-.3-2.3-.8-.1.1-.2.1-.4.1-1.3-.5-2.4-.8-3.2-1.4-2.3-.5-4.3-1.7-6.3-2.7 0-.2-.1-.3-.1-.5-.9.1-1.2-.6-2.1-.7-1.2-1.5-3-2.2-3.9-3.9-.6-.1-1.4-.9-1.7-1.7zm-17 50.4c1.2.5 2.1 1.5 3.2 2.4.5-.3 1-.5 1.3-1-.4-.8-1.5-1.2-1.9-2-.8-.1-1-.7-1.5-1.1-.3.6-1.4 1-1.1 1.7zm1.7-2.3c.2.3.4.6.6.9 1.3.4 2 1.6 3 2.4.2-.4.6-.3.8-.7-1.3-1.2-2.4-2.2-3.7-3.3-.1.3-.4.4-.7.7zm4.9 2.2c.4-.4 1.1-.4 1.4-1.2-1.5-1.3-3-2.3-4.2-3.7-.3.4-.5 1-.8 1.3 1.3 1.3 2.5 2.1 3.6 3.6zm-1.7-4.7c.9.4 1.3 1.1 1.8 1.7.6.1 1.3.9 2 1.2.3-.1.6-.5.9-.8-1.3-1.6-3-2.4-4.8-3.9-.1.3-.3.6-.6.9.3.4.7.5.7.9zm.6-2.4c.7.7 1 1.4 2 1.8.2.1.1.3.3.5.7.1 1 1.3 2.2 1.5 0 .1-.1.2-.1.3 1-.1 1.6-.9 2.2-1.7-.6-.5-1.4-.9-1.6-1.6-1.3-.5-2.3-1.8-3.6-2.6-.4.9-.9.9-1.4 1.8zm2.1-2.5c2 1.7 3.3 2.9 5.3 4.4.7-.8 1.5-1.3 2-2.3-.6-.4-1.1-1.1-1.9-1.2-.5-.8-1.9-1.1-2.2-1.9-.7.1-1.2-.7-1.8-1-.4.5-.9 1.2-1.4 2zm4.2-.8c.1-.1.2-.2.4-.1 1.2.8 2.4 1.6 3.5 2.4 1.3-1.7 3.2-3.4 3.5-5.8-1-.8-2.5-1.6-3.3-2.5-.1.2-.6-.1-.5-.3-.4 0-.9-.4-1-.7-.4-.1-.9-.4-1.1-.7-.4.5-.7 1.2-1.3 1.3-.6 1.5-1.9 2.6-2.4 4.5.7.6 1.8.9 2.2 1.9zm2.1-7.7c.3 0 .8 0 .9.4 1.7.7 2.8 2 4.5 2.8.1.2-.1.4.3.5.5-.5.5-1.3 1-1.8-1-1.1-2.6-1.4-3.2-2.8-.5 0-1-.4-1.3-.7-.1.1-.2.1-.3.1-.2-.4-.5-.5-1.1-.7-.4.7-1 1-1.2 1.9.2 0 .4.1.4.3zm1.4-3.2c2.1 1.3 3.9 2.8 5.8 4.2 0-.8.6-1.7.6-2.4-.9-.4-2.1-1.4-3-1.6-.7-.7-1.8-1.8-2.8-1.9-.1.8-.9 1-.6 1.7zm.8-2.5c.2.2.4-.3.7-.1.4.5.7.6 1.5 1 0 .1-.1.1-.1.2.5.2 1.3.3 1.2 1 1 0 1.7.8 2.7 1.4.5-.4.1-.9.6-1.4-.9-.8-2.1-1.4-2.1-2.5 1 .3 1.4.8 2.4 1.3.4-.8.1-1.3.1-1.9-.8 0-1.2-.7-1.9-.9-.2-.6-3.8-1.7-1.7-2.2.6.5 1.5.9 2.1 1.5.9.2 1.1 1.2 1.6 1 0-.3-.1-1.1.2-1.6-1.4-1.2-2.8-1.9-4.3-2.6-.3 1.3-.9 2-1.3 3.5 1 .5 1.5.8 2.3 1.6-.8.8-1.8-.7-2.7-.8-.3.3-.6.6-.8 1.3-.2 0-.6 0-.5.2zm5.1-7.8c1 0 1.8 1.1 2.8 1.3-.2-.6.1-1.4.4-1.9-.2-.1 0-.4-.1-.6-1.2-.4-1.8-.8-3.2-1.4-.1.6-.4.7-.5 1.3-.3.1-.6 0-.8.3.6-.1 1.1.4 1.4 1zm.5 2.2c0 .1.1.2 0 .4.7 0 1.3.3 1.6.9.5-.1.4-1 .3-1.4-1.4-.8-2.6-1.5-3.8-2.4-.2.4-.4.8-.4 1.2.5.3 1.3.8 2.3 1.3z"/><path d="m103.5 120.8v.5c-.6.8-1.4 1.6-2 2.5-.4.3-1 .4-.8 1-1.7 1.4-3.1 3.2-4.8 4.5-.9-.1-1.3 1.8-2.3 1.1.2-.4.4-.7.8-.8.1 0 0-.3.2-.3 1.3-.9 2.5-1.8 3.5-2.9h.3c1.1-1.4 2.3-2.6 3.5-3.9 0-.1 0-.3 0-.4.5-.1.4-.8 1-.8 0-.3.2-.6.5-.7-.1-1.4.9-2.2 1.5-3.2.2.1.4.1.5.1 0 1.2-1.2 1.8-1.4 3.2-.3.2-.3.1-.5.1z"/><path d="m102.5 125.2c-.1 0-.1-.1-.2-.1-.4.6-1 1-1.5 1.5-.2-1.5 1.7-2.1 2.2-3.5 1.3.3-.4 1.5-.5 2.1z"/><path d="m99.8 128.3c-.5.2-.5.9-1.1 1-.6 1.4-2.1 2.1-3.1 3.1-.3-.1-.2-.1-.5 0 0-.6.4-1.2.8-1.6.8-.8 2.1-1.3 2.6-2.4.1 0 .2-.1.3-.1.1-.3.3-.6.6-.7.4 0 .5.3.4.7z"/><path d="m92.7 133.6c.4-.1.4-.7 1.1-.5.3.8-.9 1.3-1.1.5z"/><path d="m93.3 131.1c-.2.3-.5.9-.9.8-2.6 2.6-6.1 3.9-8.6 6.5-.2 0-.2-.1-.3-.1-1 1.6-2.8 2.3-3.7 3.8-.2.1-.3.2-.5.3 0 .6-.6.7-.8 1.2.8.1 1.5-.9 2-1.1.1 0 .3.1.2.1.3-.1.4-.5.6-.7.4-.3 1-.5 1.5-.8.4-.3.6-.5 1.1-.7 1-1.1 2.5-1.9 3.8-2.9.7-.5 1.7-1.6 2.3-1.4.1-.6.7-.7.9-1.2.2 0 .2.1.3.1.5-.5 1.3-.8 1.7-.9.1.9-1.4 1.1-1.7 1.7-.2 0-.3 0-.4-.1-.1.1-.1.4-.1.5-.3.1-.3.1-.5.1 0 .3.1.2 0 .5-.8.2-1.1.9-1.8 1-.1.8-.9.9-1.3 1.4-.9.4-1.6 1.1-2.4 1.6-.1.1-.4.2-.4.5-.8.3-1.6.8-2.4 1.4-.7.4-1.5 1.1-2.3 1.5-.3.1-.6.2-.8.3-.3.2-.5.6-.8.7-.1.1-.2-.1-.2-.1-.4.3-.5.8-1.2.4 0-.6.4-.8.7-1.2 0-.2-.1-.2-.1-.4.8-1.6 2.1-2.7 3.2-4.1.1-.1.2-.1.3-.1 1-1.2 2.4-1.9 3.3-3 .1.1.2.1.3.1.1-.2.1-.4.2-.5.7-.2 1.3-.9 2-1 .2-.5.7-1.1 1.4-.9.9-.8 1.9-1.6 3.1-2 .3-.9 1.4-1.1 2.2-1.5-.1.2 0 .2.1.2z"/><path d="m77.3 178.4c-.3-.1-.4-.4-.8-.4-.1-.9-1.1-1.6-1.4-2.6-.2-.2-.7-.5-.5-.8-.1-.1-.4-.1-.4-.4.2-.2.4-.2.8-.1.3.9 1.1 1.1 1.3 2.1 0 .1.2.1.3.1 0 .8 1.1 1.3.7 2.1z"/><path d="m77.3 140.4c-.3.6-.6 1.1-1 1.6-.3 0-.5-.3-.7-.5.2-.8 1.1-1.4 1.7-1.1z"/><path d="m68.1 123.2c-.1.7-1 .9-1.7.8-.2-.9 1.1-1.1 1.7-.8z"/><path d="m46.7 196.6c.4 0 .6.2.8.3.3 1.4-2 .4-.8-.3z"/><path d="m46 198.8c-.2-.4.3-.5.5-.7.9.3.1 1-.5.7z"/><path d="m46.3 197.9c-.5.1-.9 0-1.3-.2 0-.3.1-.3 0-.5.6-.4 1.6 0 1.3.7z"/><path d="m93.1 185.1c-.4-1.2-1.1-2.1-1.8-2.9 0-.3.3-.3.5-.5 1.1.6 1.4 2 2 3 .2 0 .4-.3.6-.1.1-.3-.5-.6-.5-1.1-.8-.5-1.2-1.4-1.4-2.3-.2-.3-.7-.6-.6-1-1.2-1.4-1.4-3.3-2.5-4.8.1-.2-.2-.4 0-.5-.6-.5-1-1.5-1.1-2.3-1.4-2.7-2.8-5.4-4.2-8.1 0-.1-.3 0-.3-.1-.8-1.6-1.2-3.4-2-5-.7-1.3-1.5-2.6-2.3-4 .1-.5-.2-.7-.4-.9 0-.2-.1-.3-.1-.6-.5-.8-.6-1.4-.8-2.3-.7-.9-.9-2.4-1.7-3.2-.8.3-1 1.3-2 1.4.2.2.5.4.7.6.3.8.5 1.8 1 2.4 1 3.5 2.8 6.2 4 9.4 1.5 1.5 2.1 3.9 3.2 5.6 0 .7.3 1.1.7 1.4.6 1.4 1.4 2.4 2 3.7.3.2.2.6.6.7.7 2 2.4 3.2 2.9 5.4-.1 0-.1 0-.2.1-.8-.1-1-1.5-1.7-2-.6-1.7-1.8-2.8-2.6-4.2-.1-.2-.1-.5-.2-.8-.2-.4-.6-.6-.8-1-.4-.7-.5-1.6-1.2-2.1-.1-.5-.7-1.6-.9-2.2-.5-1.4-1.6-3-2.6-4.1.2-.6-.7-1-.5-1.7-2.1-3.2-3.1-6.9-4.8-10.4-.1-.3.2-.2.2-.5-.6.4-1 1-1.5 1.4.5 1.6 1.2 3 1.6 4.8.1.2.3.3.5.4.1.8.4 1.5.9 1.9.2 1 .7 1.8 1.4 2.3 0 .1-.1.1-.1.2.1.2.3.2.5.3 0 .7.6.8.7 1.4.6.5 1.1 1 1.3 2 1.3 1.4 1.9 3.4 2.6 5.3.7 0 .5.9 1.1.9.2 1.1 1.1 1.4 1.3 2.6.2.2.4.4.6.6 0 .3.1.6.2.8.3.1.3.6.7.7.8 1.8 1.7 3.6 3 4.9.5 1.1 1.5 1.7 2.1 2.8.3.5.3 1.1.7 1.4.5.3.8.1 1.2.3 0 .4-.5.4-.5.8-.8.2-1.5 1.2-2.2.9-.1 0 0 .2-.2.2-1.3.2-2 .1-3.1.7-.5.6-1.3.7-1.9 1-.3.2-1 .7-1.5.8-1.2.4-2.5.1-4.1.2-.9.1-1.9.6-2.8.4-1 .7-2.8.3-4 .2-1.2-.2-2.9-.1-3.8-.4-.3-.1-.7-.2-1.2-.5-.9.3-1.7.5-2.6.5-1.1-.1-2.1.3-3.3-.2-.4-.2-.7-.6-1.1-.8-.3-.1-.6 0-.8-.1-.5-.2-.8-.7-1.2-.9-.7-.3-1.5 0-2-.6-1.5-.2-3.2-.1-4.5-1.1-.1-.2 0-.2 0-.5-.6.3-1.3-.7-1.7-.2-.6-.2-1.2-.6-1.6-1.1-1.2.3-2.1-.3-3.3-.3-1.5-1.1-2.8-2.4-3.5-4.3-1.6 0-1.9-2.1-2.5-3.1-1.9-.4-2.2-2.3-2.6-4.2-.2-.4-.6-.4-.8-.6-1.2-1.1-.9-3.3-1.9-4.7-.9-.4-.4-1.8-.8-2.6-.1-.1-.2-.2-.5-.2.1-.5-.3-.8-.4-1.2 0-.8.6-1.6.5-2.3-.1-.6-.8-1.1-1-1.9.3-.6.2-1.1.7-1.4-.3-.5 0-.8-.1-1.3-.2-1.3-1.6-2.3-.9-3.5 0-1.3.6-2.3.3-3.8-.2-.8-.4-2-.2-2.8-.2-.3-.3-.9-.2-1.3-.3-.1-.1.2-.4.1.4-1.4-.9-2.9.5-4.1-.1-.2.1-.6-.2-.5.1-1.6-.1-3.1.5-4.5-.2-.4-.1-1.2-.5-1.4.3-1.4 1-2.7 1.1-4-.4-.7 0-1.2-.1-1.8.7-.3.9-1 1.4-1.4-.3-1.2 0-2.4.4-3.5.7-.8 1.7-1.2 1.6-2.8-.1-.2.2-.2.2-.3-.3-.3-.2-1.2.4-1.2 0-.2 0-.4 0-.6 1.1-.6 1.7-1.7 2.8-2.3-.1-.4 0-.5-.1-.8.7-1.2 1.7-2.5 3.2-2.6.2-.4.6-.6.8-1.1-.4-.2-.8-.4-1.1-.7-1.2.2-2.3-.6-3.3-1.1-2.1.6-4.1.2-6 1.3-.2 0-.4 0-.5-.1-.7.8-1.8 1.2-3.2 1.6-.2.1-.3.3-.5.5-.6 0-.9.6-1.3.5-.1.3-.3.5-.5.7-.8 0-1.1 1-1.9 1-.3.4-.9.7-1.3.7-.5.4-1.2.9-1.8 1.3-.1 0-.1.2-.2.2s-.3-.1-.4 0c-.6.4-1.1 1.3-1.8 1.9-.2.2-.5.3-.8.5-.8.8-1.2 2-1.7 3-.1.1-.2.2-.4.2 0 .2-.2.3-.2.6-.2 0-.2.1-.3.1-.5 1.2-1 2.3-2 3 0 .6-.2 1-.6 1.2-.2 1.1-.6 1.9-1.1 3-.2.4-.2.6-.4 1.1-.2.6-.8.9-.7 1.9-1.3.9-.9 3.1-2 4.2 0 .7-.2 1.1-.7 1.4 0 1.4-1.2 2-1.1 3.4-.3 0-.3.3-.5.5-.1 1.6-1.3 2.5-1.6 4-.1.4.1.8.1 1.2-.1.5-.5 1.1-.5 1.7 0 .1.1.3.1.4 0 .2-.2.3-.2.5-.2.8.1 1.8-.1 2.6 0 .1-.2.2-.2.3-.3.9-.2 1.9-.7 2.6 0 1.7.3 4.3-.1 6 .1.1.2.3.3.5-.4 2.5 1 4 1.1 6.1.1.2.2-.1.3.1.2 4.6 2.8 7.3 4.3 10.8.7.8 1.2 1.7 1.9 2.6h.4c.8.6 1.5 1.2 1.9 2.1 1.2.5 2.6 1.4 3.5 2.5.6.5 1.5.6 1.8 1.4 1.2.5 1.7 1.5 3 1.8h.8c.8.1 1.5.5 2.4.8.4.1 1 .3 1.5.5s1.3.7 1.8 1c.8.4 1.8.4 2.7.8.5.2.9.5 1.4.6.2 0 .4-.1.6-.1.8.1 1 .2 1.8 0 .2 0 .4-.1.6-.1.3 0 .5.3.8.3.2 0 .5-.1.8-.1.6.1 1.2.5 1.9.6 1.5.3 2.9.8 4.4.6.2 0 .1-.2.2-.2.8 0 2.1-.3 2.3.7-.5.1-.8.2-1.1-.1-.3.3-.9.2-1.1.6-.6 0-1-.1-1.5.1-1-.2-2.5-.4-3.5-.5-.2 0-.4-.3-.6-.1-.2-.5-.8-.1-1.1-.5-1.9-.2-3.7.2-5.7-.3-.1-.1-.3-.2-.3-.4-2.7-.5-4.5-1.6-7.1-2.4-.3-.1-1-.6-1.3-.7-.1 0-.1.1-.2.1s-.2-.2-.3-.2c-.5-.1-1.2-.1-1.6-.2-1.1-.4-2-1.6-2.9-2.4-.2.1-.2 0-.5 0-.4-.5-1.1-.7-1.4-1.3-.7-.5-1.8-1-2.2-1.7-1.5-.6-1.5-2.2-3.2-2.6-.7-.9-1.3-2-2-3-.1-.2.1-.2.2-.4-.1-.2-.3.1-.4-.1-1.2-2.8-3.4-4.6-3.7-8.1-.2-.1-.2-.3-.3-.5.1-.4 0-.9-.1-1.3-.1-.3.3-.1.2-.4-.7-.9-1.2-2.3-1.3-3.6-.4-.3-.1-.7-.4-1 0-2.3-.2-4.8-.2-6.5-.5-.9.4-2.4.6-3.8.2-1 .3-1.8.4-2.8 0-.3-.1-.6-.1-.9.1-.6.4-1.2.5-1.9.2-1.1-.1-2.2.5-3.2.1 0 .1-.2.3-.2.1-.9.8-1.9 1.1-2.9.1-.1.3-.1.4-.3s-.1-.2-.1-.5c1-2.6 2.4-4.9 2.9-7.6.4-.4.5-.9.9-1.3.4-1.6 1-3 1.8-4.2.1-.2-.2-.1-.2-.3 1-1.7 1.7-3.6 3-4.9.1-1 1.2-1.8 1.1-2.9.7-.3 1-1.1 1.4-1.7 1.6-1.5 3.2-2.5 4.8-3.9 1.2 0 2.3-1.4 3.7-1.5.1-.2.2-.4.2-.6h.4c.1-.3-.1-.3 0-.5.4-.2.7-.2 1.1-.3 1-1.2 2.6-.8 3.5-2 1.1 0 1.4-.9 2.4-.6.1 0 .1-.1.1-.2.7-.3 1.2 0 1.8 0 .1 0 .2-.2.4-.2.3 0 .8 0 1.4-.1.1 0 .3-.2.5-.2.6 0 .9.3 1.4.5.3.1.6.1.8.1.4.2.5.6.9.6.2 0 .5-.1.8-.1.4.2.7.5 1.1.7.6 0 1 .1 1.2.3 1.4-.6 3.3.1 4.2.8.1-.3.4 0 .7-.1 1.4.8 3.1 1.3 4.4 2.2.1-.1.2-.2.5-.1.9.4 2 .4 2.6 1.4.4-.2.6.3 1.1.2.1.1.2.2.2.4.9 0 1.4.4 2 .7 1.1-.3 1.8.7 2.7 1 .2.1.4 0 .5.1.9.4 1.6 1.4 2.3 2 .2.1.4.1.5.2.2.2.3.5.5.7s.6.4.8.6c.6.6 1.1 1.2 1.9 1.6.1.3.3.6 0 .8-2.9-1.6-4.3-4.7-7.7-5.8.6.7.8 2.1 1.7 2.3-.1 1.1.9 1.3.8 2-1-.1-2.3.1-3.1 0-.1 0-.1.2-.2.2-1.8 0-3 1.1-4.6 1.4-.4.4-.8.7-1.4.8-.4.5-1.2.6-2 1-.1 0-.1.1-.1.2-.1 0-.2-.1-.3-.1-.1.1-.1.2-.2.3-.3-.1-.3 0-.6.1-1.2 1.1-2.9 1.7-4 2.9-.1 0-.2 0-.3 0-.9 1-1.9 1.9-2.7 2.9-.1.1-.2.1-.4.1.1.2-.1.3-.1.5-.1 0-.1-.1-.2-.2-1.4 2-3.4 3.6-4.5 6-.2 0-.3.1-.5.1 0 .2-.1.4-.2.6-1.1.5-1.1 2.1-2.1 2.6-.3 1-.8 1.9-1.6 2.6.1.9-.8.9-.8 1.7-.5.8-1.3 1.4-1.4 2.5-.1.6.2 1.2.2 1.9 0 1.2-1.2 2.5-.5 3.5.3 0 .1-.4.1-.5.4-.9.7-2.1 1.4-2.9-.1-.6.4-.6.4-1.1 1.3-1.3 2.2-3.1 2.9-4.9.2-.1.2-.4.5-.4 1.1-2.4 2.5-4.4 4.4-6.1.1-.9.7-1.2 1-2 1.8-1.5 3-3.6 5.1-5 .5-.5.9-1 1.5-1.4.1-.3.3-.5.5-.8.1-.1.2-.1.3-.1 1.5-1.8 4.3-2.3 6.6-3.4.2-.2.6-.6.8-.5.3-.4.8-.6 1.4-.7 1.1-.8 2.5-.8 3.5-1.6.9 0 2.3-.7 3.2.2v.6c-.4.2-.5-.3-.8-.4-1.1.1-1.9 0-2.5.6-.4-.2-.9.1-1.1.5-.7-.1-.9.5-1.6.3-.5.6-1.4.7-2.1 1.1-.5.3-.9.7-1.4 1-1 .5-2.2.7-3.2 1.1-1.8.9-2.8 2.5-4.4 3.5-.5.8-1.4 1.2-1.8 2-1 .4-1.6 1.3-2 2.2-.7.1-.7.9-1.3 1.1-.3 1-1 1.6-1.3 2.6-.3 0-.3.5-.6.2-1.7 1.7-2.7 4.4-4.1 6.1-.3 1.2-.7 2.3-1.7 2.9-.2.9-1.1 1.3-1.2 2.3-.1 0-.1.3-.3.2-.1.9-.4 1.7-.9 2.2.2.9-.5 1.5-.7 2.3 0 .2.4.2.5.4.7 1.7-.9 3.1-.2 4.1.4-.8.7-1.6 1.2-2.3 0-.2.1-.1.2-.2.1-.8.4-1.8.8-2.4.1-.1.3-.2.4-.4 0-.1-.1-.3 0-.5 0-.1.2 0 .2-.2.1-.4.1-.9.6-1.2 0-1.3.9-2.3 1.2-3.5.1 0 .1.1.2.1-.3-.9 1.1-1.7.7-2.7.2 0 .1.3.3.2.5-.9 1.3-1.7 1.7-2.8.4-.1.6-.5.5-.9.5-.2.7-.6.7-1.1.5.1.3-.8.8-.9 0-.2 0-.4 0-.5.9-1.4 1.9-2.8 2.8-4.2.1-.1.2-.1.3 0 0-.5.6-.5.6-1 .1-.1.2-.1.4-.1.8-1.4 2.2-2.2 2.9-3.6.4-.1.5-.5 1-.6.1 0 .1-.2.1-.3 1.2-.8 2.2-2.2 3.8-2.3 1-.8 2.6-1.1 3.6-2 .2 0 .1.1.2.2 1.1-.9 2.7-1.2 3.9-2 .6.4 1.6-.7 2.2-.3.3-.4.5-.2 1.1-.2 0 .2-.1.4-.2.6-.9-.2-1.9.9-2.6.6-.5.2-.9.5-1.5.5-.1 0-.1.2-.1.3-.6.1-1.1.6-1.7.5-1.6 1.2-3.4 1.6-4.8 2.7-.2 0-.3 0-.5 0-3 1.6-5.3 3.9-7.2 6.6-.2 0-.3.2-.5.1-.1.2-.1.1 0 .4-1.7 1.1-2.1 3.5-3.6 4.8 0 .5-.2.8-.5 1.1-.4 1.7-1.7 2.6-2.2 4.2-1.5 1.2-1.7 3.6-2.9 5 0 .2.1.2.1.4-.4.3-.6 1-.6 1.4-.7 2-1.7 3.8-2.5 5.9-.2 0-.2.4-.5.4 0 .6-.2.8-.4 1.4 0 .3.2.3.2.6-.6 1-.4 2.4.2 3.1 0-.6.4-1.2.4-2 .6-2.3 1-4.2 2.3-5.8.5-2.5 1.5-4.1 2.4-6.3.1 0 .1-.2.4-.1 0-.4.2-.6.2-1 1.4-1.7 2-4.1 3.8-5.5 0-.1-.1-.2-.1-.3.2.1.2-.1.4-.1.3-1 1.1-1.6 1.1-2.9.6-.2.7-.9 1.4-1.1.9-1.3 2-2.3 3.2-3.2 0-.1 0-.2 0-.3.9-.5 1.5-1.3 2.5-1.7.3-.5.8-.8 1.1-1.3h.4c1.3-2.2 3.9-3.1 6-4.5.3-.1.3.3.5.1.8-.1 1.1-.8 2-.8.8-.9 2.1-1.1 2.9-1.9 2.3-.1 4.5-1.7 6.9-1.1.6-.2 1.2-.1 1.7-.6-.2-1-1-1.3-1.4-2.1-1.3-.5-1.4-2.1-2.9-2.4-.1-.4-.4-.4-.5-.8-1.2-.3-1.6-1.3-2.8-1.6 0-.4-.5-.2-.5-.6-.9-.1-2.4-.2-2.8-1.1-.2 0-.3 0-.5 0-1.5-1.3-3.6-1.9-5.7-2.3-1.4-1.1-3.5-1.5-5-2.3-.9-.1-1.6-.3-2.2-.7-.8-.1-2.5.4-3.3-.6-.5.3-1 .1-1.5-.2-.1.1-.3.2-.5.2-.4-.1-.8-.3-1.1-.5-1.1.1-2.5-.5-3.4-1.1-2.2.1-5.2-.8-6.6 1-.6-.1-1 .4-1.6.5-.2.2-.2-.2-.5-.2-.3 1-1.7 1-2.5 1.6-.2 0-.4 0-.5-.1-.3.2-.6.6-1.1.5-.2.2-.4.3-.5.6-1.5.2-2 1.5-3.2 1.8-.1.1-.1.4-.2.5-.9-.2-1.3.4-1.8.8-.1 0-.2 0-.3 0-1.6 1.2-3.4 2.2-4.3 4.1-.6.2-.7.9-1.1 1.3 0 .2.1.2.1.4-.7.4-1.1 1.2-1.4 2-.1.1-.2.1-.3 0-.3.8-.8 1.3-1 2.2-.5.4-1 .8-1.3 1.5-.2.1-.2-.1-.5-.1.1 1-.2 1.8-1 2-.3 1.1-.6 2.2-1.1 3.1-.8 1.4-1.3 2.7-2 4.1 0 .3-.1.4 0 .7-.6 1.6-1.7 2.7-2.1 4.5-.1.2-.3.3-.5.4 0 1-.7 1.6-.6 2.4.1.6 0 1.3-.2 2.1-1.1.8-.8 3.1-1.9 4 .1.5-.1.7-.3.9 0 .1 0 .3.1.4-.5 1.2-.6 2.3-.6 3.8 0 .6.2 1.3.2 1.7-.1.7-.7 1.2-.7 1.9.3 1.1.2 2.1.4 3.6.1 1.2.1 2.4.3 3.5.1.5.4 1 .4 1.7 0 .2-.1.5-.1.7 0 .4.3.7.4 1.1.1.5 0 .9.2 1.3.1.5.5.7.6 1.4.1.1.3.1.4.3.6 1.3.4 3.2 1.3 4.4-.1 1.1.9 1.2 1.4 1.8 0 .2.1.2.1.4.5.5 1.1.9 1.2 1.8.5.7 1 1.5 1.1 2.6.2.4.6.6.7 1.1.8.9 1.6 1.6 2.4 2.5.6.2.9.6 1.1 1.1.2 0 .4.1.6.2.6.7 1.7 1.2 2.4 1.6.5.7 1.1 1.2 2 1.6.1.3.4.4.5.8 2.6 1.1 5.2 2.1 7.8 3.2.5.4 1.1.6 1.4 1.2.7.4 1.3.4 1.7.9.6 0 1.2-.2 1.4.4.7-.1 1.6-.2 2 .1.6-.4 1.7 0 2.6.1 0 .3.2.3.3.5 1.2.1 2.2.5 3.4.8 2.5-.3 5.3.5 7.4.2.1.4-.2.3-.2.7-.4.1-.6.2-.9 0-.8.4-2.1 0-3.4-.1-.6-.1-1.1-.2-1.5-.4-.2.1-.4.2-.7.3-.5-.5-2.1.1-2.8-.7-1.6 0-2.9-1.2-4.6-.9-.2 0-.3.1-.5.2-1.3-.4-3.1-.3-4.1-1.2-.2 0-.2.1-.4.1-.2-.2-.4-.4-.8-.4-1.3-1.7-3.8-2.1-5.8-3 0-.1-.2-.1-.2-.4-.1 0-.3.3-.3.1-1.4-.5-2.8-1-3.8-2 0-.1 0-.2 0-.3-.2-.1-.3-.2-.5-.1-3-2.7-6.4-4.4-8.3-8.4 0-.8-.5-1.2-.6-2-.8-1.4-2.2-2.2-2.7-3.8-.3-.3-.5-.7-.8-1.1-.3-2.1-.7-3.6-1.7-5 0-.1 0-.3 0-.5-.7-.9-.7-2.5-.5-3.9 0-.2-.2-.2-.3-.4.2-1.5-.1-2.2-.1-3.5 0-.1-.2 0-.2-.2.1-1-.5-2-.5-2.9 0-.2.2-.3.2-.5 0-.5-.2-.9-.2-1.4.1-.8 1.2-1.5.5-2.3.2-1.2-.3-3.5.8-4.4-.2-1.6 1.1-2.4.9-3.9.6-.7.9-1.6 1.4-2.4-.5-1.2-.3-2.7.7-3.5-.2-.8.5-1.3.5-2.1.3-.1.3-.5.6-.5.2-1.1 1-1.5 1.1-2.7.5 0 .3-.8.8-.9.2-1.8 1.1-3.5 2-4.8-.1-1.5.6-2.2 1.4-2.9.2-.8.6-1.4.9-2.1.8-.2.8-1 1.4-1.4 0-.8.6-1 1-1.4.8-1.8 1.9-3.2 2.8-4.9.3 0 .4-.3.5-.5.7-.6 1.6-.9 2-1.7.8-.5 1.7-.9 2.3-1.4 1.8-.3 3-2 4.4-2.6.2.1.3-.1.5.1.7-.5 1.7-1.4 2.7-1.3 1.1-1.1 3.6-1.1 4.5-2.6 2-.4 3.7-.6 5.4.1.5-.3.8.1 1.5 0 .6.7 1.4.3 2 .9.5-.2 1.2-.1 1.6.5 1.4-.4 2.7.3 4.4.2.1.1.1.2.1.3 2 .1 4-1.2 5.8-2 1.4 0 2.8-.8 4.3-.8 1 0 2.6.3 4.1.5 1.3-.6 3-1.3 4.5-1.2.7 0 1.5.5 2.1-.1.3.5.8.2 1.4.4.4.1.8.6 1.2.6.7 0 1.6-.8 2.5-.8.4 0 .7.2 1.2.2.3-.2.7-.4 1.1-.5v.4c1.1-.2 1.8.5 2.7.7 1.9.3 3.8-.6 5.6.1.7.3 1.2.8 2 1.1.7-.1 1.7.3 2.3 0 .9.4 2.5.4 3.4 1.4.2.2.2.7.5.8.5-.1 1-.3 1.3.1.2.1.5-.1.7-.1.7 0 1.6.6 2.4.6.5 0 .9-.2 1.3-.2 0 0 .1.3.2.3.4.2.8 0 1.1.5.7-.2 1.4.6 2 .1.4.1.7.4 1 .7.5-.3 1 .2 1.4-.2.7.2 1.6 2 1.7 3.2 0 .2-.1.4-.1.5.1.7.8 1.1.6 2 .2.2.6.2.8.5 0 .5.6.8.8 1.3.1.5-.1 1.3.2 1.9.2.7.9 1.2 1.1 1.8.4 1.5 0 3.1 1.2 4-.1.7.3.8.1 1.4.1.7.8 1.1.9 1.9.1.6-.2 1.2-.2 1.8 0 .9.3 1.5.7 2.3 0 1.4.5 2.9.5 4.1 0 .8-.4 1.6-.3 2.4.1.9.4 1.5.5 2.5 0 .7-.2 1.4-.2 2.1 0 1 .4 1.7.3 2.9 0 .2.1.2.1.3 0 1-.8 1.8-.8 2.9 0 .4.1.9.1 1.3.1 1.6-.3 3.3-.3 5.1-.2.5-.7.7-.8 1.1-.3.9.2 1.9 0 2.7-.1.4-.4.6-.5 1-.2.8-.4 1.6-.3 2.3 0 .4.3.8.3 1.3 0 .4-.3 1.2-.6 1.6-.5.8-1.1 1.5-1.4 2.2-.2.4-.1.7-.6.8-.1.3.1.3.1.5-.5.4-.6 1.2-1 1.7.2.3 0 .6-.2.8-.1.7 0 1.9-.5 2.3-.7.7-1.8 1.1-2 2.4.1.3-.1.4.1.7-.2.3-.8.4-.9-.1-.7.5-1.4 1.5-2.1 2.2-.4.4-.5.5-1 .9s-1 1.2-2 .7c-.3.7-1.1 1-1.8 1.6-.5.4-.8.4-1.7.7-.7.2-1 .7-1.7.2-.1-.2 0-.2 0-.5.7-.7.7-.6.5-.6zm19.3-37.4c-.2-.6-.7-1.5-.3-2.2 0-.1-.2-.1-.2-.2.2-3.3-2-5.7-3.7-8.1-1.3-.6-2.3-1.7-3.1-2.9-.4 0-.4-.3-.8-.3-.1-.4-.7-.4-.8-.8-.2-.1-.2.1-.4.1-.5-1.3-2.3-1.4-3.4-2.1-.3.6-.9.9-1.3 1.5.9.7 2 1.1 2.8 1.8.9.4 1.7.9 2.5 1.7.2.2.4.7.7.9.5.4 1 .4 1.4.9.3.4.4.6.8.9.1.1.1.2.1.4.8.1.9.9 1.1 1.6.8.3 1.3.9 1.6 1.7.2 0 .2-.1.4 0 .7.5.4 1.5.7 2.3.1.3.4.5.5.8s0 .7.2.9c-.1.3 0 .4-.1.7.6.9.2 2.5.8 3.3.1-1 .4-1.7.5-2.9zm-.4-10.7c0-.4 0-.8 0-1.1-.1-.7-.5-1-.8-1.6-.5-1-.4-1.8-.9-2.6-.6-.3-.8-.8-1.2-1.3-.7-.4-1.6-.7-2-1.4-.7-.3-1.4-.6-2-1-.2.3-.5-.2-.8-.2-.4.5-1.2-.1-1.7-.1-.4.4-.5 1.1-1 1.4.3.1.3-.1.6-.1 1.5.6 3.1 1.7 4.9 2.3.1.2.2.3.3.5.3-.1.3.1.5.1.8.8 1.6 1.7 2.1 2.9.1.2 0 .4-.1.6.6.1.9.9 1.5 1.2.2.4.2 1 .6 1.2.2-.3.3-.8 0-.8zm-1.2-.3c-1-.2-1-1.3-1.4-2-.3-.5-1-.8-1-1.4-.7-.5-1.6-.8-2.1-1.6-2.1-.5-3.1-1.9-5.2-2.2 0 .5-.4.6-.5.9 1.3.6 2.6 1.3 3.3 2.4 2.3.7 2.8 3 4.9 3.8.6.9 1.2 1.6 1.9 2.4-.2.7.7 1.1 1.1 1.7.3-1.7-.8-2.5-1-4zm.6-6.7c-.4 0 .2.5-.2.7-.6.1-.5-.5-.7-.9.2.1.5.1.7.1-.2-.6-.6-1-.8-1.5 0 .2-.1.3-.3.3-1.3-1-2.7-1.8-4.1-2.6-.5.3-1.3 0-1.7.3-.3 0-.3-.4-.6-.5-.1.5-.6.7-.8 1.1 2.4-.2 4.1 1.2 5.6 2.3.7 0 1.6.6 1.4 1.7.8 0 .9.7 1.2 1.1.1-.6.5-1.5.3-2.1zm-.2 26.5c.1-.6.2-1.2.1-1.7-.1-1-.3-1.9-.5-2.8.4-.6 0-1.1-.1-1.4-.2-.7-.3-1.8-.3-2.4 0-1.2-.4-1.8-.7-2.8-.1-.2 0-.5 0-.7-.1-.6-.6-1-.4-1.6-1-1.1-2.3-1.9-2.9-3.5-.6-.1-.7-.6-1.1-1.1-.4-.4-1-.6-1.4-.9s-.7-.9-1.1-1.3c-.2-.2-.6-.1-.6-.5-1.6-.8-3.2-1.7-4.7-2.5-.4.2-.8.5-1.1.9 2.1 1.6 4.3 3.2 6.6 4.6 0 .2.3.1.2.5.6 0 .7.5 1.3.3.9 1.1 2.1 1.9 2.2 3.7.6.9 1.1 1.9 1.5 2.9.1 1.5.2 3 .9 3.8.1.2.1.4 0 .6.5.8.5 2 .5 2.9.5 1 .7 2.4.6 3.7.3.3-.1.9.4 1.1.7-.4.5-1 .6-1.8zm-.9-29.6c-.6-.2-.7-.9-.8-1.7-1.1-.4-2.1-.6-3.1-1.1-.5.3-.9.6-1.4.5-.2.2-.4.4-.5.8 1.7-.5 3 .5 3.9 1.4 0-.1.2-.1.3-.1.3.8 1.4.8 1.8 1.5 0-.4-.3-.7-.2-1.3zm.1 33.5c-.4-.5-.1-.8-.4-1.3 0-2.6-.8-5.5-1.2-8.2-1-1.1-1-2.9-1.1-4.4-1-1.4-1.5-3.3-2.3-4.8-.5-.3-.8-.7-1.1-1.2-.8-.3-1.5-.6-1.7-1.5-.4-.2.3.4-.1.5-.8-.5-1.6-1.2-2.4-1.6-.5-.3-.9-1-1.5-1.2-.7-.3-1-.9-1.5-1.1-.4-.2-1-.2-1.5-.4-.2.2-.6.2-.7.6.7 1 2.1 1.4 3 2.1.1 0 .2-.1.3-.1.7.6 2 .7 2.3 1.7 1 .4 1.6 1.2 2.3 2 .1 1.2 1.3 2.3 1.4 3.5 1.5 1.3 2.1 2.9 2.6 5.3 0 .2-.2.1-.2.3 2 3.4 1.6 8.1 2.9 12-.1.4 0 .9.2 1.1.4-1.1.8-2.1.7-3.3zm-.6 6.2c-1.2-1.4-.8-3.1-1.2-4.8-.1-.5-.5-1-.2-1.4-.9-2.3-.6-4.6-1.4-6.9-.1-.2.1-.3.1-.5-.9-1.3-1.2-3.2-1.6-5-.4-.3-.7-.8-.7-1.5-1.3-1-1.8-2.8-2.6-4 .1-.5-.3-.7-.4-1.2-.5.1-.4-.4-.7-.7s-.9-.4-1.2-.8c-.3-.3-.4-.6-.7-.8-.4-.3-1-.3-1.4-.8-1.8-.4-2.6-1.5-4-2.1-.2.3-.6.3-.7.8 2 .3 3 1.7 3.8 3.2 1 .5 1.4 1.6 2.1 2.5.1.2-.1.3.1.5.5.6 1.1.9 1.6 1.5.1.7.3 1.2.8 1.5.7 1.7 1.4 3.3 1.7 5 .5.3.4 1.3.8 1.7.1 1.3.9 1.8 1 3 1.7 1.9 1 5.8 2.5 7.9-.2.4.1.4.2.7-.1 1.2.4 1.9.2 2.9.4.2.2 1.1.6 1.4.4-.8 1.1-1.2 1.3-2.1zm-1.4-44.6c-.3.5-1.5.2-2.2.3 0 .6-.4.8-.5 1.3 1.3-.3 2.4.6 3.6.7-.1-.8-.2-1.6-.9-2.3zm-1-3.4c-.3.4-.2 1.3-.9 1.4-.2-.2-.3-.6-.5-.9.6-.7.5-1.9.1-2.8-.2 0-.4.2-.5 0-.3-1.1 0-2.1-.8-2.6-.6 1-1.2 2-1.8 3-.1-.1-.2-.2-.4-.1 0 .9-.7 1.6-1.4 2-.9 1.9-2.7 2.8-3.8 4.4-.1-.1-.3-.1-.4 0v.4c-.8.5-1.3 1.4-2.3 1.8-.3.7-.8 1.1-1.4 1.4-.2 1-1.2 1.2-1.7 2-.2.1-.2 0-.4.1-1.2 1.5-2.8 2.8-4.1 3.9-.2 0-.2.1-.5.1-.2.5-.6.8-1.4.8-.5.7-1.2 1-1.8 1.6-.1 0-.1-.1-.3-.1-1.4 1.4-2.9 2.6-4.1 4.1-.2-.2-.6.2-.8.3.1-1.1 1.2-1.3 1.5-2.3.4.1.3-.3.6-.3-.1-.2.1-.3.1-.5 1.3-1 2.8-2.1 4-3 .1 0 .2.1.3.1.1-.1.2-.2.2-.5.6-.2.8-.8 1.6-.8 0-.2.1-.3.2-.4 1.1-.5 1.9-1.9 3-2.1 0-.2.1-.3.1-.6 1-.8 1.7-1.8 2.9-2.4.2-.9.9-1.4 1.7-1.8 0-.4.2-.6.6-.6.2-.6 1.1-1.2 1.7-1.6.1-.1.1-.2.1-.4 1-.5 1.4-1.7 2.5-2.2.3-.7.9-1.1 1.3-1.7.1 0 .1.1.2.1.6-1 1.4-1.8 2-2.7.1 0 .2 0 .2.1-.1-.4.4-.7.2-1.1.6-.3.4-.9.8-1.5 0-.1-.2-.1-.2-.3-.4 0-.7 0-1-.1-.2-.2 0-.4 0-.7-.2 0-.2.3-.2.5-2.1 1.3-2.5 4.4-4.8 5.4-.5.8-.9 1.7-1.9 2-.9 2.7-4.2 3.6-5.6 6.1-.2 0-.2.2-.5.2-.2.4-.6.7-.8 1.1-.1 0-.2 0-.3 0-1 1.3-2.2 2.8-3.8 3.3-.4.7-1.1 1-1.7 1.5-.2 0-.1-.2-.3-.1-.1.1-.1.3-.1.5-.8 1-1.9 1.7-2.6 2.7-.7 0-1.2 1-2 .8-.4 1.3-1.6 1.8-2.3 2.9-.3-.1-.3.2-.6.2-.1.1.1.3 0 .5-1 .7-1.3 2-2.3 2.7 0-.2-.4-.1-.5 0 0 .3.2.3.2.6-.4.4-.6 1.1-.8 1.7-.4.1-.6.4-.7.8-.7-.1-.5.7-1.1.8v.4c-1.1.6-1.8 1.6-2.6 2.5-.2 0-.2-.1-.3 0 .2.6-.6 1.3-1.1 1.2-.2.9-.6 1.7-1.3 2.1.1.3.1.6-.4.6-.6 1.7-2.2 2.3-3.5 3.2-.4.7-1 1.8-1.6 2.2-.1 0-.1-.1-.2-.1 0 .3-.2.4-.1.8-.6.7-1.4 1.4-1.7 2.4-.1 0-.2 0-.3.1-.1.9-.7 1.4-.9 2.2-.9.9-1.4 2.1-2.5 2.9-.2.7-.3 1.3-.8 1.7 0 1-.8 1.4-1.2 2 .1.4-.1.6-.2.8-.7.3-1 1-1.7 1.4 0 .5-.3.5-.5.8 0 .4-.3.5-.2.9-.9.7-.8 2.8-2 3v.5c-.6.6-1.1 1.3-1.3 2.3-.1 0-.2.1-.3.1-.2 1-.9 1.3-.6 2.6.4.1.6.8 1.1.5-.2-1.1.9-1.7 1.4-2.4.1 0 .2.1.2.2-.4.8-.9 1.5-1.2 2.4.6 0 .8.2 1.3.1.7-.5 1.4-1.2 1.6-2.5.1-1 .6-1.9 1.3-1.4-.2.4-.3 1-.5 1.5 1 1.8 2.3 3.4 3.5 5 .6 0 1 .1 1.5.4.2-.2.8-.2 1.3-.1-.2-.7-.9-.8-1.1-1.5-1-.2-1.3-1.1-1.7-1.8-.3-.4-.7-.7-.8-1 0-.1.1-.1.1-.2-.3-.6-.6-.9-1.1-1.5-.5-.7-.8-1.2-1.1-1.6-.5-.5.2-1 .4-1.2.3-.5.3-1.4.6-1.8.2 0 .2-.1.4-.1.1-1.2 1.5-1.4 1.2-2.7.8-.6.4-1.9 1.6-2 0-.5.4-.6.7-.8.7-2.2 2.5-3.3 3.6-5.1.1 0 .2 0 .3-.1.2-.4.5-.6.5-1.1.2 0 .2.1.3 0 .6-1 1.5-1.7 2.3-2.6-.2 0-.2-.2-.2-.4.9-1.2 2.4-2.4 3.4-3.2.1-.4.3-.7.8-.8.2-.7 1-1.4 1.6-1.5 0-.2.1-.3.2-.5.9-.3 1.1-1.3 2-1.4.9-1.3 2.4-2.1 3.3-3.3.2.1.2-.1.4-.1.5-.7 1-1.4 1.9-1.7.8-1.3 2.3-1.8 3.5-2.7.1-.1.3-.1.5-.1 0-.2.2-.4.3-.5.2 0 .3-.1.5-.1.1-.2.3-.4.5-.5 1.8-1.2 3.7-2 5.5-3.2 1.4-.8 2.4-2 3.7-2.9.2-.4.5-.6.6-1 .7-.5 1.3-1.1 2-1.6 1.4-.9 2.6-2 3.9-2.9.4-.9 1.5-1.3 2.1-2.1.5-.6.7-1.5 1.6-1.7.3-.8.8-1.3 1.4-1.7 0-.2-.1-.5.2-.4 0-1.1 1.4-1.3 1.6-2.4.7-.5 1.1-1.4 1.4-2.3-.2-.7 0-1.6.8-1.7.1.3.2.3.2.7.7.2 1.2-.1 1.7.3 0-1.3.5-2.8-.5-3.2zm.4 50.9c-.1-.9-.8-2.3-.6-3.5 0-.2-.2-.2-.2-.5.2-1.3-.9-2.7-1.2-3.8.4-1.4-.6-2.7-.4-4-.4-.8-.9-1.6-1.3-2.4-.1-.2.2-.1.1-.3-.3-.3-.6-.9-.5-1.3-.4-.2-.2-.6-.4-.9-.4-.8-1-1.8-1.1-2.8-.7-1.4-1.4-3.3-2.3-5.1-.3 0-.4-.3-.7-.4-.7-1.2-1.6-2.3-2.3-3.4-1.2-.9-1.7-2.5-3.2-3-.2-.1-.2.1-.4.1-.1-.5-1.1 0-1.5-.4-.1.4-.5.5-.5.9.9 1 2.7.9 2.9 2.6.5-.3.4.2.8.5.2.2.7.4 1 .8.2.3.4.6.5.8.4.3.9.3.9.8-.1.3.1.4 0 .5.6.4.4 1.2.5 1.7.1.4 1 .8.8 1.7.4.4.6 1.1.7 1.7.2.3 1 .7.9 1.6.2 0 .3 0 .3.2.6 1.4 1.3 2.7 2 4 0 .2-.1.2-.1.4.6.9.8 2.4 1 3.5.1.2.3.2.4.4.2 1.6 1 2.8 1 4.3.6 1 .8 2.5.6 3.9.2.6.5 1.3.5 2 .2 1.3-.3 2.7.2 4 .4-2.5 1.8-3 1.6-4.6zm-1.7 5.9c-.1-.1-.4-.2-.5-.4-.8-1.5-.1-3.3-.3-4.8-.2-1.1-.4-2.1-.5-3.2-.1-1.7-.6-3.3-1-5.1-.1-.2-.3-.3-.3-.5.1-.2.1-.4.1-.7-.7-.9-.6-2.5-1.2-3.5-.3-2.3-2-3.9-2.5-5.9-.2 0-.7-.4-.5-1-.4-.1-.5-.5-.7-.8-.8-1.7-1.4-3.8-2.1-5.4-2.3-1.4-3.1-3.9-6-4.8-.3.3-.7.6-.9 1 .9.2 1.4.7 2 1.2.9 1.7 2 3.2 3 4.8.4.2.7.5 1 .9.5 2 1.4 3.7 2.4 5.2-.1.1-.1.3 0 .4 1.9 1.8 2.4 4.6 3.6 6.9-.2 1 .7 2.4.2 3.2.5.9.3 1.9.5 2.9.2 1.3 1 2.5.8 4 .3.5.4 1.4.3 2.1.4.4.1 1 .1 1.4 0 .1.2.3.2.5 0 1 .6 2.2.8 3.2.4-.4 1.2-.7 1.5-1.6zm-3.7 4c.2-.7 1.1-.7 1.4-1.4-.5-.9-.8-2.1-1-3.2-.1-.2-.3.1-.5-.2-.1-.6-.6-1.1-.5-2-1.3-1.9-1.5-4.5-2.3-6.5.1-.7-.4-1.3-.6-1.9s-.2-1.2-.4-1.7c-.1-.3-.3-.5-.4-.8-.1-.2 0-.5-.1-.7-.3-1-.9-1.9-1.3-2.9-.1-.2 0-.4-.1-.6-.2-.5-.7-1.1-1-1.6-.5-.8-.8-1.6-1.2-2.4-.1-.8-.7-1-.8-1.8-.5-.3-.6-1-.8-1.6-.3-.2-.6-.4-.5-1-.6-.8-1.2-2-1.4-2.9-1.1-1.6-2-3.2-3.3-4.5-.4.1-.5.4-.9.5.9 1.6 2 2.9 2.4 4.9.2.2.2.5.4.7 0 .2-.2.1-.2.3.3 0 .4.1.4.2.1 1.3 1.3 1.6 1.4 2.9.3.3.7.8.6 1.3.2.1.3.3.5.5.1.2-.1.2-.1.4.5.5 1 1 1.1 1.9.7 1 1.6 1.8 1.7 3.3.8 1.1 1.2 2.6 1.7 3.9-.1.1-.1.2-.1.4 2 3.5 2.8 7.5 4.5 11.5.1.2-.2.1-.2.4.5.5.3 1.4.5 2.2.2.6.2 1.4.5 2-.3.1 0 .4-.3.5s-.3 0-.6 0c-.2-1-.5-2.1-.6-2.8-.2-1-.2-1.8-.5-2.6-.4-1.4-1.2-2.7-1.5-4-.1-.4-.1-.7-.4-1-.1-1.3-.9-2.3-.9-3.5-.3-.2-.6-.8-.8-1.2-.1-.2-.1-.5-.1-.7-.3-.2-.4-.5-.5-.8-.5-1.4-.9-2.6-1.4-3.8-1-2.4-2.4-4.6-3.7-6.6-.1-.2 0-.5-.1-.6-.4-.3-.6-.9-.8-1.5-1.6-1.9-1.9-5.1-3.5-6.9 0-.1.1-.1.1-.3-.3 0-.3-.3-.6-.4-.4.3-.9.5-1.3.8.6 1.1 1.5 1.9 1.9 3 1.1.8 1.3 2.6 2.2 3.6-.1.7.4.9.6 1.4v.5c.7 1.3 1.1 2.9 1.5 4.5.5 1 1.1 2.1 1.6 3.2.5 1.3 1.1 2.6 1.5 4 .7.4.8 1.5 1.1 2.4.4.9.9 1.7 1.1 2.8.4.4.5 1 .5 1.7.6.4.6 1.4 1 2.1-.3.5.3.7 0 1.1.3-.1.2.2.2.4.4.2.6.6.6 1.2 1.1 1.6 1.6 3.8 2.3 5.7.3-.6.9-.7 1-1.4.6-.1.7-.3 1-.4zm-1-14.4c-.1-.8-.4-1.6-.3-2.4.1-1-.1-1.9-.5-2.8-.5-1.5-1-3.4-1.8-4.6-.2-.3-.5-.4-.6-.7-.2-.3-.2-.7-.3-1.1-1.5-1.5-2.3-3.7-3-6-.5-.4-1.2-.6-1.2-1.4-.2 0-.3-.1-.4-.2-1-1.6-1.7-3.3-3.2-4.5-.6 0-1.1-.3-1.6-.1.2.5.6.9 1 1.2.2.9 1 1.1 1.1 2.1.2-.1.2 0 .4.1.2.7.8 1 .8 1.9.5.7.9 1.5 1.1 2.5.8 1.2 1.4 2.6 2.2 3.8.7 1.8 1.6 3.4 2.6 4.9-.1.1-.1.2-.1.4.4.4.7 1 .6 1.7.7.9 1.1 2.3 1.2 3.5.5 1 1 2.3 1.1 3.4.3-.1.3.2.4.4-.2 1.3.5 2.3.7 3.8.2.2.5.4.6.7s-.1.7.3.8c0-2.7-.9-5-1.1-7.4zm-.5-53c-.6.2-1.5.1-2.1 0-.8.8-2.2.6-3.4.5-.5.7-1.6.5-2.3.9-.3.2-.3.4-.6.5-.2.1-.5 0-.8.1.1.2-.2.1-.2.2-.4 0-.4.1-.8 0-1 .3-2.2 1-3.2 1.2-.2.3-.6.4-1 .3-.9.5-1.7.7-2.4 1.2s-2 .4-2.5 1.2c.3.1.5-.1.8-.2.8.2 1.3.3 1.7 1 0 .3 0 .5.2.5.4-.3 1.1-.3 1.4-.8.5.2.7-.4.9-.7 1.6-.5 3.5-1.8 5.6-2.5.2 0 .1.2.3.2.5-.6 1.6-1 2.7-1 .6-.5 1.3-.6 2.1-.8.1.4.4 0 .6.3 0-.1 0-.3.1-.3.7.1 1.9-.2 2.1.5.2-1.1 1.2-1.4 1.6-2.3-.3.1-.5.4-.8 0zm-14.7 6.8c-.1.4.2-.1.2.1.2 1.2-1.9.8-1.7 1.6 2-.5 4.4-1.7 6.7-1.8.2-.5.9-.2 1.2-.3.2 0 .3-.2.5-.3.7-.3 1.5-.5 2.3-.8.1 0 .1.1.1.1 1.2-.3 2.6-.6 3.3-1.5.1 0 .2 0 .3-.1.1-.6.6-.8.8-1.4-.3.2-.5.1-.9 0-2 0-3.3 1.1-5.1 1.1-.4.5-1.1.8-2 .8-.3.2-.8.4-1.1.1-.7.7-1.7 1.1-2.6 1.3 0 .4-.4.5-.8.4 0 .4-.5.6-.8.3 0 .6-.2.3-.4.4zm13.1 60.8c-.6-1.1-1.3-2.7-1.6-4-.9-1.1-1.2-2.4-1.5-3.9-.3-.6-.8-1.5-.8-2.2-.4-.9-1.1-2.3-1.3-3.5-.3-.2-.5-.7-.4-1.1-.5-.6-.8-1.4-1.1-2.1-.3-.8-.7-1.5-1.1-2.3-.2-.5-.4-1-.5-1.6-.9-1.5-1.5-3.2-1.8-5.1-.9-1.3-1.1-3-2.1-4.2 0-.1 0-.3 0-.5-.1 0-.2 0-.2-.1-.5-1.2-1.1-2.1-1.6-3.1-.6-.3-1.3-1.2-1.6-2-.6.4-1.4.7-1.9 1.3.7.2 1 .9 1.4 1.4.1.2-.1.2-.1.4.6.4.4.9.5 1.6.1.6.8 1.2 1 2 .2 1 .7 1.9 1.1 2.6s.6 1.5 1.1 2.1c0 .2 0 .3-.1.4.2.1.4.2.5.4.4 1.1.9 2.1 1.4 3.1.1 1.2 1.1 1.5 1.2 2.8.6.7 1.2 1.6 1.3 2.5.1.1.3.1.3.2.2 1 .9 1.6 1.1 2.6 1 1.8 2 3.9 2.7 5.8v.6c.6 1.2 1.4 2.2 1.5 3.8.9 1.4 1.5 3.3 2.6 4.7.9-.7-.1-1.7 0-2.6zm-2.5-68.6c-.2 0-.3.2-.5.2-.7-.1-1.3-.7-2.1-.6.1.4-.5.8-.7.5-.7.2-1.3.9-2 .8-.2.5-1.1.7-1.4.1.4-.9 1.8-.8 2.6-1.3-.1-1.1-1.2-.4-1.9-.5-1 .9-2.6.4-3.8 1.1-1.5-.1-3.1.6-4.4.9-.9.7-2.1 1.5-3.5 1.6-1.2 1.1-3.2 1.4-4.3 2.6-.2 0-.3.1-.5.1 0 .6-.4.7-.4 1.2.1 0 .2.1.2.2.9-.1 1.5-.6 2.4-.2 1.6-2 4.1-3.4 6.9-3.8.5-.5 1.4-.5 2-.9 1.2-.3 1.8-1.1 3.1-1.1.1.4-.2.5-.2.8-3 1.5-6.5 2-9.1 3.8-.2.1-.3.1-.5-.1-.2.6-.7.9-1.1 1.3.4.4.7.9 1.2 1.2.2-.1.6-.2.7-.5 1.7-.2 2.4-2 4.4-2 .2-.1.4-.4.7-.2.1-.1.2-.3.4-.5 2-.6 4.5-1.8 6.8-2.2.6-.6 1.6-.7 2.4-1.2.1.2.3-.1.5.1.6-.4 1.5-.7 2.3-.4.8-.2 1.7-.4 2.2-.7-.8-.1-1.7-.3-2.4-.3zm-.3 67.1c-.5-.9-.9-2.1-1.3-2.9-.6-1.4-.9-2.9-1.5-4.2-.4-.8-.9-1.6-1-2.5-.2-.2-.5-.4-.5-.9-.2 0-.3-.1-.4-.2-.6-1.3-1.2-2.7-1.8-4.1-.6-.6-.8-1.3-1.1-2.1-1.4-2.1-2.2-4.4-3.3-6.6 0-.1.1-.2.1-.3-.2-.1-.3-.3-.5-.4-.6-1.3-1.1-2.7-1.9-3.9 0-.6-.2-1.1-.5-1.6-.1-.2.1-.3.1-.5-.6-.3-.5-1.2-.8-1.6s-.9-.3-1.2-.7c-.5.3-.8.7-1.4.8 1 2.9 2.3 5.6 3.5 8.3v.5c.8 1 1.1 2.4 1.5 3.8.9 1.2 1.8 2.5 2.3 4.1.9.9 1.4 2.2 1.8 3.5 1.2 1.4 1.6 3.6 2.5 5.4.1 1.2 1 1.6 1.1 2.8.2 0 .2-.1.3.1 0 .5.6.9.5 1.6.1 0 .3 0 .3.1.4 1.1 1.3 1.8 1.5 3.1 1 .6.9 2.2 1.6 3.1.1.2-.1.2-.1.5.7.1 1.2-.4 2-.3 0-.1.1-.2 0-.2-.5-1.4-1.4-3-1.8-4.7zm-1.4 3.1c-.4-.8-.7-1.6-1.1-2.1-.1-.2-.3-.5-.4-.7-.4-.7-1.1-1.8-1.4-2.7-.7-.9-1-2-1.6-2.9-.2-1.9-1.5-3.1-1.7-4.8-.7-.6-.9-1.5-1.2-2.5-.4-.8-1-1.2-1.1-2.1-.3-.2-.4-.6-.6-.9 0-.1.1-.1.1-.3-1.2-.9-1.7-2.4-2.4-3.8 0-.2 0-.3.1-.4-.6-.5-.7-1.5-.9-2.3-1-1.5-1.7-3.3-2.5-5 0-.2.1-.3.1-.5-.2-.2-.3.1-.4-.2-.4-1-.8-2-1.2-3.1-.7.2-1.2.6-1.7.9.3.7.9 1.5.9 2.3.1.1.4.1.4.4 1 2.7 2 5.4 3.5 7.8 0 .1-.1.2-.1.3.7 1.1 1.6 2.4 1.9 4.1.5.6 1 1.4 1.4 2.1.5 1 1.1 1.9 1.4 3.1.6 1.1 1.6 2.3 1.8 3.6.5.6.8 1.4 1.1 2.3.7 1 1.5 2.2 1.6 3.5.2.1.4.2.5.4.6 1.4 1.3 2.8 2.1 4v.4c.7.6 1.4 1.1 1.7 2 1.3-.1.1-1.9-.3-2.9zm-2.9-62.4c-.4.6-1.1.3-1.6.8-.2.1-.3-.1-.5-.1-1.4.8-3.3.8-4.6 1.7-.2 0-.1-.2-.3-.2.1.6-.5.5-1.1.5-.3.5-.5 1-1.1 1.1-.3-.2-1.2-.2-1.4.3 0 .2.2.1.2.3 1.3-.3 3.8-1.1 5.5-.6 1.1-.3 2.3-.2 3.3-.6.4.3.7-.2 1.2 0 1.2-1.4 2.7-2.5 3.9-3.9-1.4 0-2.2.9-3.5.7zm2.2 1.9c-.8.1-.9.8-1.7 1-.1.3-.7.6-.4.8 1-.5 2.2-1.1 2.6-2.4-.4-.1-.3.5-.5.6zm-3 2.6c-.4.2-1 .7-1 1.1.3-.4 1.1-.7 1-1.1zm-4.6-14.8c-.9.6-2.4.8-3.7 1 0 .2 0 .3-.1.3s-.2 0-.3-.1c-.5.7-1.5.9-2.3 1.2-.2-.1-.3-.3-.3-.5 0-.4 1.3-1 2.1-1.4.6-.3 1.1-.4 1.6-.6.6 0 1.3-.1 1.7-.5-1.1-.7-2.4-1-4.1-.8-.4.4-.9.7-1.7.8-.8.6-1.8.6-2.6 1.2-.1.5-.6.6-1.1.7-.4.3-.5.9-1.1 1.1-.5 1.5-1.6 2.3-2.2 3.7-.3-.1-.2.3-.5.2-.1 1.2-1.2 1.8-1.2 2.8.9-.5.8-1.9 1.7-2.4.4-.7 1.1-1.2 1.7-1.7.4-.9 1.6-1.2 2.3-1.9 1-.4 1.8-1 2.9-1.3-.1.3.4.2.4.5-.1.2-.1.3-.3.4-2.4.7-4.2 2.6-6.2 3.9-.1.7-.7.9-.9 1.5.3.1.4.3.7.3.5-1.1 1.4-2.4 2.8-2 1-.7 2.5-1.6 3.7-2.1.2-.1.4 0 .7-.2.7-.3 1.2-.9 1.9-1.1.6-.3 1.5-.5 1.9-.7.8-.4 1.5.2 2.2-.1.6-.4 1.8-.7 2.6-.5.6-.5 1.7-.4 2.3-.9-1.3-.8-3.2-.8-4.6-.8zm4 76.7c-.3-1.1-1-1.8-1.4-2.7-.4 0-.5-.3-.7-.5-1.4-1.7-2.8-4.2-3.6-6.2-1-1.1-1.9-2.8-2.4-4.1-.9-.7-1.7-1.4-1.9-2.8-1-1.6-1.5-3.4-2.8-4.8-.3-1-1-1.5-1.5-2.2-.6-.9-1-1.8-1.6-2.8-.3-.6-.8-1.2-1.1-1.9-.2-.6-.6-1.1-.5-1.6-.6-.5-.8-1.5-.9-2.5-.2-.2-.3-.5-.3-.9-.5.2-.8.5-1.1 1 .3.7.7 1.2.8 2 .2-.1.2.1.3.2.2 1.6 1 2.5 1.4 3.8.1.3-.1.3 0 .5s.3-.1.3.1c.8 1.8 1.7 3.5 2.3 5.4.7.8 1.3 1.8 1.7 2.9.1.1.5 0 .5.2.1.5.5.8.8 1.3.2.5.3 1 .5 1.4.2.3.5.5.7.8.2.4.3.8.5 1.1.5.8 1.2 1.4 1.7 2.3.3.4.6.8.8 1.2.4.7.7 1.6 1.1 2.3.2.3.5.5.8.8.7.9 1.3 1.8 2 2.7v.5c.2 0 .2-.1.4 0 .7.9 1.3 1.8 2 2.6.1.4.1.4.2.7.3 0 1-.3 1.2-.7 0 0 0-.1-.2-.1zm-4.3-56.7c.3 0 .2-.3.6-.2.7-1.5 2.4-2.1 3.1-3.7-1.4 1.3-2.9 2-3.7 3.9zm-1.6-5.2c-1.3.1-2.6.9-3.8.3-1.1.1-1.9.5-2.7.9-.1.1-.3 0-.5.1-1 .4-2.2 1.3-3 1.6 0 .2 0 .3-.1.4-.7.3-1.2 1-1.9 1.4-.5.2-.9.4-1.2.8-.9.4-1.3.9-2.1 1.5-.5-.3-.7.2-1 .5-.1 0-.5.1-.6.1-2.1 2-5.4 2.8-7.9 4.4-.2 0-.2-.1-.4-.1-.7.9-1.4 1.8-2.6 2.3 0 .2-.1.3-.1.5-1.6 1.1-2.7 2.7-4.5 3.7 0 .2 0 .3-.1.4-1.9 1.3-3.9 2.4-4.8 4.8-.2.1-.4.2-.5.3 0 .5-.2.9-.5 1.1 0 .5-.1 1-.5 1.1-.4 1.1-1 2-1.7 2.9-.4 1.3-.7 2.2-1.1 3.5-.2.1-.3.1-.5.2 0 1.2-1 1.8-1.1 3.1-.7.5-.9 1.4-1.1 2.3-.7.4-.4 1.7-1.1 2.1-.3 1.6-1 3.3-1.7 4.8 0 1.3-1 1.8-1.1 3 .3.3.8.5 1.1.8.7-.7.9-1.9 1.5-2.7 0-.3.1-.9.5-1 .2-1.4.3-2.6 1.4-3.2 0-.2 0-.3-.1-.4.3-.2.4-.5.7-.8 0-.4.2-.4.3-.8.1-.6.3-1 .6-1.4.2-1 .6-1.8.8-2.9 1.3-1.7 1.6-3.7 3-5.4.1-.6.5-1 .9-1.4.4-1.5 1.7-2.3 2.6-3.3-.1-.5.7-.5.5-.9.5-.1.6-.6.8-.9.2-1.1.7-1.9 1.6-2.3.8-1 1.9-2.1 3.2-2.4.1-.3.4-.4.5-.6 1.9-1.2 3.4-3 5.4-3.8.5-1 1.6-1.4 2.9-1.7 1.9-1.4 4-2.5 5.5-3.9.7-.2 1-.9 1.8-1.1.3-.7 1-1.1 1.4-1.5.2-.2.3-.1.5-.2.4-.3.6-.8 1-1s.9-.7 1.4-1c.3-.2.7-.2 1.1-.5.2-.2.4-.5.6-.6.4-.2 1-.5 1.5-.5.5-.5 1.3-.7 2-1.1 1.6-.1 2.2-.6 3.7-.5.8-.7 2.5-.6 3.6-.9 0-.1 0-.2.1-.2-1.4-.1-2.8 0-4.2.1zm-4.3 3c-.2 0-.5 0-.6-.1-.6.6-1.5 1.3-2.3 1.5-.5.4-1 .9-1.7 1.1-.1.4-.4.6-.8.6-.4.6-.9 1-1.5 1.3-.5 1.1-1.6 1.5-2.6 2.2-.2 0-.3.1-.6.1-.4.8-.9 1.3-1.7 1.5-1.2 1.3-2.9 1.8-4.4 2.7-.1 0-.2-.1-.3-.1-.1.3-.5.3-.7.6-.5-.2-.8.2-1 .6-.1.1-.2 0-.4 0 0 .3-.2.3-.2.5-2.5 1.4-4.4 3.4-6.9 4.9.1.2 0 .4-.2.6 0-.2 0-.4-.2-.5-.1.4-.5.6-.8.8-.3.4-.5.8-.9 1.1-.4.8-.8 1.7-1.4 2.3 0 .3-.2.3-.2.6-1.1.8-1.6 2.1-2.7 2.8-.2 1.1-.8 1.8-1.4 2.5-.2.8-.5 1.4-1 1.9v.5c-.8.8-1.1 2.3-1.7 3.2-.2 1.1-.4 2.1-1.1 2.7-.1 1.3-1 1.9-1.4 2.9-.1 0-.3 0-.4 0 .2.7-.2 1.2-.6 1.6.1 1.8-.9 3.6-1.7 4.4-.4.4-.3 1.4-.8 1.7-.1.5.2 1 0 1.5.4.2.4.8.9 1 .3-.5.2-1.3.8-1.6-.1-.6.1-1.3.4-1.7.1-.2-.2-.1-.2-.3.3-.5.6-.9.9-1.4.3-1.5 1.5-2.3 2-3.8h.2c.1-.2-.1-.2-.1-.5.6-.6.7-1.6 1.3-2.2-.2-1.1.8-1.6 1.2-2.2 0-.6.4-1.2.8-1.2.1-.6.3-1.2.8-1.7 0-.2-.1-.2-.1-.4.7-.8.7-2.1 1.6-2.7-.1-.6 0-1.2.3-1.7.3-.4.8-.8 1.1-1.2s.3-1 .8-1.1c.1-1 .7-1.5 1.4-1.9-.1-.2.1-.3.1-.5 1-.8 1.5-1.9 2.6-2.5 0-.1 0-.3 0-.4.7-.3.9-.9 1.5-1.3.3-.1.2.1.5.1 0-.5.4-.8.8-.8.1-.6.5-.7.9-.9.1-.5.4-.8 1-.8.8-.9 1.7-1.6 2.9-2 0-.3.5-.5.8-.4.7-.5 1.4-1.1 2.4-1.4.4-.6 1.2-.8 1.9-1.1.1-1.7 1.5-2.5 2.6-2.9.2-.5.8-.6 1.3-.9 0-.1 0-.3.2-.4.3-.1.4-.4.8-.4.4-.5 1-.7 1.5-1.1 1-.1 1.3-1 2.3-1.1 0-.3.5-.3.5-.6.2 0 .4-.3.6-.1.9-.8 2.4-1.5 3.8-1.6.1-.4.7-.3 1.1-.5.5-.6 1.4-.7 2-1.2.2 0 .4-.1.7-.1.5-.8 1.6-1.1 2.6-1.4.3-.5.9-.8 1.2-1.4-3.2 1.1-6.2 1-8.5 2.3zm8.1 59.2c-.1-.3-.4-.5-.6-.8-.1-.2-.2-.5-.3-.6-.2-.1-.3 0-.5-.1-.1-.1-.2-.4-.3-.6-.9-1.3-2.1-2.4-2.8-3.8-.4-.1-.5-.7-.8-.9-.4-1.6-1.5-2.5-2.1-3.8-.8-.6-1.2-1.6-1.6-2.6-.6-.4-1-.9-1.2-1.6.1-.2.1-.5.2-.7-.7-.4-1-1.3-1.7-1.7-.4-1-1.5-2.1-1.7-3.3-.8-.3-.6-1.4-1.2-1.8-.8-2.5-2.2-4.4-2.7-6.9-.3-.2-.3-.6-.3-1.1-.7 0-.5-1-.7-1.3-.7.3-1.2.9-1.7 1.3.6 2.4 1.6 4.4 2.6 6.5 0 .1-.2.1-.2.2.7.8 1.4 2 1.7 3 .9 1.1 1.7 2.2 2.2 3.7 1 1 1.1 2.8 2.1 3.7-.1.3.1.4.1.7.3 0 .4.2.4.5 1.3.7 1.9 2.1 2.8 3.4.2.3.5.6.5 1 .8.7 1.6 1.7 1.7 2.9 1 1.1 2 2.3 2.8 3.7-.1.3-.5.4-.8.2-.8-1.7-2.6-2.6-3-4.8-.5-.6-.9-1.2-1.3-2-.1 0-.3 0-.3-.1-.2-.5-.9-1.2-1.2-1.8 0-.1 0-.3 0-.4-.6-.5-.8-1.5-1.7-1.8-.1-.7-.9-.8-.9-1.6-.8-.5-.9-1.8-1.5-2.6 0-.8-.7-.8-.6-1.7-1.6-1.9-2.5-4.6-3.8-6.9-.1-.2.1-.2.1-.5-.7-.5-1-1.3-1.1-2.3-.7-.6-.6-1.8-1.4-2.3-.8.8-1.3 1.9-2.5 2.4 0 .7-.7.7-.9 1.1.4.7.9 1.7 1.1 2.5 1.8 2.5 2.8 5.3 4.2 8.1.6.6 1.1 1.4 1.4 2.3.7.9 1.4 1.8 1.8 2.9.7.8 1.2 1.8 1.6 2.9.1 0 .2 0 .2.1.3 1 1.1 1.6 1.5 2.5.6.3.9.9 1.2 1.5.8.4 1.1 1.4 1.7 2.2.8.5 1.4 1.2 2.1 1.7 0 .2.2.2.2.5.1.1.3.1.4.2.1.7.7.8.8 1.5-.1 0-.4-.1-.3.1.7.1 1.6-.4 2.2-.8-.6-1.7-2.3-2.6-3.2-4-.2-.3-.4-.4-.6-.7-.2-.2-.3-.6-.5-.8-.2-.3-.5-.3-.8-.7-.3-.6-1.4-1.6-.7-2 .4 0 .4.4.5.8.1.2.2-.1.4-.1.7 1.8 2.6 2.8 3.2 4.4 0-.1 0-.2.1-.1.8.9 1.7 1.8 2.4 2.9.4-.1.7-.3.9-.7-.4-.3-1.3-1.4-.2-1.7.4.4.7.9 1.1 1.2.4-.2 1.3-.1 1.5-.6zm-2.7-57.3c-.3 0-.4.2-.8.1-.3.2-.2.7-.8.6-.5.7-1.2 1.1-1.7 1.7-1.2.6-1.9 1.6-3 2.2 0 .1 0 .3-.2.3-.9.7-1.7 1.4-2.6 2-.6.4-.8 1.4-1.7 1.5-.1.4-.4.5-.7.8-.1.1-.3.1-.5.1-.6.7-1.1 1.4-1.9 1.8-.1.2-.1.6-.5.6-.1.6-.4 1-.9 1.2-.6 1.1-1.2 2.1-2.3 2.7-.5.8-1.4 1.3-1.8 2.2-.1 0-.2 0-.3 0-.2.8-.8 1.2-1.4 1.6-.1.3-.2.6-.5.6 0 .5-.3.7-.7.8-.1.3-.2.6-.5.8-.2 0-.4 0-.5.1.1.8-.4.9-.8 1.2 0 .6-.5.9-.8 1.2-.2 0-.3 0-.5 0-.1.3.2.2.2.5-.2.1-.3.2-.5.4 0 .4-.6 1.2-.8 1.4h-.2c0 .1.1.2 0 .3s-.4.2-.5.4c-.4.4-.4 1-1 .9.2.9-.5 1.1-1 1.1 0 .2.1.2.1.4-1.7 2.5-3.6 4.9-5.1 7.7-.4 1.1-1.1 1.8-2 2.4.2.2-.2.5-.4.6-.3 1-.8 1.6-1.5 2.2-.1.2.1.2.1.4-.6 0-.5.9-1 .7 0 .1 0 .2.1.3-1.4 1.4-2 3.6-3.4 5 0 .8-.2 1.4-.5 2 .3.4.1 1.2 0 1.7.5.1.4.7.9.8.7-1.1 1-1.8 1.3-3.2.9-.3.9-1.4 1.7-1.9.3-1.6 1.1-2.6 1.7-3.9h.3c.2-.8.9-1.2 1.5-1.6.5-1.3 1.4-2.3 2-3.4 0-1.8 1.8-2.2 2.3-3.7.1-.1.3-.2.5-.2-.1-.7.6-.6.4-1.4.1 0 .2 0 .2-.1s0-.3 0-.5c.1-.4 1.5-1.7 1.9-2.2.5-.7 1-1.5 1.4-2.1.5-.6 1.2-1.1 1.6-1.5.1-.1.1-.4.2-.5.6-.6 1.5-1 2.1-1.5.3-.6.5-1.2 1.1-1.5.5-2.1 2.5-2.7 3.2-4.6.2 0 .3 0 .4-.1 0-.1 0-.3 0-.4.4-.2.7-.6 1.1-.8.4-1.1 1.5-1.4 2-2.4h.3c.1-.3.1-.3 0-.6 1.1-1.5 2.2-3 3.4-4.4.5-.8 1.2-2 2.3-2.4.1-.6.6-.7.9-1.1.8-.2 1-1 2-1.1.3-.6.8-1.2 1.5-1.4.1-.3-.3-.3-.1-.5 1.1-.9 2.1-2.1 3.5-2.7.2-.5 2.1-.8 1.2-1.6zm-2.9-9.3c-.3 0-.4-.1-.5-.1-.6.5-2 .3-2.7.6-.1.9-.9 1.1-1.1 1.9.9-.1 1.5-.2 2.3-.5.4.3.9.6 1.2 1 .4-.1.5 0 .9-.1.2-1 .5-1.8-.1-2.8zm-14.7 24.6c0-.8.8-.9 1-1.5h.3c.8-.9 1.5-2 2.2-3 1.3-.8 1.9-2.2 3.4-2.8.3-.5.6-1 1.3-1.2 0-.2.1-.3.3-.5s.6-.1.6-.5c-1 0-2 .9-3.2 1.1-.1.2-.3.4-.7.5-.9 1-1.5 2.2-2.3 3.2-1.7 1-2.4 3-4.1 4.1-.2.2.1.1.1.4-1.1.7-2 2.3-3.1 2.5.1-.2.2-.3.2-.7 1-.9 2-2 3-2.9.2-.5.4-1 .9-1.1.3-.9 1.3-2 2-2.3.7-1.1 1.6-1.6 2-3 1-1 2.6-1.6 3.9-2 .7-.4 1.5-.7 2.3-.8.3-.6.9-.9 1.6-1.1.2-.2.5-.6.8-.5 0-.2.1-.2.1-.5 1.2-.2 1.3-1.5 2.5-1.7-.1-.2.1-.3.1-.5-.4-.2-.5.3-.8.5-.5 0-1.1 0-1.4.5-2.8.3-4.6 2.9-7.3 3.5 0 .8-1 .7-1.4.9-.6.3-1.1 1.2-1.7 1.4-.1 1.3-1.2 1.7-1.9 2.4-.6 1.5-1.6 2.6-2.6 3.6-.6.3-1.2.6-1.4 1.2-.4 0-.4.4-.8.5-.8 1.4-2.1 2.3-3.6 3-.6.6-1.1 1.3-1.9 1.7 0 .2.1.2.1.4-.7.5-.8 1.5-1.7 1.9-.1.7-.3 1.3-.8 1.6-.1.6-.5.9-.9 1v.3c-1 .7-1.4 2.2-2.2 3.1-.2 1.1-.7 2.4-1.7 2.9-.3 1.3-1.1 2.1-1.6 3.2-.3.2-.6.8-.9 1.3-.7 1.2-1.3 2.3-2.1 3.2 0 .1.1.2.1.3-.4.5-.5 1.4-.9 1.8-.1 0-.1.2-.1.3-.9.7-.8 2.3-1.8 2.9-.3 1.1-.9 2-1.4 2.9 0 .5-.2.8-.5 1.1 0 .7-.5.9-.8 1.4 0 1.2.9 1.5 1.7 1.9 0-.2 0-.5 0-.7.3-.7.3-1.8.9-2.5 0-.4 0-.8.5-.8 0-1.2 1-1.3 1.1-2.3.4-.1.3-.8.8-.8 0-.8.8-.8 1-1.4.1 0 .1.1.2.1.2-.7.5-1.4 1.1-1.7 0-.1 0-.3 0-.5.9-1.3 1.9-2.5 2.3-4.2.9-2 2.1-3.7 2.7-6 .8-.8 1-2 2-2.6 1-2.4 2.6-4.2 4.2-6 0-.2.1-.4.1-.5.6-.3 1.1-.8 1.7-1.1 0-.5.3-.8.8-.7.1-.8.8-1.5 1.6-1.3 0 .6-.6.7-.8 1.1-.8.3-.8 1.3-1.7 1.4-.1.5-.6.6-1 .8-.1.7-.8 1-.8 1.6-.1 0-.1-.1-.3-.1 0 .2-.1.4-.4.3-1.4 2.2-2.9 4.3-4.1 6.6-.4 0-.2.7-.7.6 0 1.1-.8 2.1-1.1 3.2.7-.4.7-1.5 1.5-1.7 0-1.1 1.2-1.7 1.7-2.6.4.1.3-.3.7-.3.4-1 1.5-1.2 1.7-2.3 1.4-1 1.9-3 3.2-4.1 0-.9.9-.8 1.1-1.6 1.1-.4 1.5-2 2.6-2.3.2-.5.5-.8.9-1.1 0 0 .1.1.1 0-.2-1.1.8-1.6 1.5-2.4zm13.3 45.1c-.2-.4-.4-.6-.7-.9 0-.1 0-.2 0-.3-.4-.2-.6-.7-.8-1.1-1.4-.8-2.2-2.1-3.2-3.3-1-1.3-1.8-2.7-2.9-3.9-1.1-2.8-3-4.7-4.1-7.5-.5-.2-.7-.8-.7-1.4-.2 0-.4 0-.4-.1-.4-.8-.9-1.4-1.2-2.3-.1-.2.2-.1.2-.4-1.2-1.4-1.8-3.5-3-4.8-.2-1-.8-1.6-1.2-2.3-.4.7-.8 1.6-1.3 2.2 1 2.1 2.4 3.9 3.3 6.1.3.2.7.6.5.9.5.2.8.8 1.1 1.4s.7 1.2.8 1.9c.3.3.6.5.7 1.1 1.2 1.1 1.7 2.8 2.8 4 .6 1.6 1.3 3.2 2.3 4.5.1.2.2.2.1.5 1.7 1.4 3 3.1 4.5 4.6v.4c.7.3 1.2.5 1.6 1.2.2 0 .8-.2 1 .1.2-.3.7.1.8-.3 0-.3-.1-.3-.2-.3zm-1.5-67.1c-.5.3-1.3.6-2 .6 0-.3-.1-.4-.2-.5-.5.6-1.1 1-1.5 1.7.7 0 .9.5 1.4.5.9-.1 1.6-1.4 2.9-1.4 0-.2.4-.1.3-.5-.4 0-.5-.3-.9-.4zm-4.2-14.7c-.1.4-.3.6-.6.7-.1.3-.2.5-.3.8-1.4 1.5-2.3 3.5-3.2 5.5-.1.2-.4.1-.5.4.2.6-.3.8-.2 1.6.3-.2.5-.4.5-.8.1-.2.2.1.2-.1 1-1.5 2-3 2.9-4.6 1-.8 2-1.6 3-2.4.5 0 .6-.3.9-.4 0-.1.1-.1.1-.2-.8-.5-1.7-.6-2.8-.5zm-.4 78.3c-1.9-1.1-2.9-3.3-4.1-5.4-.1-.2-.1-.2 0-.5-.4-.7-.8-1.4-1.1-2.2-.9-.4-1-1.7-1.7-2.2-.3-.9-1.3-1.8-1.7-2.9 0-.2.1-.3.1-.5-.2-.1-.4-.1-.5-.2.1-.4-.5-.6-.5-1.1-1.3-1.5-2.1-3.5-3.3-5.1.1-.4-.2-.3-.1-.7-.6-.2-.5-.9-1-1.2-.3.4-.8.8-.8 1.4 0 .3.4.8.5 1.3.6 1.9 2 3.9 2.9 5.1 0 .1 0 .2-.1.2 1.3 1.2 2 2.9 2.7 4.6.2.1.4.1.5.3.1.5.6.7.5 1.3.8.9 1.2 2.1 2 2.9v.3c1 .6 1.5 1.8 2.1 2.8.2 0 .3.1.4.2.7 1.5 2.1 2.5 2.7 4.1.8.3 1.3.9 1.7 1.5.9-.3 1.5.2 2.1-.4-1.2-1.1-2.5-2.1-3.3-3.6zm1.9-66.2c-.2.5-.4.9-1.1.9-.2.4-.5.8-.8 1.1-.2.2-.7.3-.9.5-.2.3-.3.8-.8.8.1.5.5.5.5 1.1 1.1.1 1.8-1.4 2.7-2 .5-.3 1.4-.9 1.4-1.7-.5 0-.6-.5-1-.7zm-1.6 4.9c-.2.3-.7.1-.9.2.1.5.1.8-.2 1.1-1.3.3-2.1 1.4-3.5 1.3-1.2 1.2-3.3 1.8-4.8 2.5-.6-.2-1.2.4-2 .5-1.1.8-2.4 1.7-3.5 2.6-.4.3-.9.7-1.4.9-.2.1-.5.1-.8.2s-.5.4-.8.6c-.8.5-1.7.9-2.4 1.6-.1 0-.1-.1-.2-.2v.4c-.3 0-.3.3-.7.2-.2.5-.7.7-1.1 1-.3.8-1.2 1.2-1.8 1.7-.4.4-.6.9-1 1.3-.3.3-.9.5-1.3.6-.1.3-.4.5-.8.5-.1.6-.5.8-.7 1.3-1.2.5-1.2 2.3-2.2 3v.4c-.3.2-.4.7-.8.8 0 .2.1.2.1.4-.8 1.5-1.5 3.2-2.6 4.5-.6 1.9-1.3 3.5-2.1 5.1-.6 2.3-1.6 4.1-2.2 6.4-1.1 1.8-1.7 4-2.2 6.3.2.3.1.5.2.8.5-.2.3-1 .8-1.1 0-.2-.1-.3-.1-.5.4-1 .9-1.8 1.1-2.9.4-.5.4-1.5.9-2 .4-1.3.7-2.7 1.4-3.8.2-.4.6-.7.8-1.1.2-.5.3-1.1.6-1.6.6-1.1 1.6-2.1 1.5-3.4.7-1 .8-2.1 1.7-2.8 0-.2 0-.4.1-.5 1-1.4 1.4-3.5 2.6-4.7 0-.2.1-.2.1-.5 1-.8 1.6-1.9 2.7-2.3.4-.7 1.1-1 1.9-1.4.2-.7.8-1.1 1.4-1.4 1.4-1.8 3.5-3.1 4.9-4.9.5-.1.7-.4 1.1-.6h.5c.8-.8 1.7-1.2 3-1.4.5-.5 1.3-.9 2-.8.2-.3.4-.5.8-.5.9-1.5 3.3-1.4 4.4-2.9h.4c.6-.8 1.6-1.2 2.5-1.7.4-.8 1.4-1 2-1.7.8-.2 1.4-.6 1.9-1.1-.5.1-.9-.1-1.3-.4zm-3.2-6c-.6.2-1.1 1-2.1.8.2.7.8.9 1.2 1.4.2.5.5.8.9 1 .3-.5.5-1 .8-1.4.3.2.6-.9.9-.2 0 1.1-1.1 1.4-.9 2.4 1.2-1 2.2-2.1 3.3-3.1-1.6-.3-3.4.7-4.1-.9zm2.5 71.1c-1.7-2.2-3.4-4.3-4.9-6.6 0-.2-.1-.2-.1-.5-.7-.5-1.3-1.2-1.6-2.1-.6-.3-.6-1-1.1-1.3-1.3-2.6-2.9-4.9-4.2-7.5-.1 0-.2 0-.2-.1-.1-.2-.2-.4-.2-.7-.1 0-.3 0-.3-.1-.5-.9-1.3-1.7-1.4-2.7-.4-.2-.8-1.5-1.2-2.3-.9 1.4-2.2 2.4-3.1 3.7.1.6.2 1.2.4 1.7 1 .7 1 2.1 1.7 3.1.2.3.5.5.7.8 1.1 2 2.1 4 3.3 6 .2 0 .3.1.4.2.7 1.3 1.5 2.4 2.3 3.6.2 1 1.3 1.2 1.5 2.2.5-.1 1.3.6 1.3 1.1.9.2 1.1 1.1 1.7 1.6.8 0 1.1.1 1.7.2-1.7-2.5-4.4-4-5.7-7.1-.7-.5-.9-1.4-1.5-2 0-.1 0-.2 0-.3-.4-.6-.9-1.1-1.1-2-1.4-1.9-2.4-4.4-3.8-6.6.1-.5-.3-.5-.5-.8-.2-1.1-1.1-1.9-1.2-3.1.1-.2.4-.2.7-.1.6 1.3 1.3 2.5 1.9 3.9.5.3.8 1 .9 1.7.3.4.7.8.8 1.5.2.2.4.2.4.6 1.5 1.4 1.9 3.9 3.3 5.4.1.1.1.3.1.5.6.3.8 1.2 1.1 1.8.4.3.7.7.9 1.3.4.4.9.6 1.1 1.2 1.6 1.2 2.8 2.9 4.1 4.3.6-.4 1.9.2 2.5-.3-.3 0-.4-.2-.7-.2zm-2.9-81.6c0 .2.1.2.1.4-.8.8-1 2.1-1.6 3 .2.4 0 .9-.2 1.1-.2 1.8-.8 3.5-.8 5.4-.2.1-.2.4-.5.4.1.4.3.6.7.8-.2-.4.1-.4.2-.6.4-2.4 1.1-4.5 2.3-6.3.4-2.1 2-3 2.8-4.7-1-.6-2.1.1-3 .5zm-2.2 17.5c-.2.4-.9.6-1.5.5-.4.3-.8.4-1.4.3-1.4.5-2.9.9-3.8 1.8-.3 0-.3.1-.5 0 0 .4-.4.6-.8.8-.9.4-1.4.5-2.2.5-.4.6-1.3 1.1-2 1.2-.5.4-.8 1-1.7 1.1-1.4 2.3-3.9 3.4-5.7 5.4-.2.1-.4.2-.7.3-.1.1-.1.3-.2.5-1.3 1-2.1 2.3-3.5 3.2v.4c-.4 0-.3.5-.3.8-.9 1.5-1.9 2.9-3.1 4.1-.6 1.7-1.7 2.8-2.4 4.4-.1 0-.3 0-.4 0 .2.4-.3.7-.4 1.1.1.3.1.8-.4.8-.1.6-.1 1.3-.8 1.4 0 .4-.1.6 0 1.1-.1.3-.5.6-.3 1-.9 1.4-1.4 3.2-2 4.8-.2 0-.2-.2-.2.1.2.9-.4 1.9-.4 2.6 0 .1-.1.1-.2.1.1.4.3.9-.2.9-.1.2.1.3.1.5-.7 1-.4 2.7.5 3.2.1-.2.1-.5.3-.6.4-3.2 2.4-5.4 2.9-8.7.5-.3.5-.9.6-1.4.4-1.5 1.4-2.7 1.7-3.9.2-.1.1.1.3-.1 0-.2 0-.5 0-.7.2.1.1-.2.3-.2.3-1.2.8-2.1 1.7-2.9.3-1.3.8-2.5 1.4-3.4.2 0 .3 0 .4-.2.4-1.2 1.3-2.6 2.3-3.4.4-1.3 1.3-2.1 2.6-2.6 2.7-3.3 6.4-5.9 10.1-7.9.1 0 .1.1.2.1.2-.6.8-.7 1.2-1.1.2-.1.2.1.4.1.1-.1 0-.4.1-.5 1.2-.7 2.2-1.7 3.7-1.7.7-.5 1.5-.8 2.3-1 .3-.3.8-.5 1.4-.5.9-1.1 2.8-1.2 3.8-2 .1 0 .1-.1.1-.2-1.3-.1-2-.1-3.3-.1zm-.9-18.2c-1.2 2.8 0 6.7-.8 10 .3.3.1 1.1.6 1.1.2-.9-.1-2.3.5-3.2.2-2.3 1-5.2 2.3-7.2-.8-.1-1.5-.7-2.6-.7zm-2.2 80.5c0-.2-.1-.2-.1-.4-2.1-1.4-3.1-3.9-4.5-6 .1 0 .1-.2 0-.1-.4 0-.7-.7-.8-1.1-.1-.2-.3-.3-.5-.5-.4-.7-.9-1.7-1.1-2.5-1.3-2.1-2.5-4.5-3.8-6.6-.5.3-.9.8-1.2 1.4.1.1.4 0 .5.1.4 1.1 1.2 2.2 1.4 3.3.6.8 1.1 1.6 1.3 2.7.2 0 .2.2.3.3-.1.3.1.4.1.7.2 0 .3 0 .4.1 1.6 3.3 4 5.9 6.3 8.6 0 .4.3.6.5.8.1.3.2.5.4.7 1.2-.2 1.9-.1 2.6-.1-.6-.4-1-1.1-1.8-1.4zm-.8-80.5c-.1 1.2-1.1 2.5-.6 3.8-.4.7.2 2.1-.3 2.8.1.1.3.2.5.3.2 1.6.7 2.9 2 3.4.2-.3 0-.3 0-.6.6-1.5.1-3 0-4.4 0-.7.4-2.5.3-3.5.3-.5.3-1.2.3-1.7-.7 0-1.5-.5-2.2-.1zm-2 33.8c-.8 1-2.4 1.2-3.2 2.2-.1 0-.2 0-.4 0-.2.6-1 .6-1.2 1.2-.1 0-.2 0-.4 0-.6 1.1-1.6 1.9-2.7 2.4-.3.4-.6 1.2-1.1 1.2-.8.8-1.4 1.8-2.4 2.4-.3.6-.5 1.3-.9 1.8-.1 0-.2 0-.3 0-.1.3-.2.6-.2 1-.5.5-1.1 1-1.4 1.7-.1.3 0 .5-.1.8-.3 1-1.2 1.9-1.4 3.1-.8.1-.4 1.4-1.2 1.6-.4 2-2.2 2.5-2.4 4.7-.4.3-.3 1-.8 1.2-.1.9-.4 1.6-1 2-.2.7-.6 1.2-1.1 1.6-.2.9-.6 1.7-1.1 2.3-.1 1.6-.7 2.7-1.1 4.3.5 0 .6.4.9.7.1-.3.4-.6.7-.8.3-1 .3-1.8 1-2.4-.1-.6.2-.9.6-1-.2-.6.3-1.2.7-1.2.2-1.4 1-2.1 1.4-3.3.2 0 .1-.4.5-.3 0-2 1.8-2.6 2.2-4.5.1-.2.4-.1.4-.3.4-1.1 1.2-1.9 1.9-2.7 0-.2-.1-.3-.1-.5.1-1 1.3-1.5 1.7-2.4.3-.8.3-1.5.8-2.3.4-.6.8-1.3 1.2-2 .2 0 .3-.2.5-.2.1-.4.4-.6.6-.9.1 0 .3 0 .3-.1-.1-.5.6-.9 1.1-1.1.2-2.2 2-3.3 3.2-4.8.5 0 .6-.5.9-.7.5.1.8-.9 1.4-.7.8-.8 1.6-1.6 2.3-2.6.1-.1.2-.1.4-.1.6-1.2 2-1.1 2.4-2.3h.4c-.1-.4 0-.4.1-.8-1.1.9-1.8 1.6-3.1 1.8zm.8-28.1c-.1 0-.3 0-.3-.1.3-1.2.1-2.4.3-3.6.1-.6.6-1.1.4-1.9-.6 0-1.3.4-1.9.6 0 .3.1.4.2.7-.6.8.3 2.2-.2 3.1.1 0 .3 0 .2.2 0 1.6.6 2.9.7 4.1.3.1.8.2 1.2.2 0-1.3-.8-2.1-.6-3.3zm-2.1 73.5c-2.3-1.7-3.3-4.6-5-6.9-.1-.2 0-.2-.1-.5-.7-.9-1.1-2-1.4-3.2-.9-.8-1-2.3-1.8-3.1-.5.7-.7 1.7-1.1 2.5 1.1 2.4 2.2 4.7 3.5 6.6.5.7.9 1.5 1.4 2.3.8 1.1 2.2 1.9 2.6 3.2.9.6 1.6 1.3 2.2 2.3.6.1 1.1 0 1.9-.2-.8-1-1.5-2.1-2.2-3zm.2-78.2c-1-.1-1.3-.1-2.2-.5-.2.2-.6.2-.7.5-.1.1.3.5.3.8 0 2.2.8 4.6 1.7 6.1.6-.2.8.2 1.2.3-.4-2.5-.7-4.5-.3-7.2zm-1.7 11c0-.5-.3-.6 0-1-2.1-.6-4.2-1.5-6-2.6.1.6.3 1 1 1.1 1.4 1.5 4.1 1.8 5 3.8.3 0 .7 0 .8.5-.1.2-.3.3-.5.1v.5c-.4.1-.7.3-.8.6.6-.1.7.1 1.1-.3.3 0 .7.3.8 0-.4-1-.7-2.1-1.4-2.7zm-7.1-3.6c0-.2.1-.2.1-.4-.6 0-1-.1-1.6-.2-1.3-.9-2.7-1.6-4.5-1.8 0-.1-.2-.1-.2-.3-.3.2-.5-.2-.9-.1 1.1 1.2 2.9 1.7 3.9 2.9.7-.1 1.1.7 1.5 1.1 1.1.3 1.7 1 2.7 1.4.1 0 .2-.1.3-.1 1.8.8 3.3 1.9 5 2.9.2-.1.5 0 .6-.2-.9-.8-1.5-1.9-3-2.1-.2-.6-1.2-.5-1.4-1.1-.3 0-.2.1-.5 0-.1-.4-.6-.4-.5-.7-.8.2-1-.9-1.5-1.3zm6.4 71.9c-.6-.2-1.3-.6-1.2-1.2-.1 0-.1.1-.2.2-.9-1.1-2-2-2.4-3.5-.2 0-.2.1-.4 0-1.2-2.4-2.5-4.6-3.7-6.9-.5.9-.9 1.6-1.4 2.5.3.6.8.9.8 1.7 1.1 1.1 1.7 2.7 2.6 3.9 1 .4 1.2 1.7 2.3 2 .5.9 1.3 1.4 2.4 1.7.1.1.1.3.2.4.5-.2.6.5 1.3.5 0-.1.1-.1.1-.2-.4-.3-.4-.6-.4-1.1zm-1.2-79.6c-.7-.2-1.7-.2-2.4.1.2 2.4 1.9 3.3 2.3 5.4.5 0 .7.2 1.1.3-.2-1.7-.9-3.4-1-5.8zm-2.3 14.1s.1 0 0 0c.1.1.2.1.2.2.3-.7 1.5-.5 2.1-.5.2.2-.4.6-.2.8.2-.1.5-.1.7-.2 0-.3-.2-.4-.2-.5.1-.2.2-.3.3-.5-1.1 0-2 .2-2.9.7zm.4.9c-.1-.1-.1-.2-.1-.4-1.6.1-3.5.6-4.6-.1-.5.1-1 .4-1.4 0-1.7.4-2.8.1-4.2-.1 0 .2-.2.2-.4.2-1.1-.2-2-.5-3.2-.4-1.5-.6-3-1.5-4.8-1.4-.4-.4-1.1-.7-1.5-.8-.1.8-.6 1.5-.3 2.4.8.1 1.3.5 2.1.5.6 0 1.1-.3 1.5-.2.9.2 1.4 1 2.1 1.2.5-.3 1-.1 1.4-.1.5 0 .9-.4 1.4-.3.2 0 .3.2.5.2.7.1 1.3-.2 2-.1 1.7.3 3.7.3 5.3 0 .2 0 .2.3.5.3 1.8-.2 3.8-.6 5.1-1.5-.4.3-.8.5-1.4.6zm-.1-11.5c.1-.6-.9-1.1-.5-2-.5-.3-.3-.8-.5-1.3-.3.1-.7.2-.9.4-1.4 0-3 1-4.3 1.7 1.4.6 3.3 1 4.5 2 .1-.6-1-.8-1.1-1.5-.7-.1-.9-.7-1.1-1.4.2 0 .4-.3.5-.1.1.1.2.2.2.5.7.3 1.2.8 1.5 1.4 1.1.1 1.1 1.3 2 1.6v.4c.3.1.4.3.8.3-.1-1.2-.7-1.5-1.1-2zm-.5 8.2c-.2 0-.2.1-.4.1-.5-.6-1.8-.5-2.3-1.2-1-.5-2.1-.8-2.6-1.8-.3 0-.8-.2-.9-.6-.2 0-.3 0-.5 0-1.4-1.2-3-1.7-4.1-3.2-.2 0-.3 0-.4-.1 0-.1 0-.2 0-.3-.7 0-.9 0-1.5.1-.4.6-.7 1.3-1.2 1.7 0 .3.2.4.3.7 0-.1.2-.1.2-.2 1.6.6 3 1.5 4.5 2.3.3.6 1 .9 1.4 1.4.5 0 1.4.2 1.9.5.3 0 .5 0 .7-.1.5.1 1.1.5 1.6.7s1.5-.3 2.1.4c.2.1.1-.2.4-.2 0 .2.3.2.2.5.3-.2.9.1 1.1-.1-.2-.1-.5-.2-.5-.6zm-.3.8c-.8.1-2.3-.7-3.2-.3 1 .4 2.8 1.1 3.7.7-.4.1-.5-.1-.5-.4zm-7.8 0c-1.5.2-3.3-.6-3.9-1.8-1.6-.4-3.1-.3-4.7-1-.9.3-1.6.8-1.9 1.7.6.3 1.6.9 2.3.6.9.5 1.9.7 2.6 1.4.5-.2 1.4.6 2.1.2.2.1.4.3.7.5.1 0 0-.3.2-.3 1.1.5 2.1-.1 3.3.5 0-.1.1-.2.2-.2.2.1.5.1.6.3 1.8-.7 4.3.3 6-.5-2.6-.6-4.8-1.3-7.5-1.4zm4.2 3.8c-.3 0-.2.4-.5.5-1.2.1-2.9.2-3.4 1.2-1.9.7-3 2.1-4.8 3.1-.2 0-.2-.3-.5-.2-.4.8-.7 1.5-1.4 2-.1.8-.7 1.1-1.1 1.6-.1.9-.8 1.5-1.3 1.7-.9 1.6-1.8 3.2-3.2 4.2-.1.4-.2.7-.4 1.1s-.6.5-.9 1c-.3.4-.4.9-.7 1.4-.7 1-2.1 2.1-2.3 3.2-.1.8.3 1.6.5 2.6 2.1-3.1 3.6-6.8 6.3-9.3 1.4-3.2 4.4-5.4 6.6-8 .2-.2.2.1.4-.1-.1-.2 0-.2 0-.5 1.6-1.3 3.5-2.4 5.2-3.6 1-.4 2.3-.8 3.2-1.5-.7-.2-1.2 0-1.7-.4zm-2.6-5.1c-.5.3-.7-.2-1.1-.3-.3-.1-.8.1-1.1-.2-.1-.5-.6-.6-.8-1.1-1.1-.1-1.3-1-2.3-1.1-.1-.3-.5-.2-.5-.6-1.1.2-1.9-.5-2.3-1.2-.9.4-1.5 1.1-2 2 1 1 3.4.5 4.4 1.5.4-.1.5.2.8.1 1.7 1.9 4.6 1.4 6.9 1.7.3 0 .7.3 1 .1-.7-.8-2.4.2-3-.9zm1.9 44.5c.1-.3.5-.3.5-.7-.4.1-.6.6-.5.7zm-2.2 19.2c-.4.3-.8.7-1 1.3 1 .1 1.3 1.2 2.3.9-.3-.8-.9-1.4-1.3-2.2zm-.8-58.3c-.1.2 0 .5-.2.7.6 0 1.1-.9.2-.7zm-.7 0c-.1-.6-.9.1-1.5-.2-.1.2-.2.4-.5.5-3.4.3-5.8 2.1-7.8 3.9-.2.1-.1 0-.3 0-.1.2-.2.4-.3.6-1.1.5-1.4 1.9-2.7 2.3-.6.9-1.5 1.7-2.4 2 0 .5-.4.6-.5 1 .7 1.3.2 2.6.1 3.8.5-.5.6-1.2 1.1-1.7.3-.3.8-.5.9-1 .3 0 .1-.3.5-.2.1-.2-.1-.2-.1-.4.6-.5 1.1-1.2 1.4-2 1.4-.7 2-2.3 3.4-3 .1-.2.1-.4.3-.5.9-.6 1.9-1.3 2.7-2 .2-.2.6-.3.7-.4.5-.5.8-1 1.4-1.4h.3c.7-.3 1.4-.9 2.3-1.1.5-.1.9-.1 1.4-.2.1 0 .1-.1.2-.2-.2.1-.4.2-.6.2zm-1.2.8c-.3.6-1.1.7-1.7.8-.1.5-.5.5-.9.7-.8 1.1-2.2 1.7-3 2.5-.1 0-.1-.1-.3-.1-.4.5-.9 1.1-1.4 1.3-.3.5-.5.9-1.1 1.1-.1.4-.3.7-.8.8.1.5-.5.2-.3.8-.4.4-1 .5-1.4.9 0 .3-.2.4-.2.8-.9.7-1.1 2-2.3 2.5.1 1.1-1 1.7-1.1 2.3-.1.4-.1.9-.2 1.3-.1.9-.6 1.8-.2 2.6.1-.3.3-.3.5-.5 0-.1 0-.3 0-.4.2-.1.3-.3.5-.4 1-2 2.3-3.8 3.7-5.4.2-.1.3-.3.5-.4 1.4-2.3 3-4.4 4.5-6.6.4-.3.8-.6 1.1-1.1 1.6-.9 2.8-1.8 4.4-2.8.5-.1.8-.4 1.1-.7-.6-.1-1.1.3-1.4 0zm-4.2-.6c.2 0 .4-.1.4-.3-.2 0-.4.1-.4.3zm-2.8-1.2c0-.1 0-.3-.2-.3-1.3.6-2.4.4-3.6-.3-.8 1.3-1.9 2.5-1.6 4.5 1.2-.6 2.5-1 3.7-1.7.2-.1.2.1.4.1 0-.5.7-.3.8-.8-1.4-.8-2.6.3-3.8.7-.2-.2-.5-.2-.6-.4 1.1-.7 2-1.4 3.2-1.4.9 0 1.7.5 2.7.2.2.1.2.4.2.7.3-.2.7.1.8-.3-.8-.2-1.1-.9-2-1zm.6 1.8c-.5.3-1.2.7-1.7.8-.6.7-1.6.9-2.1 1.4-.1 0-.1-.2-.3-.2-.9.9-2.4 1.2-3.2 2-.1 1.1.2 2.4-.2 3.3.6-.4.8-1.2 1.7-1.4.8-1 1.8-1.8 2.7-2.6 0 .1.1.1.2.1.1-1 1.3-1 1.7-1.7.3.1.4-.1.5-.2.1 0 .2.1.3.1.2-.9 1.5-.8 1.9-1.5-.6-.1-1.1.2-1.5-.1z"/><path d="m76.4 145.6c-.5.6-.9 1.3-1.9 1.4-.2.4-.8.5-.8 1.1-.2 0-.2.1-.5.1-.1.1-.1.4-.2.5-1.3 1.4-3.5 1.9-4.4 3.8-.2.1-.3.3-.5.4.1.1.1.2.1.3-1.9 1.8-4 3.4-5.4 5.7-.4.1-.5.4-.7.7-.3 0-.4.2-.6.2-.8 1.2-1.8 2.4-2.9 3.3-.9 1.9-2.7 2.9-3.4 5-1.4 1.1-1.6 3.5-3 4.6-1.2 2.3-2.4 4.6-3.8 6.7-.4-.1-.2-.7-.1-1 .1-.2.3-.3.5-.5.3-.6.5-1.4 1-1.7 0-.1 0-.3 0-.4.3 0 .3-.3.5-.4 0-1.2 1-2.7 2-3.3.1-.5.2-1.5.8-1.7-.2-.7.5-1 .5-1.7 1.1-1.3 1.9-2.9 3-4.2.2 0 .3 0 .4-.1.5-1 .8-1.8 1.7-2.3 0-.1 0-.3 0-.4.1-.1.2-.1.4-.1.1-.2.2-.3.2-.5 1.2-1.4 2.7-2.3 3.6-4 .3-.1.4-.3.6-.4.4-1.4 1.8-1.9 2.6-2.9h.3c.2-.2.3-.5.5-.8 1.1-.4 1.1-1.4 1.7-2.2.2-.1.1 0 .3 0 .8-1.5 2.8-1.9 3.8-3.3-.2 0-.4-.1-.5-.4.3-.5.5-1.2 1.1-1.4.1-1.1.4-1.4 1-2.1.3.1.3 0 .6-.1-.2 1.5-1.1 2.3-1.7 3.5.1.1.2-.3.5-.1.7-.6 1.3-1.5 2.7-1.3z"/><path d="m73 171.1c-1.2 1.1-1.5-1.5-2-2.3-.4-.4-.6-.8-.8-1.4-.3-.4-.6-.9-.8-1.5-.2-.2-.3-.4-.5-.5 0-.7-.7-1.7-1.1-2.4-.3-.8-.6-1.8-1.2-2.3-.1-.9-.6-1.3-.8-2.1.3.1.1-.2.2-.4.2 0 .3-.2.6-.2.4 2.2 2 3.4 2.5 5.6.4.5.6 1.1.8 1.7.6.6 1 1.5 1.4 2.4.8.9 1.1 2.3 1.7 3.4z"/></g></svg>