<svg enable-background="new 0 0 250.1 174.7" viewBox="0 0 250.1 174.7" xmlns="http://www.w3.org/2000/svg"><g fill="#67676b"><path d="m236.8 75.4c-1.1-.7-1.4-2.3-2.2-3.4-.3.1-.4.1-.8 0-.3-.5-.5-.9-.7-1.5-.2-.2-.2 0-.4 0-.1-.2-.2-.5-.3-.7-1.1-.4-1.6-1.5-2.6-2.1-1.4-.6-2.8-.9-4.2-1.3-.4-.1-.8-.3-1.1-.6-2.4-.6-6.1-2.3-9.1-1.2-.3 0-.7.1-.9-.1-1.9.7-3.3 2-5.3 2.6-1 .9-2.1 1.6-2.6 3-1.4.4-1.1-2.1.1-2 .4-1 1.5-1.1 2.2-1.8 1.7-.5 3.3-1.6 4.9-2.6 2.5-.7 4.5-.5 7.1-.3 1.2.1 2.4.9 3.7 1.3.2.1.4 0 .6.1 1.6.6 3.8 1.1 5.3 1.9 0 .6.7.6 1.1.8 1.5 2.8 4.9 4.2 5.2 7.9z"/><path d="m215.9 98.8c-.8-.1-.8-1-1-1.6-.7-1.4-1.7-2.7-2.8-3.7-1.9.1-3.2 1-4.7 1.4.8.9 2.4 1 3.1 2 .2 0 .4-.2.6-.2.3.3.5.7 1 .9.5-.4.6-1.2 1.1-1.6.4.1.5.2.8.2.4.9-.6 1-.8 1.6.5 1.1 2.7.5 2.5 2-.7-.1-2.2-.2-2.6-.9-1.7-.2-3-1.4-4.7-1.8-.7-.6-1.7-1-2.2-1.7-.2 0-.2.1-.3.1-.1-.8-.8-.5-.9-1.4.3-.9 1.5-.5 2.3-.7.3 0 .2.2.3.3 1.5-.5 3.1-1.4 4.8-1.1.3.4.7.8 1.3.9.3 1 1.1 1.5 1.2 2.7.8.3 1.5 1.8 1 2.6z"/><path d="m208.4 111.8c-.4.4-.3 1.2-.9 1.5.1.6-.4 1-.9 1.2-.5.9-1.6 1.5-2.5 2.2-.7.5-1.2 1.2-2.6 1-.6.3-1.6 1-2.4.6-.1-.3.1-.4.2-.5-.5-1.1-1-2.6-.9-3.8-1.3-2.1-.9-4.8-1.3-7.5-.1-.7-.4-1.4-.4-2.2 0-1.9 0-3.8 0-5.6.2.2.5 0 .6-.2-.4-.5-1.4.5-1.9-.3-.2.4-.7.4-1.1.2-.1 1.7-.5 3.6-.5 5.5-.1 1.7.6 3.7-.5 4.7-.4-.3-.3-.9-.3-1.3 0-2-.2-4.2.2-6.2.1-.7.4-1.4.4-2.2 0-.2-.3-.1-.3-.3-.9.5-2 .4-3.1.7-.9.2-1.9.6-2.8.7-.4 0-.8-.1-1.1.3 1.6.5 2 3 1.4 4.7.6.9-.3 2.4.5 3 .1.1.3 0 .4 0 .1.1.2.3.3.3.8.3 1.8 0 2.2.5.3-.2.6-.4.8-.7.4.2.8.2 1 .5-.3.9-1.9-.1-2.3.6-1.2-.3-2.1-.1-3.1-.8-.1.4-.5.5-.8.7-.1.4.2.4.5.3 0 .5.1.7 0 1.2.1.3.1.1.3.1.6 2.9 1 5.6 2.2 7.8.7-.2 1.4-.4 1.9.1.8 0 1.3-.7 2.2-.7.3 0 .6.3.9.3.8 0 1.6-.8 2.5-.7.5.1.8.4 1.4.6 0 .2-.1.4-.2.5-1.5-.1-3 1-4.7.5-1.5 1-3.9.1-5.3 1.1-.1-.1-.5 0-.6-.2-3.4 1.1-7.7.9-10.4 1.8-.8-.2-1.6.5-2.2-.3-.9.7-1.2 1.9-1.9 2.8 0 .1.1.2.2.3 1.6-.6 3.1-1.7 4.9-1 .9-1 2.7-.4 3.9-1.1.4.2.4.8.3 1.3-.3.1-.4.1-.7-.1-.8.6-2 .4-2.9.6-.2.7-1 .2-1.6.3-.8 0-1.4.4-2 .6.8 1.1 3 .7 3.9 1.6.2-.2.3 0 .5 0 .1.2.2.2.1.4.8.2 1.8.2 1.6 1.1.4-.2.5.1.9.2 0 .4.2.6 0 .9.3.1.5-.3.9 0 .6 2.8-.7 4.8-.8 7.7-.5 1-1.4 1.6-2.4 2.1-.3-.3-.7 0-1 .2-1.3-.7-3.5-.9-4.4-2.2-.2 0-.3.1-.5.1-1.7-1.5-4-1.9-5.6-3.5-.1-.4.5-.2.6-.3.7.4 1.3 1 2.3 1.1.9 1.1 2.6 1.2 3.2 2.2.3.1.3-.1.6-.1 1.1.6 2.6 1.3 3.6 1.2.9-1.8.8-4.7 1.3-6.7-.5-.4-1.1-.8-1.6-1.1s-1.3-.5-1.9-.9c-.3-.2-.4-.5-.7-.6-.4-.2-1 0-1.5-.2-.6-.2-1.4-1-2.7-.8-.3-.4-1-.4-1.3-.8 0-.3 0-.6-.1-.8.5-.5.8-1.1 1.4-1.5.3-1.3 1.4-1.8 2.2-2.8.2-1.2 1.3-1.4 1.7-2.4.6-.1.7-.7 1.1-.9.2-1.1 1.1-1.8 2.1-2.3.1-.2.1-.6.5-.5-.1-1.1.7-1.5 1.4-1.4.4.8-.4 1.8-.7 2.5-.3 0-.6 0-.7-.1-1.4 1.1-2.4 2.5-3.4 4 .5.3 1.3-.2 1.7 0 0-.3.3-.2.4-.3.6-.4.9-1.2 1.6-1.6 0-.6.6-1.2.9-1.6.4-.7.5-1.7 1.1-2.1-.1-1.5 1.4-2.1 1.9-3.3 0-.3-.3-.4-.3-.7-.6-.1-1.3-.1-1.4-.6-1 .2-1.9-1.6-2.3-2.9-.6-2-.8-5.2.8-6.4.3 0 .5-.2.7 0-.2.6-.6.8-.8 1.6-.1.7 0 1.7-.3 2.2.3.9.5 1.9.5 3 .2.3.4.7.8.8.2 1.3 1.6 1.2 2.2 2.2.3-.3.6 0 .9.1 1.6-1.5 2.8-4.1 2.1-6.9 0-.3.4-.2.4-.5.1-2-1-2.8-2.1-3.6-1.4-.2-2.4.8-4.1.6-2 .6-3.6 1.1-5.5 1.8-.1 0 0 .3-.2.3-.3.2-.4-.1-.6.1-.6 1-1 2.1-2.2 2.4-.1-.2-.1-.5-.3-.7.3-.4.8-.6.9-1.2.2 0 .2.1.3.1-.2-.6.4-1 .6-1.5.3 0 .2.2.3.3.2-.2.1-.6.3-.7.6.2.9-.6 1.6-.3 2.3-1.4 5.2-1.4 7.8-2.2.7.2 1.8-.6 2.5-.2 1.4-.5 2.4-.6 4.2-.8 1.1-.6 2.4-.4 3.5-.8.6.4 1.3-.3 1.7.3.8-.5 2.6-.1 3.4-1 .8.1 1.7-.6 2.6 0 .2-.3.6 0 .8-.3.5.1.7.2 1.1.2.4.4 1.3.2 1.6.9 1.3 0 2.1 1.5 3.4 1.5.9.9 2.8 1.3 2.8 2.8-.5.2-1-.3-1.2-.8-.9-.4-1.7-1.4-2.7-1.2-1-1.2-2.5-1.6-4-2.5-1.1-.1-1.7.4-2.6.1-1.6.2-2.4.7-3.7 1-.5 1.4.4 2.9-.1 4.3 0 .3.2.2.3.4-.5 2.7.9 4.9.4 7.5.8 2 1.3 4.2 1.8 6.5.6.1 1.1-.5 1.6-.6.1 0 .4.2.5.2 1-.2 2.1-1.6 3-2.2.6-.4 1-1 1.6-1.4.3-1 1.2-1.3 1.9-1.8-.1-.4.2-.4.2-.7.5-.1.6-.8.9-1.1-.1-.3-.1-.4 0-.8 1.2-1.7 2.6-3.3 3.4-5.4 0-.1-.1-.1-.1-.3-.3 0-.4-.5-.9-.6 0-.1 0-.2-.1-.3.3-.6 1.1 0 1.4-.2.2.3.3.6.2.9.2.1.5.2.5.6-.1.4-.3.7-.6.9-.2 1.8-1.6 2.4-2.1 4-.2 0-.2.2-.4.1-.3 1.3-1.3 2-1.7 3.2-.5-.1-.3.4-.8.3.4.4.5.2.4.1zm-21.8-1.6c-.3-.1-.7.5-.9.8.1 1.8.5 3.3.7 4.9.6.8 1.2 1.7 1.3 2.9.5-.2.9 0 1.2.3-1-2.6-1.8-6-2.3-8.9zm-1.5 1.9c-.4.2-.4.7-.8.9-.2 0-.1-.3-.3-.3 0 .3-.4.4-.4.7.2.5-.2 1-.6 1.1-.1.9-.4 1.3-.6 2.1.3.3.8.5.9 1 1.6.3 2.5 1.3 4.1 1.6-1.2-1.9-2.4-3.9-2.3-7.1zm-3.2 5.5c-.6.4-.7 1.4-1 2.1-.3 0-.4.2-.3.5 1.8-.4 3.1 0 4.5-.9-1.2-.4-2.3-1-3.2-1.7zm.3 16.3c.4-.5 1-3.2-.4-2.9-.6.1-.5.9-.7 1.6-.3 1.1-.6 2.7-.9 3.4.3.4 0 1.2 0 1.8.4.1.8-.4 1.1-.7.2 0 .2.3.4.3 0-1.2.4-2.4.5-3.5zm-3.1-6.4c-.6-.1-1.2-.1-1.9-.1 0-.2-.1-.3-.2-.4-1.2.1-2.1-.8-3.4-.9-.2-.5-.6-.7-1-.9-.2.5-1 .8-.6 1.6 2.1-.4 3.1 1 5 1.2.2.3.5.4.6.7.4 0 .3.3.8.2.1.1.1.4.2.5.3 0 .2-.3.5-.2.3.5 1.2.4 1.4 1 .6.1 1-.5 1.6-.4-.5-1.2-2.1-1.4-3-2.3z"/><path d="m211.9 91.4c-1.4-.1-2.4.7-4.1.3-.4-.1-.4.3-.6.3-1.8-.1-3.5.5-5.6.6-.9 1-3-.1-3.4 1.4-.1-.1-.2-.1-.3 0-.3 0-.3-.3-.4-.4-2.4.4-4.1 1-6.4.9-.1.1-.2.2-.3.3-2-.1-3.8.6-5.7.6-.1.3.3.1.2.3-.3.2-.4-.1-.5-.3-.7.3-1.3.7-1.9.3-.3 0-.3.3-.5.3-.3 0-.5 0-.7-.1-.3.1-.3.4-.8.2-.2.3-1 .5-1.4.4-.2.3-.6.2-1 .3-1.7 1-3.5 2-5.2 3-.2.1-.2.4-.3.5-.5-.4-.5.7-1.2.6-.3.9-.5 1.9-1.4 2.2-.2.4-.2.9-.8.9 0 .4-.2.4-.3.8-.1.1-.4.1-.5.2-.3.7-1 1-1.6.9-.3-.1-.4-.5-.7-.7-.8-.5-1.6-.4-2.3-.7-.1-.5.3-.6.5-.9 1.2.2 2.4.4 3.3 1.4 1-1.6 2.6-2.8 3.4-4.6.3-.3.8-.6 1.1-.5.8-1 1.6-2 2.7-2.8.2 0 .2.2.4.2 2-1.4 4.4-1.8 7.1-2.6-.1-2 1-3.8 1.2-5.6-1.3 2-2.3 4.3-4.4 5.5-.3-.2.2-.5.1-.9 1.5-1.3 2.3-3.3 3.4-4.9 0-.5.1-1 .5-1.1 1.1-2.4 2-5 3.2-7.4.6-4.1 3-6.4 3.5-10.6.3-.3.5-.8.5-1.4.4-.2.4-.6.6-.9 1.7-.3 3.7-.5 4.7.9 1.2-.7 2.3.5 3.4.8.1.2.1.5.3.7.2-.1.4-.1.7 0 1.1.9 2.2 1.7 3.1 2.7v.3c1.5 1 1.7 3.2 3 4.4-.2 1 .5 1.1.9 1.6 0 1 .5 1.4.9 1.9.6 1.1.9 2.4 1.7 3.2.6 1.4 1.1 2.9 1.8 4.1.1.2-.1.2-.1.4.2.4.7.6.7 1.3h.3c.3 1.2-.5 1.2-.8 1.7zm-6.3-.3c2-.3 4.4-.1 6.1-1.3-1.4-3-2.9-5.8-4.2-8.9-1.3-1.2-1.5-3.5-2.8-4.7-.8.4-.9 1.4-1.6 1.6-.1.3 0 .3 0 .7-1.1 1.3-1.3 3.5-2.7 4.5-.1.6-.1 1.1-.2 1.6-.1.7-.6 1.2-.7 2s0 1.7-.2 2.4c-.2 1-.9 2.1-.7 3.2.8.2 1.6-.5 2.3-.1.5-.3 1.2-.8 1.7-.4.5-.6 1.9-.6 2.5-.3.3-.1.2-.3.5-.3zm-7.5-.7c0-.1.3-.2.3-.3.4-1.1.2-2.4.4-3.6.1-.8.6-1.5.6-2.3.2 0 .1-.3.3-.3 0-1.2.9-1.6 1-2.7.3.1.2-.1.3-.2.1-.3-.1-.3-.1-.5.1-.2.4-.2.4-.4 0-.1 0-.3 0-.4 1.1-1.2 1.4-3.1 2.8-4.2-.5-.8-.8-1.9-1.6-2.4-.2.6-.8 1.1-1.3.4.1-.4.3-.8.5-1.2-.8-.5-1.3-1.3-2.4-1.6-.1-.1-.1-.2-.1-.4-1.2-.3-1.8-1-2.9-1.1 0 .7-.4.9-.8 1.2-.2.6-.4 1.2-1 1.5-.4.9-.8 1.8-1.5 2.4-.3 1.7-1.5 2.5-2.1 3.8-.4.8-.4 1.7-1.2 2.2-.8 2.3-1.5 4.5-2.5 6.6-.3.9-.2 1.8-.4 2.7-.1.2-.3.3-.4.5-.1.3-.1.9-.3 1.2-.5 1-.5 2.1-.7 3.3 2.8-.3 5.9-.6 8.9-1.3-.1-3.8 1.3-6.3 2.1-9.5.3-.4.7-1.3.9-1.9.2-.7.3-1.2.6-1.8.4-.9.9-1.6 1.4-2.6.6-1.1.8-2.8 2.2-3.3.4.6-.1 1.4-.5 1.7-.5 1.8-1.4 2.9-2.2 4.1-1.1 4.6-2.9 7.9-3.4 13 1-.2 1.7-.2 2.3-.5.3-.8.2-1.5.4-2.1zm-4.5-17.9c.3-1 .6-1.8 1.6-2.2 0-.7.5-.8.4-1.6-1.1-.7-2.2-.4-3.5-.3-.5 1.5-.9 2.6-1.2 4.3-.1.1-.5 0-.6.2 0 .4-.2.6 0 .9-.5.5-.5 1.6-1.1 1.9-.8 2.5-1.7 4.5-2.3 7.2-.3 0-.2.5-.6.3.9 1.4-.4 2.1-.8 3.4-.1.2-.1.7-.2 1-.3 2.5-1.1 5.2-1.8 7.2.5-.1 1.3 0 1.6-.3-.2 0-.4 0-.3-.3.5-1 .1-2.2.8-3 0-.3-.3-.2-.2-.5.5-1.4 1.2-3.1 1.4-4.7 1.2-1.9 1.4-4.7 2.8-6.3 0-.7.4-1.1.8-1.4 0-.3-.2-.3-.1-.6.7-.4.5-1.8 1.5-2 .2-.9.6-1.5 1.2-1.9-.2-.5.2-1.1.6-1.3z"/><path d="m181.1 86.1c.1-.8.5-1.3 1-1.7-.1-.4.3-.5.2-.9 1.5-2.7 2.2-6.3 3.8-9 0-.4.1-.6.3-.8.1-.1.1 0 .3 0 .1.7-.9 1.8-.6 2.5-.5 1.4-1.4 2.7-1.7 4.5-.2 0-.2.2-.3.3-.6 1.8-1.4 4.1-3 5.1z"/><path d="m176.5 93.6c-.1-.5.3-.5.2-1 1.1-1 1.9-2.4 3-3.4.3.8-.4 1.8-1 2.3-.3 1.1-1 2.3-2.2 2.1z"/><path d="m178.3 110.2c-.3 0-.3-.1-.5-.2.1-.2.3-.3.5-.3.1.2 0 .3 0 .5z"/><path d="m177.9 136.4c-.9-.1-1.4-.7-2-1.1-.8.3-1.2-.5-2.2-.5-.1-.1-.1-.2-.1-.4-.1.1-.2.1-.4.1-.5-1-2.5-.4-2.2-2 1.8-.2 2.8 1.5 4.3 1.6.2.5.7.2 1.1.3.1.1.1.2.1.4.3 0 1.7.2 1.6.9.1.4-.2.2-.2.7z"/><path d="m177.6 131.4c0 .5-.3.7-.3 1.1-.7 0-.7-.6-1.2-.8-.1.1-.1.2-.2.3-1.6-.2-2-1.3-4-1.4-.3.1-.2-.2-.3-.3-.1.1-.3.3-.4.3.1.3.2.6.2 1-.1.1-.4.2-.7.2-.2-.7-.3-2.4.3-2.6 1 .5 2.3.2 3.4.9 0 .2-.1.2-.1.3.7-.1 1.5.2 1.9.6.5 0 .8.3 1.4.4z"/><path d="m172.9 62.5c.1.3-.4.1-.3.3-.9-.1-1.5-.9-2.4-.7-.1-.3-.5-.2-.4-.5-1.5-.2-3.4-.8-5-.6-.2-.2-.5-.2-.7-.4-.3 0-.6 0-.9.1-.6-.9-2 .2-2.8-.8.1-.6.8-.6 1.2-.6 1.2 0 2.7.6 4.1.8.7.1 1.4-.2 1.9.3.3-.2.6.1 1 0 .1.2.4.2.5.3 1.8 0 2.5 1.1 3.8 1.4-.1.2.1.2 0 .4z"/><path d="m167.7 63.4c.5-.3 1.5-.7 1.8-.2 0 .4-.2.4-.3.8-.6.3-1.6.4-2.2.3-.4 0-1.6.3-1.6-.5-.1-.9 1.6-.6 2.3-.4z"/><path d="m168.2 132.5c-.9-.7-.3-2.9-.3-3.8.9.1.4 1.6.5 2.3 0 .6.4 1.1-.2 1.5z"/><path d="m164.6 63.3c-1-.4-3.1.4-3.5-1.3.5.1.7 0 .9-.3.4.1 1 .2 1.1.6.5 0 .9 0 1 .3.2-.1.1-.4.4-.3.2.5.5.6.1 1z"/><path d="m158.2 64.8c-.5.9-2.3.5-3.7.7-.6.1-1.1.4-1.6.4-.2 0-.7.1-.9.1-2.3.2-4.3.9-6.2.9-2.2.7-4.9 1-7.6 1.2-4.1 1-8.2 1.3-12 2.2-.2 0-.4.2-.5.3-3.2.4-5.8 1.5-8.7 1.9-.7.4-1.3.7-2.1.3-.1-.2.2-.4 0-.5 1.1-.8 2.2-1.4 3.9-1.4 1.7-.7 3.1-.9 5.5-1.3 0 .2.1.3.2.4.4-.2.9-1.1 1.4-.6.4-.8 1.2 0 1.6-.6.5.4 1.3-.7 2.1-.3.7-.4 1.4-.2 2-.5.2 0 .1.2.3.2.4-.2 1-.5 1.6-.3 1.4-.7 2.7-.3 4.2-.9.2 0 .1.3.2.3.7-.1 1.1-.2 1.9-.6.2 0 .2.1.2.3.4 0 .7-.3.9.2.4-.3.8-.5 1.3-.3.2-.1.2-.3.3-.4.4.2.6.1.9-.2 1.2.3 2.7-.3 3.9-.7.2.1.4.1.4.3.3-.5.7-.1.9-.5.2 0 .1.3.3.3.8-.7 2.2-1.1 3.1-.6.4-.5 1.3.3 1.7-.4.1 0 .2.1.2.3.3-.3.8-.4 1.1-.6.6.7 1.6-.1 2.3 0 .3.1.4.6.9.4z"/><path d="m151.3 40.5c-.6.1-.9-.2-1.4-.3-.1-.4-.1-.6.1-.9.6.1 1.8.4 1.3 1.2z"/><path d="m149.5 127.8v.2c-.3.6-1 .4-1.6.8-.3-.1-.4 0-.7 0-1.5.4-3 1.1-4.6 1.4-.9.2-1.8 0-2.8.2-3.6.5-6.2 1.6-9.9 1.9-1.4.1-2.7.9-4.1.8-.1.1-.3.1-.3.3-2.3.3-4.5.8-6.6 1.3-.5.1-1.1.4-1.6.5s-1 .2-1.5.3c-2.2.4-4.5.7-6.7 1.3-.3-.1-.7.1-.9-.1-2.1.6-5.3 1.1-7.7 1.4-.7.6-2.2.4-3.2.6-.9.2-1.8.5-2.8.6-1.8.2-3.5.8-5.5.9-.4.5-1.7.3-2.4.7-1.5 0-2.8.6-4.2.9-.4.1-.9 0-1.2 0-1.3.1-2.6.8-4 .8-.3 0-.5-.1-.8-.1-.5.1-.9.4-1.4.5-.4.1-.8-.1-1.3-.1-1.9 0-4.1.5-5.8.1-.6-.1-1.3-.6-2.2-.6-.6-.8-1.9-.9-3.1-1-.2-.2-.5-.4-.5-.8 1.7.2 3 .5 4.2 1.3.9-.6 1.9.1 3 .2.4 0 .8-.2 1.2-.2.2 0 .2.2.3.3.2 0 .1-.1.3-.2.2 0 .6.2.7.2 1 0 2.1-.3 2.9 0 2.5-.6 5.1-1 8.2-1.3.4-.2 1.1-.8 1.5-.4.8-.7 2.7-.3 3.7-.9.2 0 .5-.1.5.1.8-.5 2-.6 2.9-.7.3 0 .9-.1.9-.4.9-.1 1.9.1 2.9-.3 2.1-.7 4.5-.8 6.5-1.5.5.2.8-.3 1.1 0 .3-.5.8-.2 1.2-.3 1.3-.1 2.4-.5 3.6-.8.2 0 .3 0 .4.1.2-.1.5-.1.7-.3.7.1 1.4-.2 2.3-.3 1.7-.2 3.6-1.2 5.3-.9 1.3-.7 2.3-.7 4-1 .6-.4 1.9-.6 2.3-.3.4-.5.9-.4 1.6-.4.6 0 2-.8 3.1-.9.2 0 .4.1.5.1.6-.1 1.1-.4 1.6-.4 1.6-.1 3-.3 4.2-.8.2 0 .3.1.4.2 1.1-.6 2.4-.4 3.4-.9 1.5-.4 2.7-.3 4.1-.5 1.8-.3 3.5-1.1 5.3-1.4 1.2-.4 2-.4 2.6-.2z"/><path d="m193.8 64.4c.3.2-.2 1.1-.8.9.2-.3.7-.4.8-.9z"/><path d="m144.3 10.3c.1.3.2-.1.3-.2 1 1.4 2.4 2.4 3.1 4.1-.3 0-.5.2-.9.1.1-.3-.3-.1-.2-.4-1.1-1-1.8-2.5-3-3.4-.1.1-.2.1-.4.1-.1-.2-.2-.3-.3-.4-1.1.1-2.3 1.2-3.3.5-.6 1.4-2.9 1-3.7 2.2-.2 0-.4 0-.6 0-.5.3-1 .6-1.5.7-1 1-2.1 1.5-3.9 1.6-.6-.9-1.3-2-1.5-3 .2-.2.3-.4.4-.6-.2-.4-.1-1.8.4-1.7.5-1.3 2.3-1.3 3.3-2.1.2 0 .2.1.3.1.1-.1.2-.2.2-.3.3.2.6-.2.9-.3s.8 0 1.1-.2c.9-.4 1.5-1.4 2.5-1.4.1.2.4.2.4.5-.7.3-1.3 1-2 .9-.5.7-1.4 1-2.2.9-.7.2-1.1 1.1-1.8.9-.5.6-1.5.4-1.8 1.2-.1 0-.2 0-.3 0-.3.5-.2 1.5-.7 1.8.1.2.2.3.2.6.8.2.8 1.2 1.1 1.9 1.4-.2 2.2-1.5 3.6-1.6 1.2-1 3.4-1.5 5-2.4 0-.4-.2-.7-.1-1.1-.7-.6-.7-2.2.1-2.7 0-.4-.4 0-.4-.4.1-.4.5-.2.2-.6.2-.1.4-.3.8-.3 0 .2.2.4.2.7s-.1 0-.3.3c-.1.2.1.8 0 1.3 0 .1-.3.4-.3.4.1.7.9 2.1 1.7 1.6.1-.1.1-.3.2-.4 1.4-.5 2.3.6 3.2 1.1.2 0 0-.1 0 0z"/><path d="m142.3 40.9c-.9-.3-.1-1.7-.1-2.3-.4-1.1-.3-3.1-.8-4.3.1-.3.5 0 .3-.5.7.3.7 1.3 1 1.9.5-.8.2-2.4.4-3.4-.7-1.8-1.8-3.6-2.2-5.3-.5-.2-.4-.9-.9-1.1-.5-2-1.7-4.2-1.2-6 .2-.1.4.3.4.1.3 1.2.7 2.4.8 3.6.4.6.9 1.5.9 2.2 1 1.1 1.3 2.9 2.3 4 .4-1-.3-2.4-.5-3.6-.2-1.8-.6-3.5-.9-5 .4.1.3-.3.7-.2.6.6.4 2 1 2.5.3-1.4.2-3.2.3-4.9-.3-.3-.5-.4-.7-1-.1-.5-.7-1-.7-1.2-.1-.4.5-2 .8-2.2.7-.1.9.2 1.4.6 0 .6.4 1 .4 1.9 0 .5-.3 1-.3 1.6-.1 1.4.1 2.3 0 3.6 0 .3-.2.6-.3.9-.1.6.2 1.2.2 1.8 0 .9-.3 1.9-.3 2.8-.4 4.5-.3 9.5-2 13.5zm1.2-25.6c.1.6 0 1.3.6 1.3-.1-.7-.1-1.2-.6-1.3z"/><path d="m141.6 46.5c0-.2.1-.2.1-.3-.8 0-.3-.8-.1-1.3.3-.1.4.1.8 0-.3.6.4 1.7-.8 1.6z"/><path d="m140.7 45.5c-.3-.1-.3-.6-.7-.7 0-.8.4-1.2.7-1.6.4.4.4-.1.9-.1-.1.8-.3 1.8-.9 2.4z"/><path d="m141.2 38v.5c-.5 0-1.6.8-2.2.3-1.2.7-2.4 1.3-3.9 2 .1-1.2 1.3-1.4 2-2.1 1.2-.1 2.5-1.1 4.1-.7z"/><path d="m139.2 42c-.3-.1-.3.1-.5.1-.1-.3-.3-.5-.5-.7 0-.3.1-.5.2-.8.3.1.5-.1.8-.1.4.4.1.9 0 1.5z"/><path d="m130.5 51.4c-.4.3-1.3.3-1.2-.4.3-.3 1.4-.4 1.2.4z"/><path d="m127.1 49.1c-.2 0-.3 0-.5 0-.7-.7-.6-2-.3-2.9.4.3.3-.4.7-.3.3.9.3 2.3.1 3.2z"/><path d="m125.3 51c-.2.1-.6.1-.8.2-.7-.7-.8-1.6-.5-2.6.8.1.8 1.1 1 1.8.4-.1.2.4.3.6z"/><path d="m120.7 45.8c-.3.4-.6.1-1 .3-.2 0 .1.3 0 .5-.7.3-2.2.8-2.9.3-.2-.1-.7-.9-.6-1.2.1-.8 2.3-.9 3.1-.9 0 .1.1.2.2.3.5-.2 1 .2 1.2.7zm-3.4-.1c-.1.3.1.4.1.6.7-.2 1.7 0 2.1-.3-.5-.3-1.5-.7-2.2-.3z"/><path d="m115.1 56.8c-.3.1-.5 0-.6.1-.5-.3-.3-.8 0-1.1.6-.1.9.4.6 1z"/><path d="m112.9 57.5c-.3-.1-.6-.2-.8-.5.3-1.1 1.8-.2.8.5z"/><path d="m112.9 59c-.6.1-.8-.1-.9-.7.6-.6 1.5-.2.9.7z"/><path d="m111.5 73.5c0 .2-.1.2-.1.3-1.2.8-2.9 1-4.4 1-.2 0-.1.3-.3.3-.9-.5-1.7.5-2.3-.1-.2.1-.2.2-.3.4-1.2.2-2.8.9-3.9.7-.2 0-.1.3-.3.4-.2 0-.3 0-.3-.2-.2.1-.2.4-.3.5-.8.1-1.5.5-2 .3-1 1.1-3.1.7-4.3 1.7-.2 0-.3 0-.4-.1 0 .2-.5.3-.6.1-.8.7-2.2.7-2.8 1.3-.1-.1-.2-.2-.3-.3-.7.3-2.2.8-2.8 1-.3-.2-.5 0-.8.1 0-.2-.2-.2-.1-.4.4.2.4-.1.9-.1.5-1 2.1-.8 2.8-1.5.2 0 .4 0 .4.2.2-.1.2-.5.3-.6.2.1.3 0 .4.3.2-.6.9-.4 1.1-.9.3-.1.2.2.4.2.6 0 1-.5 1.5-.7.2-.1.6 0 .8 0 .5-.1 1.3-.6 2.1-.9.7-.2 1.4-.5 2-.6.9-.2 1.9-.1 2.8-.3.5-.1 1-.7 1.6-.3.8-.4 1.5-.5 2.4-.8.6-.2 1.1-.5 1.9-.5 1.6-.1 2.8-1.1 3.9-.6.1-.2.5-.1.5-.3.1.2.4.2.5.4z"/><path d="m110.3 58.9c0-.3-.3-.4-.2-.8.2-.3.6-.3.9-.4.4.5-.1 1.4-.7 1.2z"/><path d="m110.6 56.4c0 1.2-1.1 1.6-1.3.3.3-.4.6-.6 1-.8 0 .3-.3.2-.2.6.3.1.2-.2.5-.1z"/><path d="m108.1 42.1c-.9-.5-.3-1.8-.3-2.5.2-2.3.1-4.9.1-7.2 0-.4.2-.9.2-1.3-.1-2.4-.7-5-.2-7.1.4.1.3.7.6.9-.1.2 0 .7-.2.9.5 1.7.1 3.8.3 5.6.3 3.7.1 7.6-.5 10.7z"/><path d="m105.4 54.8c-1.1.1-1-.9-1.4-1.6.2-.2.5-.3.9-.3.4.5.9 1.3.5 1.9z"/><path d="m103.8 50.3c-.6.3-.7-1.1-.6-1.8.1-1.2.6-3.3 1.3-3.4.3 1-.3 2.2-.3 3.4-.1.7.2 1.4-.4 1.8z"/><path d="m93.9 54.4c-.2 1.1-.5 1.8-1 2.7-.3.1-.4-.1-.6-.2.3-1 .7-1.8 1.2-2.6.2 0 .1.2.4.1z"/><path d="m90.8 56.9c-.1-1.1.6-2.1.9-3.1.1 0 .1.1.3.1 0 1-.2 2.7-1.2 3z"/><path d="m82 63.9c.6.1.7 1 0 1-.5-.1-.5-.9 0-1z"/><path d="m80.7 62.3c.1-.3 0-.5.1-.8.8-.4.9 1.3-.1.8z"/><path d="m79.8 57.9c-.4.1-.5.3-1 .2 0-1.9.1-3.8 1-5h.3c-.2 1.6-.6 2.9-.3 4.8z"/><path d="m78.8 62.4c-.2-.2-.2-.5-.3-.8.2-.1.3-.2.4-.3.7.2.8 1.2-.1 1.1z"/><path d="m75.1 37.8c-.1.2-.1.5-.2.8-.6 0-.4-.7-.9-.7-1 .6-1.3 1.9-2.5 2.2-.1.2-.1.5-.3.7-1.9.7-.5 3.8-.1 5.2-.2.3-1 .2-1.1-.1 0-1.2-.9-2.4-.8-3.7.1-1.5 1.6-1.7 2.1-2.8 1.1-.3 1.6-1.9 2.9-2.2.4.1.4.6.9.6z"/><path d="m73.8 59.6c.1.7-1.1 1.5-1.6 1-.7-.7.7-1.6 1.6-1z"/><path d="m73 44.6c-.3.6-.6 1.2-1.4 1.3-.5-.8.8-1.9 1.4-1.3z"/><path d="m72.9 41.1c-.2.6-.1 1.1-.3 1.7-.4.2-.4-.1-.7-.3 0-.7.2-1.4 1-1.4z"/><path d="m64.8 68.2c-.6.8-1.3 1-2.5 1.1-.2-.4-.5-.4-.9-.5.6-.7 1.8-.9 3-1 .1.1.2.3.4.4z"/><path d="m61 62.9c-.4 0-.7-.2-.8-.6.6.1.1-.4.3-.6 1-.1.9.9.5 1.2z"/><path d="m59.2 42.8c.3.8-.5 1.4-1 2-.1 0-.2 0-.3 0 .3-1.4 1.6-2.4 2.2-3.7.1.4-.5 1.4-.9 1.7z"/><path d="m58.6 58.5c0-.5.2-.7.8-.6.6.6-.4.8-.8.6z"/><path d="m59.3 60.3v.7c-.4-.2-.6.1-.9-.1.1-.5.5-.8.9-.6z"/><path d="m55.2 85.6v.4c-1.2.4-2.4.5-3.4-.1-.9.5-2-.9-2.9-.3-1.1-.4-2.3-.6-3.3-.9 0-.3-.1-.4-.1-.8 1.1-.3 2.4.2 3.5.7.6-.3 1 .1 1.6.3 1.5.4 3.4.1 4.6.7z"/><path d="m47.6 47.9c-.1-.4.1-.6.3-.7 1.2.8 2.8.1 3.7 1.1-.3 1.1-1.4.1-2-.1-.7-.2-1.5 0-2-.3z"/><path d="m50.4 50.1c-.3.1-1.1.4-1.6-.1-.5.5-2.1 0-2.2-.7.2-.1.2-.3.3-.4 1.6.3 2 .8 3.4.6.2.2.3.3.1.6z"/><path d="m49.8 43.1c-.5-.1-.8 0-1.3-.2-.2.1-.3.3-.4.4-1.3-.4-1.6 1.2-2.6.8-1.2.7-2.4 1.5-3.8 2-1 1.4-.8 3.2-.3 4.9 0 .3-.2.3-.3.5.1.3.3 1.1.1 1.5-.7-.4-.4-1.5-.6-2.3s-.6-1.5-1-1.9c-1.4 1-2.8 1.5-3.9 3v.9c0 .3-.3.3-.3.4 0 .4.2.6.3.9 0 .3-.5.1-.6.3 0 .2 0 .5-.1.6-.4.1-.5.1-.8-.2-.1-.5.2-.5.3-.9-.2-.9-.9-1.3-1.3-2-.1 0-.4-.1-.4.1-.5-.4-.8-.9-1.4-1.1-.1-.3-.2-.7-.6-.8-.9-1.9-1.9-3.6-2.4-5.9-.2-.4-.7-.8-.4-1.5 0-.2-.3-.2-.5-.3.1-1.1-1-2.3-.9-3.1-.1-.3-.4-.2-.6-.4-.3-1.1-.9-1.9-1-3.1-.2-.1-.2-.2-.4-.1 0-.6-.5-.6-.5-1.2-.7-.2-1.3-1.8-2-2.4-.1-.1-.3 0-.4-.1-.4-.3-.7-1.3 0-1.7.6.1 1 .5 1.6.3.4.5 1 .8 1.8 1 .9 1 1.4 2.3 2.2 3.3 0 .2-.1.3-.1.6 0 .4.4.3.4.6 0 .4-.2.5-.5.6-.9-1.3-.9-3.5-2.5-4.1-.2-.6-1-1-1.6-.9.1.7.8.9.8 1.7.3 0 1 .6.8 1.1.1.2.2-.1.3.1 1 1.7 2 3.8 2.3 5.9 0 .2.1.2.3.2.1 1.2 1 1.4 1 2.6.4.4.4 1.2.7 1.7 1 .7.8 2.6 1.6 3.6 0 .1.1 0 .3 0 .2 1.5 1.1 2.3 2.1 2.9-.1-1.1-2.3-2.1-2.2-3.9 0-.4.2-.5.4-.8-.2-3.4 1.8-6.1.6-9.1-1.3 1.7-1.2 4.2-1 6.2-.4 0-.4.4-.6.6-1.5-1.4-2-3.8-2.8-5.9.2-.1.3-.3.6-.3.6 1 1.3 2 1.6 3.2.4-1.9.8-4.2 1.6-6.2.4 0 .4.3.5-.1.2 1 1 1.8.9 2.8.1.2.3.2.3.3-.1 1.6.2 3.6-.7 4.8-.1.3.1.3.1.5-.8 1.1-.3 2.8-.4 4-.1.7.1 1.7.8 2.5.4.5 1.1.7 1.4 1.2.7-1 .8-2.7.9-4.3.2.2.5.3.7.4.1.9.2 1.9.1 2.9 1.1-.7 1.9-1.7 2.8-2.5-.7-.7-.6-2-.4-3.4.1-1.2-.2-2.5.3-3.2.3.1.4-.1.7-.1.3.3.7.5 1 .8-.2.8.3 1.1.4 1.6.1-1.1-.7-2.5-.5-3.4-.7-2.6.3-6.3 2.8-6 1 .7.5 2.4.7 3.2-.9.7-1 2.1-1.4 3l.3.3c.8-1.1 1.6-2.3 3.1-2.4 1 1.5.1 3.6-.9 5 1.8.2 2.5-1.2 4.7-1.1.6.4.2.7.2 1.1zm-3.9-3.9c-1.9.5-3 2.5-4.1 4.1.4.5-.3 1.2.1 1.8 1.9-1.3 4-2.9 4-5.9zm-2.7-3.9c-.3-.3-.7-.3-1.2-.3-1.4 1.8-1.2 4.5-.5 6.9.3-2.7 1.6-3.9 1.7-6.6zm-2.8 8.7c-.2-.9-.5-2.5-1.5-2 .4 1.7-.8 5 1 5.9.5-1.2.9-2.6.5-3.9z"/><path d="m45.2 135.8c-.4.3-1.1.3-1.5.6-.1-.4 1.1-.6 1.5-.6z"/><path d="m41 57.6c.1-.5-.1-1.4.6-1.4.5.4.2 1.8-.6 1.4z"/><path d="m39.3 100.6c.1.5-.2.7-.5.9-.6-.3 0-1.3.5-.9z"/><path d="m38.3 80.3c-.5.1-.6 0-.9-.3.1-.3.3-.6.6-.4-.1.5.4.3.3.7z"/><path d="m38.2 52.2c0 1.3-.2 2.1-.2 3.6-.2.1-.5.2-.8.2-.6-1.2-.5-3.1.3-4.1.3.2.4.3.7.3z"/><path d="m37.6 113.1c-.5-.1-.3-.8-.2-1.1-.4-1.8-1-3.6-1.8-5.2-.5-.6-2-1.1-1.4-2.2 1.9.2 2.4 2.3 3 4.1.4.8 1.6 3.9.4 4.4z"/><path d="m21 95.8c.9-.2 1.6.6 2.3.6 2.2.1 4.3 1.7 6.9 1.6.2.8 1.2.2 1.6.9.7-.4 1.3.4 1.8.2.8.9 2.1.5 3.1 1.3.7-.3 1.5.3 1 .9-1.7 0-2.9-1.2-4.5-1.3 0-.1-.1-.2-.2-.3-.9.3-2-.5-3-.7-1.8-.4-3.6-.5-5.1-1.4-1.5-.3-2.8-.8-4-1.2.1-.2.1-.4.1-.6z"/><path d="m33.9 130.9c.1-5.5 1.6-10.8 1.3-16.8.6.5.9 1.9.8 3.3 0 .5-.3.9-.3 1.4 0 .3.2.5.2.8 0 .2-.2.3-.3.4 0 .3.1.6.1.9-.1 1.3-.8 3.2-.6 5 0 .3-.3.3-.3.4 0 .3 0 .6.1.8.1.4-.2-.1-.2.2 0 .4 0 .8.2 1 0 .2-.2.2-.3.3 0 .5-.3 1.8-.7 2.3z"/><path d="m32.6 140.5c-.3-.3-.2-.9-.2-1.4.2-1.3.2-2.8.7-3.8h.4c.1 1.6-.4 3.7-.9 5.2z"/><path d="m31 145.7c.1 1-.6 1.3-1.4 1.6 0-.1 0-.3 0-.4-.8.2-.7 1.2-1.6 1.2-.1-.3-.3-.5-.3-1 .3-.1.4-.2.5-.4 0-.4-.3-.4-.2-.8-.3.2-.3.6-.7.7-.2-.1-.4-.3-.7-.3-.3-1 .5-1.2 1.3-1.4 0 .1.1.2.3.2v.6c.5-.1.8.6 1.4.7.5-.3.8-.7 1.4-.7z"/><path d="m22.9 164.5c0-.3 0-.5.1-.7 1.1-.7 2.3-1.2 3.1-2.2 1.3-.4 1.5-2 2.8-2.4.2-.6.4-1.2 1.1-1.3.1.7-.7 1.3-1 1.9-.1 0-.2 0-.3 0-1 1.3-2.1 3.1-3.7 3.5-.5.7-1.3 1-2.1 1.2z"/><path d="m28.7 115.4c-.5 0-.5-.8-.3-1.1.2-.1.4-.1.8-.1.3.6-.3.8-.5 1.2z"/><path d="m21.9 115c-.1-.7-.6-1-1.1-1.3-.4-.7-.4-1.9-.3-3 .4-.5.5-1.1.9-1.8.7-.3 1.5-.4 2.1-.9.9.2 1.5.3 2.3.9 1.3.9 2 2.7 1 4.7-.2.4-1.4 1.6-1.7 1.7-1.1.4-2.2 0-3.2-.3zm2.9-5.8c-.9-.5-2-.2-2.8 0-1 1-1.2 2.8-.7 4.4.7.1 1.2.4 1.5.9 1.9.4 2.2-1 3.1-1.9-.1-.7.4-1.3.1-2-.2-.8-.9-.7-1.2-1.4z"/><path d="m243.3 95.2c.4 2.6 0 4.8-.3 7.6-1 1.8-.9 4.3-2 6.1-.2 1.7-1.2 2.6-1.6 4-.2 0-.2.2-.5.2.2.3 0 .4 0 .8-.6.8-1.3 1.4-1.7 2.4-.9 1.3-1.8 2.6-2.5 4-1.4 1-2 2.7-3.5 3.4-1.2 1.5-2.7 2.9-4.3 4.1-1.5 1.6-3 3.1-5.4 3.8-.1.2-.3.3-.4.4-2.2.6-4.2 1.5-6.3 1.1-.7.4-1.6.2-2.3.4-.1-.7-1.3.1-1.6-.6-.3-.1-.2.2-.5.2-.5-.3-1.2 0-1.7-.5-1.4-.1-2.4-.8-3.5-1.2-2-.6-4.1-.8-5.7-2.2-1 0-1.1-.8-1.9-.9-.7-1-2.1-1.4-2.9-2.3-.7 0-.7-.6-1.3-.7 0-.1 0-.2 0-.3-.1 0-.2 0-.3 0-.4-.8-1.1-1.3-1.5-2.1-2.4.1-4.5.5-6.6.9-.2 0-.1.3-.3.3-.4-.1-.6.1-1 .1-.3-.2-.2-.8 0-1 1.5-.3 3.1-.9 4.7-1.1.8-.1 1.6.1 2.4-.1.3-.1.5-.3.8-.3 1.4-.4 2.9-.1 4.3-.5.7-.2 1.2-.6 1.9-.4 1.1-.7 2.3-.5 3.4-.9 1.7.1 2.7-.5 4.1-1 .3-.1.3.2.6.2.3-.2 0-.3 0-.7 1.9-1.2 3.4-2.7 4.9-4.3 1.1-1.7 1.9-3.6 3.3-5 .2-1.1 1-1.6 1.6-2.3.2-2.8 2.5-4 2.3-6.6.3-.3.8-.3 1.1-.4.1 0 .2-.3.2-.3-.1 0 .7 0 .7 0 .8.2 1.2 1.9 2.8 1.1.1-.1.2-.2.3-.3-.1-.5-.7-.4-.5-1.1-.2-.1-.2.1-.4.1-.1-.7.3-1.4.2-1.9-.9-1.2-2.3-.8-3.5-1.6-.2-.7-.8-1-.9-1.8-.1-.3-.3 0-.5-.3-1.2-1.6-1.7-3.7-2.6-5.6-.2-.5-.6-.8-.9-1.3-.7-1.1-.9-2.4-2-3-.2-1-1.2-1.3-1.2-2.6-.3-.2-.5-.5-.5-.9 0-.2-.3-.1-.3-.2-.6-1.9-1.6-3.4-2.3-5.2-.3-.4-.8-.5-.8-1.1-.3-.2-1.1-.5-.8-1.1-.8-.5-1.3-1.4-2.1-1.9-.3-1-1.4-1.3-1.7-2.2-.3 0-.3-.3-.7-.2 0-.3-.4-.3-.5-.6-.8.1-1.4-.7-2.1-.8-.1 0-.2.1-.3.1-.3-.1-.5-.4-.8-.4-.5-.1-1.1.1-1.6 0-1.2-.1-2.2-.5-3.2-1-.2.1-.3.6-.6.4.3-2.4 1.3-4 1.8-5.8-.4-.1-.3.3-.5.3-.3 0-.4-.1-.6-.3 0-.3 0-.6 0-.9-.9-.8-2-1.3-3.4-1.6-.5.3-1.2.3-1.6-.2-1.6 3.3-2.7 7.1-4.5 10.3-.1.9-.2 1.7-.8 2.1-.5 2.8-1.8 5.6-3.3 7.8-.1 1.2-.9 1.6-1 2.8-.9.9-.9 2.8-1.9 3.6-1 2.8-2.8 4.7-4.5 6.8-.3-.1-.5.4-.6.2-.2.3-.3.7-.7.9-.1.1-.2-.1-.3-.1-.5.4-.5 1-.9 1.5s-1.2.4-1.7 1.1c-.3.1-.3-.1-.5-.1-.2 1.8-.9 3.4-1.4 5.1s-.6 3.6-1.6 4.8c.2.6-.3 1.1-.4 1.6.7.7 2.1.6 2.4 1.6 0 .3-.2.3-.3.4-.8-.3-1.4-.7-2.2-.8-.8 1.3-1 3.2-1.7 4.6-.4.1-.3-.2-.6-.2.2.5 0 .5-.1.9 1 .7-.1 1.4.3 2.3-1 1.7-1 4.4-2.2 5.9.1.7-.2 1-.4 1.5.1.7 1.1.2 1.6.6 1.5-.6 3.2.2 4.8-.6.2.1.3.3.6.3-1.9-2.7-2.2-7.8-.6-10.9-.3-1.3 1-1.7.8-3 .2-.1.4-.3.8-.3 0 .1.1.2.2.2.1.8-.5.9-.3 1.7-.1.1-.2.1-.4.1-.1 1.2-.6 2.1-.6 3.2 0 .4-.3.8-.4 1.3-.3 1.5.3 3 .3 4.6.2.3.2.7.2.9 1.4 1.3 2 3.5 4 4.3.5-.5.9-1.1 1.3-1.6-.3-.2-.9-.6-.6-1.1-.3-.4-.6-.8-1.1-1-1.1-1.4-.4-3.6-.4-5.6 0-.8.2-2.5.6-2.9.1-.9.3-1.7.9-2.2.3-1 .5-2.1 1.4-2.6.3-.8.6-2 1.5-1.9.1.4-.1 1-.6 1.1-.1 1.2-1.2 1.7-1 2.8-.5.4-.4 1.3-1 1.6-.3 1.1-.6 2.1-.6 3.5 0 2.1-.9 5.1.8 5.9 0 .3.2.4.3.7.3.2.7.3.9.5.8-.6 1.3-1.6 2.2-2.2.4-1.4 1.3-2.4 2.1-3.5.2 0 .3 0 .4-.1-.4-2.9.9-5.8 4-5 .6.9 1.9 2.5.9 3.6-.4-.7-.4-1.8-.9-2.3-.5.1-.6-.2-.9-.4-1.2.2-1.7 1.2-2.2 2.2.1.3.1.6.3.7-.2.4-.3.8-.3 1.2-.2 0-.3.1-.6.1v.7c-.8.4-.7 1.8-1.6 2.1-.2 1.5-1.6 1.8-2 3.2-1.4 1.1-2.1 2.9-3.2 4.4-.1.1-.3.1-.4 0 0 .3-.2.3-.3.5.2.6 1-.2 1.4.3v.3c-.4.5-1.5.5-1.4 1.6-.3-.1-.5.2-.6 0-.2-.4.1-1-.1-1.6.1-.4.4 0 .5-.3-.2-.2-.7-.2-.9-.4.1-.3-.1-.6 0-.7.3-.2.5-.1.9-.3-.7-.7-1.5-1.3-2.3-1.8-.1-.3.1-.3.1-.5-1.7.3-3.8.1-5.9.5-.6-.4-1.1-.2-1.6-.1-.3-.2-.6 0-.7-.4-.5.9-1.1 1.7-1.6 2.6 1.3 1.1 2.8-.5 4.6.4 1-.5 2.1-.4 3.4-.4 1 0 2.3-.6 2.9.4-1 .8-2.8.8-3.9.5-1.3.6-2.9.3-4.2.4-.3 0-.8-.2-1.3-.2-.6 0-1.9.2-2.2-.4-.2.4-.3.9-.8 1-.6-.4-1.4.4-1.8-.2-1 .7-2.9 1.1-3.5.3.6-1.1 2-.3 3.1-.9.2 0 .2.2.4.1.6-.3.9-.9 1.7-1 .3-.6.9-1 1.5-1.5-.2-.3.1-.6.3-.8-.1-.3.1-.4.1-.7.9-.8.9-2.6 1.7-3.4-.2-.6.4-1.1.5-1.6.3-1.1.5-2.5.8-3.6.1-.3.3-.6.3-1-.8.4-1.5.2-2.2.8-2.5.1-3.4 1.5-6 1.2-.3 0-.2.2-.3.3-1.3.2-2.6.4-3.9.6-2.4.3-4.8 1.5-7.2 1.9-.4.1-.7 0-1 .1-.6.1-.9.3-1.6.3-1.7.2-3.3 1.6-4.9 1.1-2.8 1.2-6.4 1.6-9.6 2-.2.1-.4.1-.5.3-.5-.3-1.8.4-2.3.5-1.3.2-2.8.5-4.3.8-.9.4-2.5.6-3.6.6-.3.2-2 .7-2.8.3-1.6.3-3.1 1.3-5.1 1-1.2.6-3 .7-4.1 1.2-.3 0-.5-.1-.6-.3-.5.3-.9.1-1.4.2-.8.1-1.7.8-2.6.8-.1 0-.2-.2-.3-.2-1 .1-1.9.6-3 .9s-2.4.2-3.5.4c-.2 0-.4.1-.6.1-.8.1-1.6.6-2.2.7-.4.1-1 .2-1.6.2-.3 0-.2.2-.4.3-1.4-.3-2.3.8-3.2.2-1.3.4-3.1 1.1-4.8.8-1.5.7-3.5 1.9-4.4.2-1.2 0-1.9-.9-3.1-1.3-.1-.1-.1-.2-.1-.4-.4.1-.5-.3-.9-.3-.8-1.2-2.1-2-2.8-3.2-.5-.2-1.2-.7-1.6-1.6-1-.5-1.5-1.6-2.7-2.1-.1-.1-.1-.2-.1-.4-2.5-1.8-4.2-4.3-6.6-6.1 0-.6-.7-.5-.7-1-.9-.8-1.9-1.4-2.4-2.6-.7-.3-1.2-.8-1.5-1.6-1.5-.9-2.4-2.4-3.7-3.4 1.4 2.4 2.8 5.4 4.4 7.8.4 1.5 1.5 2.3 1.8 3.9 1.2 1.5 1.8 3.6 2.8 5.2 0 .4.1.7.3.9 0 .2-.2.4-.2.6s.3-.1.3-.2c.6 1.3 1.7 2.2 2 3.9.5.5.8 1.2 1 2 .6.6.6 1.8 1.3 2.3.4 1.6 1.7 2.3 2.1 4 .6.8 1.5 1.3 2.3 1.9.1.1.1.3.2.3.1.1.3-.1.3 0 .5.4 1.2 1 1 1.8-.4.1-.4-.2-.9-.2-.6-1.1-2-1.4-2.8-2.3-.1-.2-.2-.5-.4-.8s-.4-.5-.7-.9c-.2-.3-.5-.4-.4-1-.8-.7-1.4-1.7-1.6-2.9-.1-.2-.2-.3-.5-.3-1.5-3.3-2.8-6.8-4.7-9.8-.2.2-.3.6-.3 1-.7.5-1.8-.1-2.2-.6-2.7-.7-5.8-.7-8.4-1.6-.7-.8-2.3-.7-3.2-1.3-.2.4.5.5.4 1.1 1.7 1.9 2.6 4.6 4 6.8.2.2-.1.2 0 .4.7.9 1.1 2 1.4 3.3.3.4.9.5 1.4.7-.5.8.8 1 .9 1.9.2-.1.6.1.7-.1 1.9.9 4.5.6 6.1 1.6.7-.3 1.5.4 2 .9 1-.1 2 .5 2.5 1.2 1.2.4 2.2.9 3.1 1.6.1.3-.1.5-.3.6-1.1-.5-2.5-.8-3.1-1.8-1.6-.3-3-1.4-4.5-2-2.5.1-4.4-.2-6.4-1 0-.1 0-.3 0-.4-1-.2-1.1-1.3-1.9-1.6-1.1-.4-2.8.6-4.1.6-.1.8.2 1.2.2 1.9 1.4-.3 2.7-1.4 4.7-1.4 0 .2.4.1.3.5-2-.2-3.2 1-5 1.3-.1.2-.2.5-.3.8.1.2.3.4.4.5-.1.3 0 .7.1 1.1-.5 1.9-.2 5-1 6.8-.1 1.4-.5 2.5-.7 3.6-.1.6-.2 1.3-.6 1.7v.8c-1.5 4.1-2.9 8.1-4.7 11.9-.6.3-.7 1.1-1.5 1.2-.3.6-.6 1.2-1.1 1.5-.3 1.2-1.3 1.9-1.9 2.8-.1.1 0 .3-.1.4-.4.5-1.1.6-1.4 1.2-.1 0-.3 0-.4 0-1 .9-2.4 1.4-3.4 2.3-.2 0-.3 0-.4-.1-.6 1-2.3.9-3.3 1.5-1.8.2-2.8.3-4.4-.1 0-.2-.1-.2-.1-.3-.7.3-1.1-.3-1.8-.1-1.8-.8-4.3-.9-5.4-2.5-.3.1-.3-.1-.5-.1-.9-1-2.2-1.7-3-2.8-.8-1.9-2.3-3.1-2.9-5.1 0-.1-.2-.1-.3-.1.1-.8-.7-1-.4-1.7 0-.2-.3-.1-.3-.2 0-.3-.3-.7-.1-.9-2.8-2.8-3.8-7-3.6-10.5-.4-.9 0-1.8 0-2.8.1-2.1 0-4 .3-5.9.1-.8.4-1.6.6-2.3.5-1.9 1.3-3.6 1.5-5.6 0 0 .1-.2.1-.2 1-2.4 2-5.8 3.3-7.7.4-.6 1.1-.8 1.3-1.5.3-.1.3.2.4 0 0-.2 0-.5 0-.7 1.3-1.1 2.2-2.6 3.4-3.6.2-.1.1 0 .3 0 .4-.9 1.4-1.3 2.1-2-.2-1.6 1.5-2.4 2.5-2.2.7-1.1 1.9-1.7 3.1-2.2-.7-2.9.7-5.6 2.8-6.6.1-.2.1-.5.3-.6.4-.3 1.3-.2 1.6-.7-.4-1.5-1.4-2.6-2-4-1-.7-1-2.4-2.1-2.9.1-.8-.5-1-.6-1.6-.1-.1-.4-.1-.5-.2-.2-.4.1-.8-.4-.9-.3.6-1 1.2-1.7.9-.2 0-.2.2-.2.4-.4-.3-.7-.1-1 .1-.8-.2-2-.1-2.8-.5-.2-.6-.7-.9-1.3-1.2-.4-.9-.3-1.7-.7-2.4.5-4.5 5-4.5 7.7-6.8.1 0 .2 0 .3.1.2-.4.7-.5.9-.8.3-.1.3.1.5.1 1.2-1.2 3.2-1.6 4.5-2.2 2.3-1.6 5.5-2.7 8.4-4 .5-1.5 2.6-1.3 3.4-2.3.1.1.3.2.6.2.2-.3.5-.6 1-.6.1-1.4-.5-2.5-.9-4-.9-3.4-2.8-6.9-3.7-10.3-.1-.3-.1-.9-.2-1.3s-.4-.5-.5-.9c-.3-.8-.3-1.7-.6-2.4.3.1.5.2.7.3.1.3-.1.3-.1.5 0 .1.1 0 .3 0 .3.8.3 1.3.5 2.2.9.6.5 2.4 1.3 3 0 .9.3 1.5.7 1.9 0 .5 0 .9.3 1.1-.3.7.4 1.3.6 2 .2.6.2 1.2.4 1.7.1.3.5.7.6 1.1s0 .8.1 1.2.5.8.7 1.2c.3.8.1 1.6.7 2.1v.8c.2.1.4.2.4.3-.1 1.1 1.1 1.5.9 2.8.1.5.6.7.4 1.5.2.2.5.3.6.7 1.5.2 2.9.8 4.1.9.1.5-.2.6-.3 1-.9-.5-2.1-.3-3.1-.6-.7-.2-1.4-.5-2.2-.5-.1 0-.3.1-.4.1-.2 0-.4-.3-.7-.4-.1 0-.2.2-.3.1-.3-.1-.5-.6-.8-.8s-.5-.1-.7-.3c-.3-.3-.7-.9-.8-1.4.1 0 .1-.1.1-.2 1-.6 1.6.4 1.9 1.1.5.4 1.4.6 1.9.8-.2-1.6-1.1-3.3-1.7-4.8-1.3.6-3.1 1.3-4.2 2 0 .2.1.3.1.5-.6.2-1 .6-1.7.7-1.2 1.2-3.1 2.3-2.8 4.5.1-.1.2-.3.2-.5.4.1.4.5.7.4 0 .5-.3.1-.5.1-.2.3.2.6.2 1-.1.2-.5.3-.7.1 0 .3.2.5.3.8 2.2.3 3.8 1.4 5.9 2.2.2.1.3-.2.5-.3.1 0 .9.1 1.1.2.1.1.2.3.3.3.4.1.9-.1 1.1-.1.3.1.6.4.9.4.3.1.6-.1.9-.1.4 0 1.6.3 2.1.5.2.1.3.4.4.4.2 0 .6-.1.9-.1.5.1.9.4 1.3.5 1.5-.1 2.1.2 3 .2.1.1.1.2.1.4 1.3-.1 1.9-1 3.2-1.4.1 0 .3.1.3.1.5-.1 1.3-.7 2-.9.1.1.5-.1.5.1.6-.4 1.3-.4 1.8-.3.3-.4 1.2-.5 1.5 0 .6-.1 1.4-.9 2.2-.5.3-.1.4-.5.9-.4.1-.2.4-.4.5-.6.5.1.7-.5 1.1-.3.6-.2 1.3-.7 1.7-.7.3-.4 1.2-.9 1.7-.6.1-.3.6-.3.9-.5.2 0 .1.2.3.2 1.4-1 3.3-2 5-2.5.7-.7 1.9-.5 2.6-1.2.3.2.6 0 .8-.3-.8.1-1.3.3-2.4.3-.9 0-1.4.5-2.1.7-.8.2-1.6.2-2.3.3-.4.5-1.5.6-2.7.8-.1.3-.4.3-.6.5-1.1 0-2.2.3-3.1.5-1.2.4-2.6.4-3.3 1.4-1.1 0-2.2.5-3.1-.2 0-.8 1-.7 1.4-1.1 2.2.3 4-1.5 5.9-1.4.5-.5 1.2-.1 1.9-.3.5-.1 1.1-.5 1.7-.7 1.1-.3 2.3-.1 2.9-.7 1.1.1 1.9-.8 3.3-.8.5-.6.4-2 1.5-1.7-.1-1 1.1-1.3 1-2.5.5.1.5-.3.8-.4.1-1.1.6-1.7 1.4-2.1 1.2-1.7 2.2-3.6 3.1-5.6.2-.2.2.1.4 0 .2-.3.3-.7.3-1.3.2-.1.3-.2.5-.1 0-.2 0-.4 0-.6 1.2-.7 1.2-2.5 2-3.6-.4-.3-1-.4-1.2-.9 0-.4.3-.5.4-.8-.2-.6-.5-1.1-.8-1.6-.9.4-1.4-.7-2.5-.9-1.2.1-1.8 1.1-2.8 1.1-.2 0 0 .4-.1.5-.5.4-1.6.2-2.2.7-.5.3-.5 1-1.2.9-.1.6-.1.9-.3 1.5.7.1 1.2-.7 1.9-.9.1-.5.4-.7.5-1.1.2 0 .3 0 .3-.2.6.2 1.1.2 1.6.5s.8.9 1.3 1c.1 0 .3-.1.4-.1.3.1.4.6.8.4 0 .6.8.5.8 1.1.6.1 1 .5 1.5.8-.3.6-1.2.2-1.6 0-.7-.4-1.7-1.2-2-1.6-.7-.1-1.4-.3-1.6-.9-.2.3-.6 0-.9 0-1.2 1.4-3.1 2-4.1 3.5-.6.3-1.2.8-1.8 1.1-.1.3.3.1.3.4-1.1 1.1-3.1 1.2-4.6 1.6-.4.5-1.4.5-2.2.6-3.6 1.1-9.2 1.7-11.2-1.6-.2.3-.1.9-.4 1 .2.5.5 1.3.3 1.8.3.2.4.5.7.7 0 .7.2 1.3.5 1.7v.5c.9 1 .5 3.2 1.6 4.1.3 2.3 2.1 3.7 2.5 6.2-.5-.3-.4 0-.9.2-.2-.8-.7-1.4-.9-2.3-.4-.7-1-1.4-1.4-2.2-.5-1.2-.5-2.6-1.2-3.6-.1-2.6-2.9-5.1-1.9-8.4.1-.5.7-.9.6-1.7.3 0 .4-.1.6-.2.2-1.3.8-2.3 1.6-3.1-.4-2.5-2-4.2-2-6.8.5.1.5.1.9.2.4 1.3.4 3.1 1.3 4 .3 2.2 1.5 3.7 2.9 5 .2.2-.2.2-.1.6.9-.2 1.1-1 1.8-1.3-.4-.6-.9-1-1.5-1.3-.7-1.8-2-4.3-.8-6.3.1-.3-.2-.2-.3-.3.3-1-.3-1.9.4-2.6.4.3.9.4 1 .9 1 .1 1.9.5 2.5 1 0 .7.4 1.1.4 1.8 1 .6 1.6 1.5 2.5 2.2.4-.8.6-1.8 1-2.6.8-.9 2.3-1.2 3.1-1.5.3.3.9 1.5.3 1.9.4.9 0 1.8 0 2.7.3-.1.2-.4.2-.8.4-.6.4-1.3.8-1.8.7-1 1.9-1.2 2.9-1.6.2.4.7.2 1.1.2.3.1.5.4.8.5.6-.4.6-1.1 1.2-1.3 1.7-.6 2.9.9 3.4 2.3.6-.3 1.7-.2 2.2.1.5-1.6.6-3.5 1.3-5-1-.9-2.4-1.3-3.6-2-1.3-.1-2.7 0-3.7.6-.2-.1-.7 0-.8-.3-1.3.5-2.4.9-3.7 1.1-.4.4-.7 1.1-1.3 1.3-.3 0-.2-.4-.4-.4-.4.3-1 .2-.9 1-2.6.1-3.5 2.4-6.2 2.8-.6-1.2.7-1.2 1.6-1.7.2-.1.4-.4.7-.6.7-.4 1.6-.4 1.9-.8 0-.2-.2-.2-.3-.3.1-.4.2-1 .4-1.3-.2-1.6-.3-3.7-1.6-4.4-.1-.8-.3-1.5-.9-1.8.1-.9-.6-1.3-.9-2.1-.4 0-.4.1-.6-.1-.6.7-1.4 1.2-1.6 2.2-1.2 1-1.8 2.6-3.4 3.3-.6.5-1.2 1.3-2 1.4.1.5-.4.5-.4.9-1.2.5-1.9 1.5-2.8 2.3-1 0-1.5.6-1.8 1.2-1.2.4-2.2 1-3.2 1.6-.2.1-.2-.2-.3-.2-.5 1-2.1.8-2.8 1.5-.4 0-.3-.1-.6 0-1.3.9-3 .4-4.2.5-1 .1-1.7.3-2.8.1-.4-.1-.8-.4-1.5-.3-.9-.5-1.1-1.7-1.9-2.4.3-.9.4-2 1.2-2.4 0 1.1-.8 1.3-.5 2.4.1.3.2-.1.4 0 .3.3.5.6.8.9.5-.1 1 0 1.2.5.4-.2.6.1.9.3.4-.1.8-.1 1.1.2 1.2-.3 2.5-.3 3.7-.3 1.1.1 2.1-.6 3.4-1 0-.3 0-.7 0-1 .3-.1.5-.2.9-.2.2.2-.1.7.1.8.3 0 1-.3 1.3-.6-1.4-.5-2-2.5-3.4-3.4-.1 1 .7 2.1.3 2.8-.7-.4-.7-1.4-1-2.2-1.2.7-2 1.8-3.1 2.5-.1.8-.5 1.3-.9 1.9-.5-.1-.4-.7-.6-1 .5-2 2.2-2.7 3.4-4 .7-.1 1-.7 1.7-.8.1-1.4 0-3 .7-4 .1-.2.7-.8.9-1 .7-.7 2-1.7 2.8-2.4.7-.5 1.3-1.2 1.9-1.1.4 0 .7.5 1.1.4 0 .3.1.6.3.6 0-1.8-.1-4 .2-5.6-.8-3-1.6-6-4-7.5-.4-1-1.5-1.8-1-3.3.6.5.7 1.4 1.1 2.1.4.5.8.9 1.1 1.5.2-2.3-1.5-3.4-1.8-5.4-.8-.5-1.1-1.6-1.7-2.2.1-.7-.7-.9-.3-1.6 2 2.4 3.4 5.5 4.7 8.6-.1 1.8.8 3.3 1.6 4.5 0-1.9.2-4.7-.1-6.9-.1-.5-.4-1-.5-1.5-.4-1.4-.3-3.1-1.2-4.1 0-.4-.1-.6-.2-.9-.4-.3-.8-1-.7-1.6.7.1.6.9.9 1.5.1.2.3.2.5.2 1.5 3.2 2.5 6.3 2 10.3.3 1.1.1 3-.2 4.1.1.2.1.4.3.4.3-1.9 1.1-3.7 1.2-5.8.1-2.5-.8-4.9-.6-7.2.6.5.3 1.8.9 2.4.2 1.1-.2 2.7.3 3.7-.2 3.4-.8 7.6-1.1 10.6.5-.1.7-.5 1.4-.4.3.2.7.7.4 1.2.9 1.4 1 3.5 2 4.9.5-.1.2-.5.3-.8.1-.8.4-1.7.5-2.4-.3-.2-.8-1.2-.1-1.4 0-.3-.2-.3-.4-.3-.2-1.2-2.4-3.6-1.5-5.2.6-.9 1.8-.3 2.2.5-.2-2.7-.6-5.2.1-7.3.3-.9 1.1-1.6 1.2-2.6.4 0 .5-.5.9-.3.1 1 .4 2.3 0 3.2.8 3.2-.5 6.4-.7 9.8 0 .2.2-.1.3.1.1.4-.1.6-.2.9-.2.1-.2.2-.4.1-.2 2.6-1.9 5.3-1.1 7.9-.3-.1-.3.1-.6.1 0 .3-.2.5-.2.8 2.2-1.7 3.6-4.1 5-6.6h.3c.6.7 1.2 1.5 1.8 2.2.9-1.5 2-2.7 2.9-4.1-1.3-4.8-2.5-9.8-3.5-14.9.4.1.5 0 .9 0 .7 1.1.4 2.5.5 3.8.1.2.2.2.4.3.2 1.3.6 2.3.6 3.5 0 .1.1 0 .3 0 .2.6.1 1 .2 1.6.5-1.3.1-3 .7-4.3.3.2.2.3.7.2-.2 1-.3 2.1-.2 3 .2 1.3-.9 4.2.2 5.6.7-.8 1-2.4 1.9-2.8 1.4-2.9 2.8-5.8 4.1-8.9.4 0 .4-.1.8-.2.4.3.5.9.9 1.2.7 2.2.8 4 1.7 5v.5c.9 1.1.7 3.2 1.7 4.1-.2 1.2.4 2.3.1 3.5.7.4.7 1.5 1.2 2.1.1.3-.2.2-.3.3.2 2.3.5 4.5-.3 6.3.4.4 1.1.5 1.6.9.3-2.1-.1-4.4.6-6.3-.4-1.8.4-4.4.3-6.4.3-.3.3-.8.5-1 .8.1 1.5.7 2.3.8.5.1 1-.1 1.5 0 .7.2.9.8 1.6 1.1h.6c1.4.8 2.4 1.6 3.9 2.4-.3-2.8-2.2-4.7-2.8-7.5-.9-1.1-.8-3.1-2-3.9-.4-1.3-1.2-2.3-1.6-3.7-.8-1-1.7-1.8-1.7-3.5.3-.1.1-.5.6-.3-.1-1-.7-1.5-.9-2.3-.2.1-.2.5-.3.7-.6-.3-2.2-1.8-.6-2.1.2.3.2.8.6.9-.2-1-.7-1.7-1.1-2.5-.3.1-.4-.1-.7-.1-.6-1-1.9-1.5-2.9-2.2-.3.4.1.8.3 1 1-.2 1 1.4 2.3 1.1.3.4.8.8.6 1.5-.7 0-1.3-.8-2.2-.9 0-.8-1.2-1-1.7-1.6-.5-.7-.8-2.1.1-2.4.4.4.8.2 1.4.4.1.2.2.2.2.5.8 0 1.4.7 1.8 1.3.8-.3 1 1 1.7.9.2.2.2.6.3.9 0 .1.2 0 .2-.1.2.4.4.8.4 1.4.3.4.6.7.6 1.4.9.5.7 2.1 1.6 2.6.7 2.2 2.4 3.3 2.8 5.5.2.2.2 0 .4 0v.5c1.3 2 2.4 4.3 3.3 6.8 0 .1.2.1.3.1.5 1.1.7 2.8 1.4 3.8.6.9 1 1 1.2 1.9.3 1.2.5 2.7 1.4 3.5.6-.1.6.4 1.1.4.2.5.7.7 1 1 .3-.9-.6-1.3-.6-2.2 0-.2-.2-.2-.4-.2.2-1.1-.5-1.9-.7-2.8-.4-.6-1.3-.6-1.4-1.6-.4-.1-.9-.9-1.5-1.6-.4-.4-.8-.6-.3-1.1.5 0 1.3-.4 1.9-.1-.4-1.1-1.2-2.2-1.6-3.3-.3-.6-.2-1.3-.4-1.9-.2-.4-.7-1.5 0-2 .3 0 .4.2.6.3 0-.9-.8-1.2-.6-2-1-1-1.1-2.5-1.6-4 .2-.1.3-.3.3-.4.7 0 1.6.3 1.6 1.4.4.2 1 .3 1.2.9.3-.2.2-1.3 0-1.6-.3-.1 0 .5-.3.4-.5-.2-.5-.8-.7-1.2-.5-1-1.4-2.1-2.1-3.4-.3-.5-.6-.9-.9-1.4-.2-.4-.3-.8-.3-1.5.2-.3.6-.2.8-.4.2.1.3.2.3.4.3.1.2-.2.5-.2.4.4.7.7 1.1 1-.1-1.5-.6-3.6-.6-5.3 0-.8.2-1.8.7-2.3.9.5.7 1.6.9 2.5.1.8.6 1.4.8 2.2.1.3-.1.6 0 .9.2 1.1.7 1.7.5 2.8-.1.8-.1 1.8-.4 2.5.7-.8.7-1.9 1.7-2.5 1.3.9.3 3.1.8 4.5 0 .2-.1.2-.3.2.5 1.1-.1 2.9-.5 4.4-.1.3-.4.6-.6.8.4 1.5.2 2.8.4 4.1-.3-1.1-1.4-1.9-1.5-3.2-.1-1.9-1-3.4-2.2-4.7-.6.7.4 1.5.3 2.1 1 .9 1.7 2.6 2 3.9.7.8.8 1.9 1.4 2.7.4-.2.1-1.2.6-1.3-.2-1.6.7-2.7 1.3-3.8.5-.1.5-.1 1-.1 1 2.2.3 5.4-.9 7.1.2 1.4-.9 2.2-1.1 3.4 1.1-.3.9-2.8 2.1-3.4-.1-.4.2-.4.2-.8.3-.3.7-.5.8-.9.1.1.2.1.4.1.1 1.7-.1 3-.3 4.9-.8 1.4-.9 3.6-2.2 4.6.1.3.2.6.4.9.2-.2-.3-.6.1-.9.3.1.3.4.5.6.9-.5 1.1-1.2 2.3-1.4-.3 1.2-1.5 1.5-1.9 2.6.4 1.3.8 2.5 1.6 3.4.1-2 .5-4.5.9-6.4.6-1.7 2.1-2.5 3-3.9.3.2.3.2.7.2.1.6.4.9 1 1 0 .4 0 .7-.2.9.5.6 0 1.5.3 2.2.5-.3.2-1 .5-1.6.2.6.2 1.4.2 2.2.5 0 .1-.8.4-1 .3-.1.5.1.6-.3.8.2 1.2 1.1 1.1 1.9.7-.5.1-2.3.9-2.8.3-2.2 1.3-3.7 1.8-5.7h.3c-.1-.7.2-1 .3-1.5-.4-.1-.2.4-.4.3-.4.2-.5-.4-.7-.5-.1-.1-.2.2-.3 0-.2-.3-.2-.8-.3-1 0 0-.3-.1-.3-.2-.4-1.1 0-2.4.8-2.8.3.1.7.1 1.1.1.1.5.7.4.8.9.5-.5.6-1.4.9-2.2-.7-1.5-.9-3.3-.3-5 .2-.2.5-.3.8-.3.4.3 1 .3 1.2.9.6-.8.3-2.5 1.1-3.1.1-.8.6-1.2.8-1.9.4.1.4.2.9.1.9 1.1.3 2.3-.1 3.4-.3.3-1.2.1-1.1.8-.3.1-.2-.3-.4-.3-.9 1.2-.7 2.7-1.3 4.1-.1.1-.2.1-.4.1.1 1.1-.5 2.2-.9 3-.3 2.4-1.2 4.3-1.6 6.5-.2.3-.6.4-.5.9.4 0 .9-.8 1.6-.5 1.2 1.6-.9 3.5-2.2 2.8-.6.9-1.2 2.3-.3 3.2-.4 1-.8 3.1.1 3.8.1.9-.4 1.4-.3 2.1-.7.2-1.7.8-2.3 1.4-.4.1-.4-.1-.7-.2-.7 1.8-1.3 5-2.2 7.4-.1.2-1 1.7-.9 1.9.1.9 1.5.5 2 .8-.1-.7-.5-1.3.3-2 .4.1.3.4.6.1.3.6-.3 1.1-.3 1.8 0 .3.4.1.7.2.2-.1-.2-.5 0-.6.1 0 .2-.1.3-.2.8.1.9.3 1.5.5.1 0 .1-.2.1-.3 1.4 1.1 2.7-.5 3.7-.8 0-.1 0-.3.1-.3.3-.1.3.2.3.4.3-.1.4-.4.3-.9 1.6-1.6 1.4-4.8-.4-6-.8.4-1.8.1-2.4.6 0 .3.5-.1.7.2.1.7-.3.9-.8 1-.1-.3-.4-.6-.2-.9-2.3-.2-2.2 2-2.8 3.4-.4-.3-.6-.9-.6-1.6.5-.5.5-1.5.9-2.1.4 0 .4-.3.7-.4.6-.3 1.3-.2 2.1-.3.9-.2 1.6-.9 2.7-.6.2.1.1.6.5.4.8.9 1.4 2 1.5 3.5-.4.4 0 1.7-.7 1.9 0 .2.1.3.1.5-1.8 3.5-3.8 6.7-5.1 10.6.3.1.5.1.8-.2.3.2.3.2.7.1.4-.9 1.7-.1 2.2-.8.2.3.9-.3 1.2.1 1.2-.8 2.7-.1 3.7-.8.8 0 1.6-.1 2.2-.3.4-.1.4.2.6.3.2-.5.8 0 .8-.5 1.9.1 3.4-.9 5.3-.7.8-.6 2.1-.8 2.8-.7 1-.4 2.2-.8 3.6-.9.3-.1.2-.5.6-.5 0-.1 0-.3 0-.4 1.4-1.9 2.3-4.2 3.6-6.2 0-.2 0-.3 0-.5 2.9-5.1 5.7-10.4 8.4-15.8-.6.9-1.2 1.7-1.7 2.7-1.1.6-1.3 2.1-2.4 2.6-.7 1.5-2.6 1.8-3.2 3.5-.3.1-.5-.1-.6-.2-.3.1-.4.5-.7.3-1.5 1.8-4.2 3-6.6 3.2-1.2-.3-2.6.1-3.9-.1-.5-.1-1-.4-1.6-.4-.7-.1-1.3-.2-2.2-.3-1.6-.1-3.1-.6-4.7-1.4-1 0-2.1-.6-2.6-1.4-.8-.1-1-.8-1.7-.9-1.3-1.4-3-2.4-3.6-4.6.2-.1.2-.3.3-.3.3-.1.3.1.5.1.8 1.3 1.9 2.5 2.8 3.6 1.4.8 2.4 1.6 3.8 2.5 1.3.2 2.8.8 3.9 1.3.5-.3 1.2 0 1.6.3.3 0 .3-.2.4-.3 0-.2 0-.4-.3-.4.7-1.3 2.1-2.5 3.7-2.7.4-.8.6-1.4 1.5-1.6.1.5 0 .6-.1 1 .1.1.4.1.4.3.8-1.5 1.2-3.4 1.8-5.1-.4-.8-1-1.4-1.5-2.1-1.8.8-3.2 1.4-4.8 2.6.3.5-.3.7-.2 1.3-.3-.3-.3-.3-.4.2-.3-.1-.1-.6-.2-.9-.3-.1-.4.1-.6.2.3 1 .9 2.2.3 3.3-.9-1-.6-3-1.7-3.7-.6.7-.2 1.5.3 2 .1.3-.2.2-.2.4-.3-.1-.7.1-.9-.1-.1.4-.3.6-.4.9.7.2 1.1.6 1.5 1.1-.2.2-.6.5-.9.6-.5.2-1.2.5-1.6.6s-.8-.2-1.1 0c-.9-.5-1.6-1.8-.7-2.7.9-.1 1.9-.3 2.5.2-.5-2.7-1.6-4.9-3.7-6-.3.7.3 1.2.4 1.8.4-.1.5.2.9.2 0 .5.5.5.7.9-1.3.3-2.4-.9-2.8-2.1-1.2 1-2 2.2-3.3 3.2-.2-.3.1-.8.4-.9.7-1.7 2.1-2.7 3-4.2.5 0 .8-.2 1.3-.3.3.2 0 .7-.1.9.2.2.5.2.8.1 0 .4.5.3.3.9 1.1-.2 1 1.5 2.2 1.5.1.3.1.9.1 1.4.4 0 .3-.5.2-.7.3-.2.6-.4 1.2-.3-.1-1.3 0-3 .8-3.8 1.9-.7 2.5 1.6 2.2 3 1.4-.5 2.4-1.4 3.7-2.1-.6-2.3-1.2-4.5-1.2-7.1-1.5-.6-2-2.2-3.3-3-.7.5-.8 1.6-1.3 2.4-.1.2-.4.2-.5.4-.4.6-.4 1.6-1.2 1.6 0 1.1-1.1 1.4-1.2 2.3 0 .4.3.6.5 1.1.2.4.1 1 .3 1.3.2.6.9 1.2.6 1.9-.8 0-.8-.7-.9-1.4-.4-.5-.6-1.2-.9-1.7-.8.5.1 1.4.2 2.1 0 .1.2 0 .2-.1.3.7.9 1.1 1 2-.1 0-.2.1-.3.3-1.3-.6-1.8-1.9-2.2-3.4-.3-.1-.1.3-.3.3-.8-.9-1.2-2.7-1.5-4.4s-.4-3.7.2-5.3c.4 2.7.4 5.6 1.4 8.2.2-.1 0-.6 0-.8.1-.2.4-.3.6-.5-.6-2.6-.8-5.7-.5-8.1.5.2.3.5.3 1 0 .3.2.6.3.8.2 1.8 0 4 .5 5.8.7-.6 1.1-2 1.8-2.3.1-1.6 1.9-2.3 1.6-3.8.2-.6.6-1.1 1.3-1.2.8.5 1.4 1.2 1.7 2.1.6.3 1 .8 1.5 1.2.3 0 .2-.3.5-.2.7.5.9 1.5 1.7 1.9.2.8.5 1.4 1.1 1.7.4 1.3.7 2.6 1.1 3.8.4-2.1 1.2-4.9.2-6.5-.8-1.3-1.9-2.5-2.5-3.7-.1-.3-.1-.7-.3-1-.3-.7-1.5-3.3.2-3.4.5 0 1.5 1.1 2 1.6.4.4.5.9 1 1.1.3-1.3-.2-2.5 0-3.7-1.1-1.3-1.4-4.4-.8-5.9.6.1.5-.1 1.1-.1.4 1.2 1.1 2.5 1.2 4 0 .3-.1.6-.1.9.1 1.5.6 3 .2 4.5-.2.2-.3.4-.4.6.1.5.1 1.1.1 1.7.8-1 1-3.2 3.2-2.2.9 1.1-.5 2.3-.8 3.2-.1.2.1.4 0 .6-.1.3-.5.5-.6.8-.5.9-.8 1.9-1.3 2.5-.2 0-.4.1-.5.2-.1 3.4-.8 6.2-1.7 8.8-.2 1.8-1.1 3.5-1.8 5.1.6.3 1.4 1.1 1.6 2.1.7-.8.8-1.9 1-2.9.5-1.9 1.2-3.8 1.7-5.6.5-.2.4-1 1-1.1.6.5 0 1.2-.3 2-.2.7-.2 1.8-.5 2.4-.2.4-.2.5-.3 1-.1.6-.5 1-.7 1.6-.1.3 0 .7-.1.9-.1.3-.4.6-.4.9-.2.7-.1 1.4-.3 2.1.3.1.9-.3 1.2-.5 0-.9.4-1.7-.1-2.2-.3-1 .4-2 .7-3.1.4-1.4.9-3.3 2.3-3.1.1 0 .2.2.3.2 0 .3.1.7.4 1-.1.9.1 2.2.5 2.8-.2.5-.2 1.3.1 1.7.3-.2.4-.5.6-.8 2.5-1.6 4-4.4 5.8-6.7.6-2.3 2.3-3.4 3.2-5.4-2.2-.8-2.1 3.3-3.5 4.4-.3-1.1.1-2.8 1-3.4 0-.2-.1-.3-.1-.5h.3c0-1.4 1-1.7 1-3 .4-.2.3-.8.8-.9.1-.9.5-1.5 1-2 0-1 .8-1.2 1-2-.2-.3 0-.4.1-.8.1-.5-.1-1.2-.1-1.7 0-.2.2-.4.3-.6.1-.6-.3-1.2.2-1.6 0-2.7 1.3-4.6 1.6-7.5-.4-.2-1-.6-.7-1.3.5-.1.6-.2 1 .1.3 0 .3-.4.3-.7-.7.5-1.7.3-2.6.1.2-.4-.2-.5-.4-.8-.3 0-.3.2-.3.4-.6-.3-1-.8-1.5-1.3-.4.9-.2 1.5-.3 2.7.1.2.3-.1.4-.2.2.1.2.2.5.2 0 .2.4.1.3.4.6-.1.7.5 1.3.7.5.1 1.5-.3 1.6.6-1.2 1-3.5-.1-3.8-1.3-.4 0-.1.6-.4.6 0 3.8-.6 8.2-1.1 11.6-.1 1-.1 2.2-.3 3.5-.1.4-.3.7-.4 1-.2.8 0 1.6-.2 2.2-.1.3-.4.5-.4.9-.2.8-.3 1.2-.6 2-.2.5-.2 1.1-.4 1.6-.1.2-.4.4-.5.6-.3.6-.6 1.2-1.2 1.6-.6-.5.1-1.4.5-1.7 1-2.5 1.7-5 2.2-7.8.3-1.6.2-3.4.9-5 0-1.4.1-2.6.4-3.6 0-2.9.4-5.5.5-8.2.1-.3-.4-.1-.3-.4 1-1.8.6-3.3-.6-4.7-.2-.3-.5-.7-.7-.9-.4-.3-1-.5-1.1-1.1-.6-.1-1-.5-1.2-1.1-.7-.3-1.6-1.1-2.8-1 0-.4.2-.6.4-.7-.1-1.2-1.9-.2-1.6-1.6.7-.4 1.1.2 2 .2.1.5.5.8.6 1.4.3-.1.3-.1.5 0 1.9 1.7 4 3.1 5.3 5.4 1.1-2.1 1.3-5.2 2.4-7.2.5.6 0 1.6-.2 2.4-.2.9-.2 1.8-.7 2.3.1 1.5-.3 2.5-.7 3.5.1.5.6.9 1 1.2.2.2.4.5.5.6.8.4 2.8.5 3.1-.3 1.2-.3 2.8-.2 4.1.2.2.4.4.8.5 1.3 1.8-.2 3.8-.2 5.4-1.1.1.1.1.2.2.3.2-.5 1-.7 1.5-.8 1.8-2.1 5.5-2.4 7.8-3.8 1.1-.1 1.5-.1 2.2-.3-.2-.2-.4-.4-.8-.3-.1-.3-.4-.4-.4-.8-.8-.4-1.1-2-.8-3.6.1-.8.8-1.7.9-2.3.3-1.2.6-1 1.8-1.6 1.8-.8 4.7-.7 6.8-.2.5.3.6.6.9 1.2.3.4.9.8 1 1.1.5 1 .4 2.5.3 3.4 0 .3.2.3.2.5-.5.2-.3 1-.5 1.5-.2 0-.2-.2-.4-.1.1.7.3 1.1.3 1.9.8-.2 1.1.4 1.9.2.8.6 1.8.2 2.8.4.5.1.6.3 1.2.3.4 0 2.2.6 2.5.9.6-.1 1 .1 1.6.3.9-.1 1.3-.5 2.1-.7.3.2.7.3.8.8.2.1.5-.2.8.1.3 1.8-.2 3.5-1 4.6-.2 0-.3.2-.4 0-.2 1.1-1.4.5-2.2.9-.5-.4-1-.7-1.3-.9-.5.2-1.3 0-1.8-.3-1.2-.3-2.8-.5-3.8-1.2-1.8-.1-3.1-.2-4.2-.9-.7 0-1 .2-1.6 0 0 .4-.2.8-.2 1.2.1.3.2-.2.4-.1.6.4 1.5 0 1.8.5 1.8-.1 2.8.7 4.6 1.3-.1.3.2.3.3.5 1 0 1.3.7 1.6 1.5.3 0 .4.2.7.4.3 1 .3 1.8.2 2.7-.4 0-.3.5-1 .3-.2-.1-.8-.5-1-.7-.9-.7-1.9-2.2-3-2.8-.1-.1-.4 0-.5 0-.5-.2-.8-.8-1.5-.7-.1-.4-.6-.5-.8-.8-1-.4-2.1-.1-2.8-.4-.4-.1-.3.2-.6.2-.1-.2-.2-.4-.3-.6-.6.2-1.5.7-2.2.1-.7.5-1.2-.2-1.7-.5.1-.3.3-.4.6-.3.3-1.2 1-1.9 1.4-3-1.7.5-3.6.1-5.3.5-1.1.7-2.3.9-3.4 1.6-.2 0-.2-.2-.4-.1-.3 0-.3.4-.5.5-1.6 0-2.5 1.6-4 1.7-.2.1-.2.3-.3.4-.4-.2-1 .2-1.4.5-1 .3-2.7.4-4.1.5 0 .2-.2.9-.1 1.2 0 .2.2.3.3.4.1.5-.1 1.1-.1 1.6 0 .8.1 1.6.1 2.2 0 .8-.3 1.6-.4 2.3-.2 1.5 0 3.1-.6 4.3 0 .2.2.3.3.4-.4 3.3-.5 7.4-1.1 10.3-.4.1-.1-.6-.4-.7.1-.2.2-.5.3-.7.3-2.7.1-4.8.2-7.8 0-.3.2-.3.3-.5 0-.2-.2-.4-.3-.6.1-4.1 1.4-7.9.7-12.7-.4 0-.5-.1-.9-.3 0-.3.1-.5.2-.7.8-.5 1.8-.1 2.6-.2.3 0 .5-.2.8-.3.5-.1 1.1.1 1.6 0 1.2-.3 2.5-1.3 3.5-1.9.4-.2 1-.4 1.5-.4.3-.3.9-.6 1.3-.4.5-.4 1.7-1.2 2.4-1 1.9-1.4 4.3-1.3 7.3-1.6.1.2.1.6.3.7.5-1 .8-2.1 1.1-3-.1-.1-.2-.2-.4-.3-.4 0-.1.5-.4.5-1-.4-2.7 0-3.5-.3-.4.1-.6.5-1 .2-.3.3-1.2.9-1.6.6-1 1.1-2.7.9-3.7 1.7-.2 0-.3 0-.3-.2-.5.7-1.2.7-1.6 1.6-.8.3-1.8.5-2.4 1-1.1-.2-1.9.8-3 .5-.9.4-2.1 0-2.7.7-.7.1-1.1-.2-1.5-.4-.1-.3.3-.1.3-.3-.2-1.9-2.1-1.2-3.2-1.4-.2 1 .1 2.4-.7 3.2-.1.6.1 1.3 0 1.9-.1.4-.4.7-.4 1.1-.2 1.1.2 2.5.2 3.9 1.2-1.4 1.6-3.5 2.5-5.1.3 0 .4-.2.7-.1-.1 3.8-2.2 5.8-3.4 8.7.4 1.5.2 3.1.3 4.7.2 0 .7-.2.9.2-.2 1.4-.8 2.6-.2 4-.1.2-.3.4-.4.6-.3 0-.3-.1-.5-.2-.7 1.2.1 3.2-1.4 3.8 0-1.9.8-3.9.9-5.9.1-1.6-.3-3.3 0-4.7-.3-.6-.1-1.2-.3-1.9-1.1 1.7-.5 4.5-.6 6.8-.2.1-.3.4-.7.3 0 .4-.1.6-.2.9-.2.1-.1 0-.3 0-.5 1.1-.9 1.9-.9 3.1 0 .3-.5.5-.7.8-.6.9-.9 1.9-1.1 2.9.5.2.9.4 1.5.4.1-1.1.5-2 1.6-2.2 1.1.3 1.5 1.5 2 2.5 1 .3 1.5-.3 2.2-.5.1-1.4-.2-2.4-.8-3.2-1.2.5 0 2.2.1 2.8-.1.5-.8.3-1.1.2-1-1.4-.9-4 1.1-4.2 1.2.7 1.6 2.9 1.6 4.1.5-.2 1.1-.3 1.4-.7 1.5-.3 2.5-.9 3.5-1.6.5.1.7-.4 1.4-.3 1.4-1.2 3.2-1.6 4.7-2.6 1.3-.8 2.3-2.2 4-2.6.4 1.3 0 3 .3 4.2.2.3.2-.2.5-.1-.2 1.6-1.8 1.8-2 3.4-.6.3-.5 1.3-1.2 1.5-1.2 1.9-2.1 4.1-3.5 5.8 0 .6-.3.9-.7 1.1-.2 1-.9 1.4-1 2.4-.2.1-.2.2-.5.2-.1.2.1.2.1.4-.9 1.4-2 2.4-2.7 4.1-.8.3-1.1 1.3-1.7 2-.1.2-.4.3-.5.4s0 .4-.1.4c-.1.2-.4.1-.4.3-.1.1-.7 1.3-.7 1.2.1.3 1.8-.4 2.3.1-.1.1-.1.5-.1.8-2.7.6-5 .2-7.8.7-4.1.7-8.3 1-12.2 2-1.9.2-3.6.9-5.3.9-.2.1-.3.2-.3.3-1.1-.1-2.2.6-3.6.5-.6.5-2 .3-2.8.8-4.5.5-6.9 1.4-11.7 1.6-.3.2-.6.3-.9.5-.8-.2-1.7.4-2.7.5-.1.2-.3 0-.3-.2-.1.2-.5.1-.4.4-.3.1-.3-.1-.5-.1-.9.3-2.1.8-3.3.9-.7.1-1.6-.2-1.9.5-.3-.1-.8 0-.8-.4 1.2-1.4 3-1.3 4.7-1.7.3-.5.4-1.4.9-1.4.8-3.1 2.4-5.4 3.6-8-.9.7-2.1 1-2.9 1.8-3.3.5-5.6-.8-8.2-1.3.1-.2-.1-.2-.1-.4-1.1.3-1.6-.7-2.7-.7-.8-.9-2.4-.9-2.8-2.1-.8 0-1.3-1-2.3-.5-.5.3-.7 1.1-1.1 1.6-.1.1-.3.1-.4.3-.4.4-.7 1.4-1.2 2.1-.3.3-.6.4-.8.7-.2.4-.2.4-.5.7-.7.5-1.2 1.9-1.7 2.7-.1.1-.3.1-.4.3-.5.5-.7 1.2-1.2 1.6-.7.7-1.4 1.3-2.2 2-.1 2.8-.7 5.8-.9 8.7 2.1-.4 3.2-1.9 5.3-2.1 1.2-.7 2.7-.5 4-1.6.3-.1.3.1.4.2.3 0 .4-.3.6-.4.5.2 1.1 0 1.2-.4.6-.1 1.3 0 1.6-.3.1.1.1.2.2.3.2-.1.2-.3.3-.4.3.2.9.3.9-.2.3-.1.2.2.5.2.1-.4.7-.4.9-.8.3-.1.2.2.3.3.3-.4 1-.4 1.3-.9.8.5 1.1-.5 2-.1 0 .1 0 .2.1.2 0 .6-.4.3-.9.4-.4.1-.7.3-.9.3s-.1-.2-.3-.3c-.7-.1-1.7 1.6-2.8 1-.5.3-1.2 1-1.8.6-.3.2-.6.4-.9.6-.3.1-.3-.1-.4-.2-.1.3-.6.3-.7.6-.8-.4-1.4.8-2.3.5-.2.1-.4.4-.6.5s-.3-.1-.4-.1c-.2 0 0 .2-.1.3s-.3-.1-.3-.1c-.2.1-.3.4-.5.4-.4.1-.9 0-1.3.1-1 .2-2 .9-2.8 1.2-.3.1-.3-.1-.4-.2-.4.2-1 .7-1.6.5-1.1 1.2-3.1 1.4-4.5 2.3-.5.1-.9.2-1.1.5-.2.1-.2-.2-.3-.2-.2.1-.3.5-.6.3 0 .5-.8 1-1.1.7-.2 0-.2.3-.3.3-1 .1-1.8.8-2.9 1.2-.2 0-.4 0-.5-.1-.4.1-.5.7-.9.3-.8.9-2.2 1.3-3.3 1.6-.6.8-1.7.9-2.9 1-.1.2-.5.3-.5.6-3 .9-5.7 2.1-8.2 3.4-.4.4-.8.8-1.6.9-.3.4-1 .8-1.5.7-.2.2-.2.4-.4.5-2.7 1.2-5.1 2.5-7.8 3.7-.4.6-1.2.8-1.8 1.2.4.4.8.9 1.3 1.2.1 1.2.7 3 0 4.1.6.5 1.3-.5 1.9-.3.2 0 .1-.3.3-.3.7.2 1.1-.3 1.5-.6.7-.5 2.2-.2 2.7-1.5 1.5-.6 2.8-1.8 4.2-2 1.1-.9 2.7-1.1 3.8-1.9 2.2-.5 3.9-2.3 5.9-2.4 1.3-.6 2.7-.9 4-1.4 1.4-.5 2.7-1.4 4.2-1.6.8-.4 1.9-.8 2.8-.8.2-.3.8-.4 1.1-.6.2 0 .1.2.3.2 1-.8 2.3-1.1 3.6-1.6.2-.1.1-.4.3-.5 2.2-.7 4.3-1.4 6.2-2.1.2 0 .3 0 .3.2.3-.4 1-.7 1.6-.6.9-.4 1.8-.7 2.8-.9.6-.6 1.7-.6 2.3-.5 1.7-.8 3-.9 4.7-1.8.2.1.3.2.4.3 1.2-1 3.3-1.4 4.7-1.6 1-.6 2.3-.5 3.6-.9.3-.1.1.3.3.3.4-.3.9-.5 1.2-.9.4.2.6 0 1 .2.2-.3.8-.7 1.1-.3.6-.5 1.4-1 2.1-.5.9-.5 1.9-.4 2.8-1.1.1.1 1 .2 1.3.1.2-.1.2-.2.3-.3.2 0 .1.2.3.2.3-.1.5-.4.7-.4.7-.2 1.4 0 2.2-.4.1.1 0 .2.2.3.9-.7 2-.7 3.1-1.2.7.1.9-.2 1.5.1.4-.2.7-.4 1.1-.4.2 0 .4 0 .3.3.5-.5 1.2-.9 2-.5.6-.3 1.4-.7 2.1-.5.2-.1.6-.6.8-.2.6-.6 2-.8 2.7-.6.8-.4 1.6-.7 2.7-.8.9-.2 2.4-.7 3.2-.5 1.1-.6 2-.5 3.3-.6.2 0 .2-.2.2-.4.8-.1 1.6-.2 2.1 0 .1-.2.3-.2.4-.4 2.5-.5 5-1.1 7.7-1.1 1.9 0 3.9-.4 6.1-.5.7 0 1.6-.2 2.5-.3.5-.1.7.1 1.2-.2.5.1.6.2 1 .1.4.3 1.2.1 1.6.5 1.5 0 3.3-1 5.1-.8 1.1-.6 2.4-.4 3.4-1.1.2-.6.7-1.3.8-2.1 0-.8-.5-1.4-.4-2-.2-.3-.2.2-.4.2-.1-.7-1-.3-1.3-.7.1-.2.2-.3.3-.5 1.1 0 1.6.1 1.8.9.2-.1.4.1.8.3.4 1.1.1 2.7-.1 3.9-.2 0-.2.2-.4.2-.2 1.2-1.7 1.2-2.5 1.7 0 .5-.2.8-.4 1.1.2 1.3-.7 2-.6 2.9-.7.4-.4 1.3-.7 2.1-.2.1-.2.3-.4.3-.7 1.5-1.1 3.3-1.7 4.9-.5 2.5-1.6 4.4-2.2 6.9-.1 0-.1.1-.3.1 0 2.1-1.4 3-1.3 4.9.7-.3 1.4-.6 2.2-.9.1-.4-.1-.7.1-.9 1.1-.7 1.6-2 2.7-2.8 1-1.2 1.7-2.8 2.7-4 1.6-3.8 3-7.3 5.1-10.5 0-.2 0-.4 0-.6 1.4-2.3 1.8-5 2.9-7.3.2-.4.3-.8.4-1.2.2-.5.7-.8.9-1.5.1-.2-.1-.4 0-.6s.3-.2.3-.3c.3-.8.4-1.6.9-2.3 0-1 .7-1.4.9-2.2 0-.4-.3-.6-.3-1 .3-.4.5-.9.7-1.5.3-.1.7-.3 1-.1.4-.3 1.2-.2 1.7-.3.3-.2.4-.5.8-.4.4-1.3.9-2.3 1.4-3.8.3-.9.6-1.8 1.1-2.4.8-3.8 2.3-6.8 3.4-10.3-.5-1-1.2-2.1-1.4-3.3 0-.3.1-.6-.1-.9s-.4-.9-.8-1.4c-.2-.3-.5-.4-.8-.7-.1-.1-.2-.4-.3-.5-.2-.1-.5-.1-.7-.3-.3-.2-.4-.6-.7-.9-.4-.3-.9-.4-1.1-.9-.2 0-.3 0-.5 0-.4-.5-1-.9-1.5-1.3-.8.2-1.2-.7-1.7-1.1-.4-.3-.8-.6-1.3-1-.1-.1-.3-.1-.4-.3.3-.9 0-2.2.9-2.9.5.2 1 .2 1.5 0 .1.5-.2 1.1-1 1-1.2 2.1 1.8 2.3 2.4 3.6 1 .1 1.8 1.1 2.4 1.8 1.3 0 1.5 1.2 2.5 1.6.1.9 1.3.7 1.2 1.7 1.2 1.1.8 3.2 1.7 4.8.2 0 .1-.2.3-.2-.2-1.2-.8-2.5-.7-3.7-.1-.5-.9-.4-.7-1.2.4-.3 1.2-.2 1.4.4h.8c.2.2.5.4.6.7.3 0 .4-.2.6-.3 1.5.4 3.3-.2 4.8.4 2.5-.4 5.5-.2 7.5.1.5-.3 1.2.2 1.6-.5-.1-.5-.7-.1-1.1-.4 0-.1 0-.2-.1-.3.1-.4 1-.6 1.3-.3.2-.6.9-.2 1.4-.3s.9-.6 1.4-.3c.6-.5 1.3-.9 2.1-1.2.3-.2.3-.8.8-.8 0 .3.2.4.2.8-.8 1.3-2.3 1.9-3.8 2.3-.1.3-.3.7-.2.9.9-.1 1.8-.1 2.6-.3.5-.1.5.2 1-.1.5-.2 1.2-.7 1.6-1.2.2-.2.2-.6.3-.8s.4-.2.5-.3c.2-.2.1-.6.3-.9.5-1 1.3-3.3.5-4.6-1.7-1.8-4.9-1.5-7.4-2.1-.2 0 0 .4-.2.4-1.2.3-2.5.7-3.8.8-.3.2-.7.3-.9.5-1.2-.2-1.9.1-2.8.4-1.8-.5-4.5.1-6.6-.5 0-.3.2-.4.1-.7 2.4-.1 3.9 0 6.6.3.3 0 .3-.3.5-.3 1.2.1 2.4-.3 3.5-.7.5 0 .9 0 .9-.4-1.4-.2-3.2.1-4.7-.1-1.4.2-3.1-.1-4.3.3-.5.1-1-.3-1.6-.3-.4 0-.7.3-1.1.3s-.7-.2-1.1-.2c-.7 0-1.4.3-2.2.3-1.3 0-2.4-.3-3.5-.4 0-.2-.3-.3-.3-.6.3.1.7-.3 1.1-.3.3-.1.3.2.5.3.9-.3 1.8.3 2.6.2.2 0 .5-.3.8-.3.3-.1.6.1.9.1.2 0 .2-.3.3-.3.3 0 .8.1 1 .1s.5 0 .6.3c.4-.5.7.1 1.2-.3.3.1.7.1.8.3 1.1-.6 3-.2 4.7-.3.3 0 .3.3.5.3 1-.6 2.5 0 3.5-.3.3-.1.3.2.5.3.3-.3.8-.2 1 .1.5-.5 1.2.3 1.9-.3.8.7 2.1 0 2.8.8.3 0 .2-.2.3-.3.6.2 1.3.8 1.7.5.1.2.5.2.5.4 1.2-.1 2.9 1.8 3 2.8 0 .5-.4 1-.2 1.6-.3.6-.5 1.2-.6 2.1-.4.6-.9 1.1-1 2-.5.6-1.1 1.1-1.6 1.7-.4.3-1.1.3-1.6.7-.1-.1-.4-.1-.5-.2-.9.3-2 .4-2.8.2-1.2 1.3-2.7 2.5-4.8 2.7-2.9.9-6.3 1-9.6 1.4-.2.2.2.3.1.7-.1.2-.3.3-.4.4-.3 1.4-.8 2.4-1.1 3.7-.1 0-.1.3-.3.2-.2 1.1-.4 2.3-1 3 .1.5-.1 1.3-.6 1.5-.2 1.5-.5 2.9-1.3 3.8-.2 2-.9 3.4-1.5 5-.3.1-.6-.3-.7.1.9.4 1.5 1.2 2 2 .1 1.1-.5 1.7-1.4 1.8-.3 1.2-1.3 2.6-.9 4 .9 0 1.7.6 2.7.6.7 0 1.5-.3 2.1.3.4-.2.6-.6.7-1.2.9-.1.8-1.9 1.7-1.5.4-1.4 1.9-1.8 2.8-2.8.2-.1.2.2.3.2.4-1 1.7-1.1 2.4-1.8.2-.1.2.1.4.1 1.8-1.5 5.6-2 7.9-1.8 1-.4 2.6-.4 3.5-.5.3 0 .3.1.5.2 1.1-.3 3.4-.1 4.5.8 1.1-.4 1.8.4 3.1.3.8.8 2.3.8 3 1.6 1.4-.2 1.7.7 2.8.9.1.4.6.3.7.8.6 0 .5.3.9.3.5.9 1.4 1.4 2 2.2.5-.1.8.1 1.1.3.5 1.2 1.5 1.8 2.2 2.8.1.4-.2.3-.2.6 1 .9 2.3 1.4 2.4 3.1 1.3 1.4 1.8 3.6 2.8 5.3.9-.3 2.2.5 2.4 1.5-.1 1.7.6 3.6 0 5.3.4 1.1.5 2.5.3 3.7.5 1.4.8 2.9 1.6 4-.9 1.5-2-2.1-2.3-3-.6-1.7-.7-3.1-1-4.7-.5-2.1-1.4-3.8-1.6-5.7-1.5-3.1-2.6-6.7-5.1-8.8-.3-1.5-1.6-2.3-2.3-3.5-2.1-.9-3-3-5.4-3.5-.1-.2-.3-.4-.5-.5-1.9-.1-2.7-1.2-4.2-1.7-1.1-.1-2.2-.1-3.2-.4-.1 0-.3-.3-.4-.3-.2-.1-.5.1-.7 0-.1 0-.3-.3-.4-.3 0 0-.4 0-.5 0-1-.1-1.9.2-2.9-.1-2.5.5-5 .5-7.2.9-.6.4-1.1.2-1.7.3-1.4.3-2.1 1.6-3.7 1.7-.2.2-.4.4-.5.7-1.2.3-1.5 1.5-2.7 1.9-.5 1.2-1.7 1.6-2.2 2.8.6.4 1.2.8 1.9.9.8.9 2.3 1.5 2.8 2.9 1.2.9 2.2 1.9 2.8 3.4 1.3-.9 2.3-2.7 3.8-2.8.3-.8 1.1-1.1 1.7-1.6h.5c.3-.1.4-.3.6-.4.7 0 1.4-.5 2.2-.5 1.5 0 3.6.1 5.2.3 2 .3 4.3.7 5.3 1.9 1.1.2 1.6 1 2.3 1.6v.4c.9.4 1.2 1.4 2.3 1.5.2.8.9 1 1 1.7 0 .2.3.1.3.2-.1.9.6 1.1.7 1.9.2.1.2.4.6.3.6 1.3 1.3 2.9 2.1 4.1.7 3.4 1.8 6.7 1.9 10.3.1 2.4 1.1 4.7.4 7.2.2 1.4-.5 3.3-.9 4.6-.1.3.1.3.1.5-.6.4-.3 1.8-1 2.1-.3 3.4-2.2 6.6-4.3 8.8v.5c-1.7 2.4-3.6 4.6-6.4 5.9-1.7 1.4-3.6 2.9-5.7 3.7-.4.1-.4-.2-.6-.3-1.9.9-4.3.7-6 .8-.6-.4-1.5-.2-2.2-.3-.5-.1-.7-.2-1.2-.2s-1 .1-1.5-.1c-.2-.1-.3-.6-.9-.4-1.3-1.6-4.4-1.6-5.5-3.8-2.2.8-4.3.6-6.1 1.7-.2-.1-.5 0-.6-.2-.3.5-1.3.4-1.6.2-.3 0-.3.2-.5.3.5.7.8 1.5 1.3 2.2 1.4.9 3.2 1.6 4.1 3 .3 0 .5.2.9.2.6.8 2 .8 2.7 1.6 1.1.2 2.2.8 3.4 1.1.8-.1 1.1.3 1.7.6.7-.1 1 .3 1.6.4 1.5.4 3.3.5 5 .9.9-.4 2.4 0 3.2-.4.2.1.5-.1.5.1 1.2-.4 3.1-.6 4.1-1.5 1-.3 1.9-.8 2.7-1.3.4-.2.6-.7.9-.9.9-.7 1.9-1.3 2.8-2.1.5-.4.8-1.1 1.3-1.5 1.1-.9 2.3-2 3.3-3.1.9-1 2-2 2.8-3.2 0-.5.4-.7.4-1.2.7-.5 1.2-1.3 1.5-2.2 2.3-2.6 4.2-6.5 4.7-10.3 1.5-3.4 1.5-8.1.9-12.1.1-.3-.3-.1-.3-.3.2-.7-.4-1.2 0-1.6-1.4-3.3-1.4-7.2-2.6-10.8-.5-.6-.7-1.9-1.1-2.8-.4-.8-1.2-1.3-1-2.2.5-.1.8.5 1 .9.5.6 1 1.2 1 2.2.7 1.6 1 3.1 1.6 4.7-.1.2-.2.5.1.6.2 1.7.6 4.2 1.3 5.9-.1.8.5 1.8.3 2.7.4.4.5 1.1.3 1.6 1.2.6 1.7.1 3 .3.7.3 1.3.8 2.2 1.2.3-.1.4-.4.9-.3.7-1.9-2.2-3.1-1-4.9.5 0 .6.4.6.9.3.9 1 1.5 1.3 2.5.1.2.2.3.3.4.1.5-.1.8-.1 1.4-.5.7-1.9.9-2.8.9-2.7.3-4.2-.2-5.8 0zm1.7-18.5c-.3-.3-.7-.5-1.2-.5.4 2 1.1 3.7 1.6 5.6.2-1.5-.2-3.5-.4-5.1zm-21.1 44.2c1-1 2.2-1.9 3.4-2.5.2-.4.8-.9 1.2-.9 1-1.9 2.3-3.5 3.8-4.9 0-.2 0-.3 0-.5 1-.7 1.4-2.1 2-3.3.4-1.8 1.1-3.3 1.6-5 .1-.5.2-1.2.3-1.7.3-1.6.8-3.3.9-4.9 0-.5-.2-1-.3-1.5-.1-.7.1-1.4-.1-2.1-.1-.4-.4-.7-.2-1-.3-1.8-.6-3.3-.8-4.7-.5-4.4-2.4-7.7-4.1-10.9-1.1-1.4-1.5-3.4-3.4-4-.8-1.3-2.3-2-3.1-3.3-.4.2-.6-.3-.9-.4-1 .2-1.5-.5-2.5-.3-.1-.2-.3-.3-.3-.5-1.9.5-4.3-.7-6.5-.1-.2 0-.2-.2-.4-.2-.2.4-.8.5-1.5.4-.8.7-1.7.6-2.3 1.6-.3 0-.4.2-.7.1-1 1.1-2 1.8-3 2.8.5 2 2.3 3.1 2.6 5.1.8 1.2 1.6 2.4 2 4 .9 1 1.9 1.8 2.1 3.4.2.2.4.3.5.5v.4c.9.3.7 1.9 1.5 2.3.2.9.7 1.5 1.1 2.2.2-.2-.1-.3.1-.4.5-.4 1.4-.1 1.8-.2 1.1-.1 3.1.1 3.8 1.2.4.1.6.3.9.3.3 1.3 1.5 3.2 1.6 4.7 0 1-.3 2.7-1.3 2.7.9-2.6-.6-4.6-1-6.8-.7-.6-1.8-.8-2.3-1.6-.8.5-2.2.1-3 .5-.1.3.4.1.4.3.2.5.4 1 .4 1.7.4.2.7.5.7 1.1 1.6.8 4.3.9 3.7 3.6.9.4.5 1.5.9 2.4.1-.3.1-.7.4-.7 0 .2.4 0 .3.3-.1.7-.2 1.5-.8 1.7-.2 1.6-1.4 2.3-2.8 2.8-.8-.4-2.6.5-3.5-.8-.5 1.5-1.6 2.3-1.9 4-.2.1-.4.2-.6.3 0 .4-.2.5-.2.9-.2 0-.2.1-.3.1-.5 1.4-1.5 2.3-2 3.7-.3 0-.2.3-.5.2 0 .4-.2.5-.3 1-1 .6-1.6 2.3-2.8 2.7-.5 1.1-2 1.3-2.4 2.5-1 .4-2.4.5-3.4 1.3.2.6 1.3.3 1.4 1 .5-.1 1.2.3 1.5.8 1.4.2 1.9.9 3.1 1.3 1.8 0 4 .2 6.1.5 1.5-.5 2.5-.4 4-.9.3 0 .3.3.6.3 1.6-.6 2.8-1.9 4.5-2.6zm-1.1-19.4c-1 .1-1.7.5-2.5.3-.4-.6-.8-1.1-1.6-1.3-.3 1.1-.9 2-1.2 3 1.2.5 2.5.5 3.6.5.8-1.1 2.1-1.2 2.2-3-.2-.1-.2.4-.5.5zm-8.7-68.3c-.1-.4.2-.3.2-.6-.3.1-1 0-.9.5.3.1.5.3 1 .3 0-.1.1-.1.1-.3-.2 0-.2.1-.4.1zm-2.1 1.3c-.1.3-.4.4-.6.6-1.2.1-2.4 1.1-3.5.7 0 .3-.3.4-.5.4-1-.2-2.3.2-3.4-.1-1.1.5-2.1-.1-2.8.8-.3 0-.4.1-.6.2 0 .2.2.2.1.4.7 0 1.9-.9 2.9-.3 2.4-.4 5.7-.9 8-1.3.4-.8 1.5-.9 1.9-1.7-.7-.1-1.1.4-1.5.3zm-2.6-.1c.2 0 .1.3.3.3 0-.5.4 0 .3-.4-.2.2-.4-.3-.6.1zm-3.6-.4c0 .2-.1.3-.3.3-2.7-.3-4.7-.4-7.3-.3-.4-.3-.5-.5-.9-.6.3.9.5 2.5.9 3.5.4 0 .8.2 1.4.1.7-1.3 2.2-1.8 3.8-1.6.2 0 .2-.3.4-.3.5.2.8-.1 1.3.3 1.4-.7 3.3-.1 4.2-1.1-1.2-.1-2.3.1-3.5-.3zm-9.8 14.2c.1-.1.3-.3.4-.4.4-1.8 1-3.8 1.9-5.4 0-1.5 1.1-2.4 1.2-3.6-.9 0-1.3-1.1-2.2-1.4-.5 3.2-2.3 5.7-2.8 9.1-1.3 2.7-2.1 5.9-3.2 8.8.8.2 1.3.7 2 1 .6-3 2.1-5.1 2.7-8.1zm-12.3-36.5c.2.7-.8 1-.8 1.7.6.3 1.2.1 1.7.2.4 0 .5.3.6.3.7.3 1.9.1 2.5.3.1 0 .2.3.3.3.6.3 2.3.5 3.2.9.4.2.6.5.9.5 1.1.2 2.1.1 3 .3.2.2.3.5.5.7.6-.6 1.5-1.2 1.7-2.2.1-.5-.1-1.1.3-1.6-.8-1.2-1.5 0-2.8.2-.7-.8-1.9-.1-2.5-1-2.9-.7-5.1-1.2-7.9-1.3 0 .2-.4.9-.7.7zm10.6 47.4c-.5-.9-1.2-1.5-2.2-1.9 0-.2-.2-.2-.1-.4-.5-.3-1.2-.5-1.7-.8-.5.4-1.4-.3-1.6.5 1.3-.2 1.7.3 2.9.5.5.6 1.7.5 1.6 1.6.3.1 0 .9.4 1 .2-.2.4-.4.7-.5zm-3.3-38.1c-.3-1.3-2.6-3.6-4-3.2-.1-.2-.6-.1-.6-.5-.5.3-.8-.2-1.2 0 0-.2-.1-.2-.1-.3-.9 0-1.4-.3-2.4-.3-.4-.1-.6-.5-1-.3-.1.1-.1.6 0 .7.4 0 .8-.2 1 .1 0-.3.3 0 .5-.3 1 .7 2.2 1.2 3.1 2 .5-.3.5.5.9.2.1.4.5.4.8.5.1 1 1 1.1 1.7 1.5.1.6.5 1 1 1.1.4-.3.3-.8.3-1.2zm-3.1 35.3c-.3 0-.7.5-.4.8.2-.4.4-.4.8-.3 0-.2.3-.1.3-.3-.2-.1-.7.3-.7-.2zm-3.2-50.5c-.1-1.3-.3-3.3-1.3-3.6.1-.3-.1-.3-.1-.5-2.4-1.3-5.4-.9-7.7-.1-.5 1.2-1.1 2.4-1.5 3.8.1.2.4.1.3.4-.8 1 .5 2.4 1.3 2.4.5 0 1.6-.8 2.2 0 .1.3-.2.3-.2.7.7.2 1.3-.1 1.8.4.2-.3-.1-1.1.3-1.2.3.2.4 0 .7.2-.1 1.9-.7 4.4-1.8 5.9.1 1.1-.8 1.4-.5 2.3.9.3 1.6-.3 2.4.2.8-.9.8-2.7 1.7-3.4.2-1.8 2.2-2.2 1.6-4.3-.7-.1-1.5-.5-2.2-.2 0-.6-.4 0-.6-.3 0-.1-.1-.1-.1-.3.9-.8 2.4 0 3.4-.2-.3-.6.4-.8.2-1.3-.5-.2-1-.3-1.6-.6-1.2.3-2.2-.7-3.1-.2-.4-.3-1-.2-1.6 0-.9-.8-2.5.8-3.5.2.1-.3-.1-.3-.1-.5.9-.1 1.7-.6 2.7-.6.4 0 .7.2 1 .2.9 0 1.9-.3 2.9-.2 1.1.1 2.3.4 3.2.9-.1-.1 0-.1.2-.1zm-9 3.4c.5 0 .6.1.9-.1 0-.1 0-.2-.1-.3-.1.4-.6 0-.8.4zm-160.9 154.1c.6.3.7.8 1.1 1.3 0 0 .3 0 .4.2 0 .1 0 .3.1.3.1.1.3-.1.3 0v.3c.5.4 1.1.4 1.6.6.6.2 1.2.8 1.9 1 .8-.2 1-.9 2-.7 1-.7 2-.6 2.8-1.5.2-.2.3-.6.4-.8.5-.6 1.5-.9 1.6-1.9.5-.4 1-.8 1.4-1.3.1 0 .1.1.3.1 0-.3.2-.5.3-.7 1.4-.4 1.1-2.5 2.2-3.4 0-.2-.2-.3-.1-.5 1.8-2.6 1.8-6.8 3.4-9.5-.2-1.4.6-2.7.4-4-.3.6-.7.9-1.2 1.2-.1.4.1.4.1.8-.4 1.6-.5 3.8-1.3 5.2 0 .2.1.3.1.5-1.2 1.8-.6 4.9-2.4 6.1-.1-.9.1-1.4.4-2.4.4-1.2.6-2 .9-3.2.4-1.6 1.3-3.4 1.1-4.8.1-.2.2-.5.3-.9-.6 0-1.1 1.3-1.9 1.1 0-.4.3-.5.2-1 .3-.6.9-.7 1.3-1.1.3-.4.2-.8.3-1.2.2-.4.5-.7.7-1.1.7-1.5.9-3.5 2-4.7.2-2.3.6-4.7.9-7.1.2-1.4.2-2.8.4-4.3.5-3.4 1.2-7.1.6-10.6-.2-.1-.4-.3-.4-.5-.1-.9.3-1.1 1-1.3.1 1-.4 2.1.4 2.7-.2.7.3 1.4-.1 2.1.4.1.2.4.3.6 1.9.6 3.5 1.2 5 2.1 1.8-.2 2.8.8 4.2.5.1.1.1.3.3.3 1.4-.4 2.6.2 4 .8.2-.5.3-1.2.6-1.6-.3-.3-.4-.4-.2-.9-.2-.3-.3 0-.5-.2-1.3-2.6-2.5-5.3-4-7.8 0-.1 0-.3 0-.4-.3 0-.3-.2-.4-.3 0-.2-.1-.3-.1-.6-.9-1.2-1.7-2.5-2.1-4.2 0-.2.4-.1.3-.4-.3-.3-.8-.5-.9-1.1.1 0 .1-.1.1-.2h.6c.2.1 0 .5.3.5 1.4.7 2.8 2.1 3.6 3.5.6.3 1.4.6 1.6 1.5 1.1.3 1.3 1.4 2.2 1.9 1.1 1.3 2.4 2.5 3.6 3.6 0 .2 0 .3.1.4 1.1.4 1.7 1.2 2.2 2.2.5.3 1.5.9 1.8 1.7.7.3 1.1.9 1.8 1.2.7 1.2 2.2 1.7 2.7 3.2.5-.1.3.4.8.3v.3c.9.5 1.7 1.1 2.1 2 .4 0 .6.2.6.6 1.5.5 2 1.5 3.4 1.9.1.2.2.3.3.4.2 0 .2-.1.3-.1 0 .2.2.2.2.4.9-.1 1.5-.8 2.3-.5 1.1-1 2.8-.2 4.2-1.1 1 .3 2.1-.5 3.2-.1.7-.6 2.2-.7 3.4-.8.8-.5 2-.7 3.3-.7.3-.5.9-.3 1.4-.3 1 0 1.9-.4 2.9-.7.2 0 .1.3.3.3.1-.2.2-.5.5-.5.7.1.9.2 1.5.1.5-.6 1.4-.2 2.2-.7 1.8.1 4.4-.5 5.9-1 .3.2.5 0 .8-.1 1-.2 2.1-.1 2.8-.6.1 0 .1.2.3.2 0-.4.4-.2.6-.4 2.4-.3 5.1-.4 7.7-1.2.2 0 .1.4.4.3-.1-.4.3-.4.4-.6.8 0 1.7-.5 2.8-.3 1-.5 2.4-.9 3.4-.5.2-.4.7-.5 1-.5s.6.1.8.1c.6-.1 1.1-.6 1.7-.3 1.2-.7 2.6-.6 3.9-.9 1-.8 2.9-.7 4.4-1.1 1-.3 1.4-.6 2.2-.6.9 0 1.7-1 2.7-.6.4-.3.7-.4 1.4-.3.8-.4 1.8-.7 2.8-.7 1.5-.8 2.6-.8 4.1-.9 1.9-1 4-.5 6-1.5.7.2 1.3-.6 2.2-.4.4-.3 1.1-.6 1.6-.4.5-.4 1.2-.6 1.8-.5.1-.4 0-.8.2-1.1.2.1.3.2.6.2.1-1.2.6-2.3 1-3.4.1-.4.1-.9.3-1.4.1-.4.4-.7.5-1s0-.6.1-.9c.2-.7.8-1.1.7-2 .2-.3.3-.6.6-.9.4-2.6 1.4-5.2 2-7.7.6-1 .4-2.3 1-3.2-.2 0 0-.3-.1-.4.9-2.7 1.8-5.5 2.8-8 0-1.3.8-2.9 1.3-4 0-1.1.8-2.4 1.1-3.3-.3-.7 0-1.4.3-2.1.1 0 .1.1.3.1 0-.4-.2-.1-.3-.3.5-.8.4-2.1 1.3-2.4 0-.3 0-.5 0-.8-.3 0-.2.3-.5.3-.8-.1-.9-.2-1.8 0 .1.3-.3.2-.4.3-1.6.2-2 .3-3.3.5-.9-.4-1.3-.2-2.1-.4-.6.1-1.2.5-1.7.2-2.7.7-5.7.4-8.4.9-3.1-.3-5.5 1-8.8 1.2 0 .3-.1.4-.3.5-1.9.5-3.4.4-5.1.8-.9.3-2.1.6-3.1.7-1.6.6-2.8.8-4.7 1.1-2.3.4-4.3 1.1-6.8 1.4-.5.3-1.1.4-1.8.3-.3.1-.5.3-.8.3-.3.1-.2-.2-.5-.2-.4.5-1.4.4-2.2.5-.9.7-2 1.1-3.4 1.1-.3.2-.8.2-1.1.4-.2 0-.3-.1-.4-.2-.1.3-.5.3-.9.3-1.8.8-2.8.9-4.8 1.6-.1 0-.5.1-.5-.1-1.7.7-3.4 1.1-5.3 1.4-.9.6-2.8 1.4-4.2 1.2-.5.7-1.4.3-2.1.3-.4 0-.9.4-1.5.5-.3.1-.6-.1-.9 0-.9.2-2.1.8-3 .6 0 .2 0 .5-.2.5-1-.2-2.5 1-3.5.6-.5.8-1.6.7-2.5.9-1.1.4-2.3 1.1-3.4 1.1-.5.4-1.1.7-1.9.8-.9.4-1.7.9-2.8 1-.1.2-.2.3-.3.3-1.3.2-2.1.6-3.2 1.2-.2 0-.3 0-.5 0-4.3 2.4-9.9 3.1-13.9 5.9-4.2 1.2-7.1 3.4-11.1 5-1.4 1.1-3.9 2.6-5.4 1 .1-.9.9-1.7.9-2.8 0-1.2-.9-2.2-1.8-2.8.4.8 1.2 2.1.9 3.9-.5 1.2-1.8 1.9-3 1.6-2.1-.8-1.3-4.8.3-5.5.4.1.3.3.7.2.2-.2-.1-.4 0-.7.4 0 .6-.5.9-.8 2.9-1.2 5.2-3 7.9-3.8.1-.2.2-.5.5-.5.2-.2.2 0 .3.1.6-1 1.9-.8 2.5-1.6.1 0 .1.2.3.2.2-.5 1-.5 1.1-.9-1.3-.1-3 .6-4.4.9-.6 1.2-2.2.6-2.8 1.4-1.5.2-2-.7-3.1-.3 0-.2-.1-.3-.3-.3-.3.3-.6 0-1 .2-.3-.3-.6-.5-.9-.8.1.3-.3.1-.4.2-1.3-.3-2.6-.6-3.8-1-.2 0-.4.1-.5.2-.1-.2-.4-.1-.4-.3-.3.4-1-.1-1.1-.1 0 0-.1.2-.3.2-.3-.1-.4-.3-.6-.3-.3-.1-.6.2-.9.1-.8-.1-1.4-1-2.3-.9-.9-1.3-4-.5-4.7-2.2-2.4-.6.8-3.1.7-4.7-.2 0-.4 0-.5-.1-1.6 1.1-3.6 2.1-5.7 2.8-.2.2-.4.4-.6.5-1.5.3-2.2 1.4-3.8 1.6-1 1.1-2.6 1.6-4 2.3 0 .4.4.3.4.6-.2.1-.1.4-.3.4-.4 0-.9-.4-1.2-.3.1.5 1 .4 1.3.8.1.6.7.8.9 1.3.5 1.5-.4 2.8-1 3.8-.4 0-.6.2-.8.4.9.3 2 0 2.6.1.1-.5 1.2-.3.9-1-.2-.2-.4.2-.6 0-.3-.7.1-1.7.2-2.5-.4-.8-.6-1.7-1.6-1.9-.1-.1-.2-.6.1-.6 2.2 0 2.4 2.2 2.2 4.2.6 0 1.3.3 1.6.8 0 .8.3 1.3.4 2 .4-.1.4.2.7.3.9 1.4 1.2 3.2 2.4 4.2.2 1.1 1.3 1.7 1.3 2.8.2.2.4.4.6.6 1.4 0 2.5.2 3.5-.7.3-1.3 1.5-1.7 1.8-3 .4-.4.9-.8 1.3-1.1.3-.1.8-.1 1.1-.2.6.5 1.3 1.3 1.8 1.6.3 1 .1 2.4-.7 2.8-.7-.6.2-1.3.2-2-.1-.9-1-1.2-1.6-1.7-.9.2-1.2 1-1.8 1.5 0 1.1-.7 1.6-1.5 2 .2.8-.5.8-.7 1.2.9 1.2 2.3 1.9 2.6 3.8h.7c.9 1.6.9 3.7.7 5.8-.1.6 0 1 0 1.6.1 3.2-1.3 6.4-.9 9.6-.1.2-.3.3-.3.6.2 1.6-.3 2.6-.5 4-.6 3-.8 6.6-1.6 9.1.1.2.1.4.1.7-.5.7-.2 1.8-.7 2.5-.2 0-.2.1-.3.1-.4-1.8.3-3.2.7-5.2-1.4 1.7-2.1 4-2.6 6.6 0 .4.3.4.3.9-.5 0-1 0-1.1-.3-.1-1.1.1-2 .5-2.6 0-.8.4-1.7.9-2.2-.1-.8.6-1.2.9-1.8.1-.2 0-.5.1-.7.1-.3.5-.4.6-.7.2-.5.3-1.3.5-1.9.2-.5.5-.8.6-1.2.1-.5 0-1 0-1.5-.9 1.5-1.7 3.2-2.4 4.9-.2.1-.3.2-.5.3-.3.6-.4 1.4-.8 2.2-.1.2-.3.2-.4.4s0 .5-.1.7c-.5 1.3-1.9 2.5-1.8 3.8 0 .3.3 1.2.5 1.6.7 1.1 2.5 1.3 3.3 0 .1.2.5 0 .5.2 0 1.2-1 1.2-1.5 1.8-.2-.2-.6.2-.9.2-1.8-.4-2.6-1.6-2.8-3.5.4-.4.3-1 .4-1.6.1-.5.6-1 .9-1.6.1-.2.1-.5.2-.7 0 0 .2 0 .3-.1.5-1 .7-2 1.2-2.8h.3c0-.2 0-.3 0-.5 1.4-1.4 1.6-4.1 3-5.6.2-1.1 1.2-1.9 1.5-3 .5-1.8.2-3.8.7-5.5-.1-.1-.1-.4-.3-.5 0-.2.1-.3.1-.6-.5.3-.7-.2-1.2-.2-.2.1-.2.4-.5.3-1.7-.2-3.2.4-4.8.5.1-.6-.4-.5-.9-.5-.3.3-.9.5-1.4.5-.2.5-.7.6-.9 1-.8.3-1.3 1.6-2.2 1.3.3-.8.5-1.6 1.5-1.8.3-1 1.6-1.2 2.2-2-.2-.1-.1-.4-.3-.6-.6.5-1.5 1.1-2.2 1.2-.3.7-.8 1.1-1.5 1.4.1-.5.2-.9 0-1.3.9-1 2.2-1.4 3.5-2-.1-.7-.5-1.1-.7-1.6-1.2-.4-1.8-2-3.1-1.5-.2 0-.1-.3-.3-.3 0 .1-.1.2-.2.3-.5-.3-1.2-.1-1.7-.3-1.7 1.5-3.8 2.7-5.3 4.1 0 .3-.2.4-.1.7-1.2.6-1.4 2.1-2.7 2.7-.3.7-.7 1.3-.9 2.2-1.5 1.7-2 4.5-3.2 6.6-.1 1-.7 1.9-.9 2.9s-.4 1.3-.6 2.1c-.2.7-.1 1.6-.3 2.3-.1.3-.4.5-.4.8-.2 1.2-.2 2.4-.3 3.4-.4 2.1.3 4.4 0 6.6l.3.6c-.2 3.4 1.5 5.5 1.7 8.5.3 0 .4.2.5.3.9 1.8 1.4 3.9 3 4.9.1.5.5.8.6 1.4.9 1 2 2 3.2 2.8 0 .2.2.2.2.4 1.4.7 2.4 1.7 4.4 1.6 1.1.7 2.8.4 4 1 .2-.3.6-.3.8 0 .3-.3 1.2-.4 1.6-.3.1-.1 0-.3.3-.3 1-.1 2.1-.5 3.5-.8 1.8-1.8 4.7-1.9 5.7-4.6.3.1.3-.1.4-.2.6-1.5 1.6-2.6 2.6-3.7.1 0 .1.1.3.2.5-.9.6-2.3 1.5-2.9-.1-1.4 1.5-1.6 1.1-3 .4-.5.4-1.5.9-2 0-1 .6-1.5.8-2.3.1-.4-.1-.4-.1-.8.5-.2.4-.8.7-1.5s.8-1 .5-1.6c1.5-4.2 2.3-10 2-14.7-.4-.9-.7-2.7-.4-3.7.6.2.6 1 .9 1.6.7-.4 2.1-.5 3.4-.7-.4-.4-.5-1.1-1.1-1.3-.8-1.5-2.3-2.3-3.4-3.5.2 1.1.6 2 .3 2.9-.3-.3-.7-.4-.9-.8.2-1.1-2.5-3.9-.3-3.8.2.6.4 1.2.9 1.5 0-.2 0-.5.2-.5.2.8 1.4.5 1.4 1.5.3 0 .5.1.7.2.1-.4-.3-.5-.1-.9-.2 0-.4-.2-.5-.3-1-2.4-2.3-4.7-3.7-6.7.3.6-.4.8-.5 1.4-.2 1.1.4 2.4-.1 3.7-.1 0-.2.1-.3.2.4 1.8-.5 3.3-.4 4.7-.1.4-.5.4-.5.8.4.5.2 1 .2 1.5-.3 1.6-.1 4.1-.9 5 0 .9-.6 2.7-1.1 3.5-.2.3-.4.1-.3.4 0 .3.2.6.6.7.1-.2.2-.5.5-.4.2 0 .2.2.3.3 0 .3-.2.3-.1.6.8 1.9-.9 3.6-.7 5.5-.6 1.7-1.3 3.4-1.6 5.4-.1.1-.3.3-.4.4 0 .2.1.2.1.3-.4.6-.7 1.2-.9 2.1-.8 1.1-.7 2.3-1.5 3.2-.7.8-1.9 1.3-2.4 2.1 0 .3-.2.4-.2.7-1.2.2-1.1 1.7-1.8 2.4-.1.1-.4 0-.4.1-.2.1-.4.5-.6.6-1.1.7-2.5 1.2-4.4 1.4 0-.2 0-.4-.3-.3 0 .2 0 .4-.2.5-.7.2-1.6.5-1.9-.3-1.9-.3-3.3-1.9-4.5-3.4-.1 0-.4.3-.4.2-.5-.8-1.3-1.3-1.6-2.3-2.2-2.1-2.7-6-2.9-9.7-.7-1.6-.7-4.3-.4-5.9.3-1.8.3-4.3.8-5.9.1-.2.3-.3.4-.5.5-1.2.2-2.7 1-3.5.1-.3-.2-.3-.1-.5.8-1.3 1-3.1 1.9-4.3-.1-.3.1-.4.1-.7.7-.9 1.2-1.8 1.8-2.8.7-1 1.5-2.4 2.6-2.8.1.2.2.4.2.7-.5.7-1 1.4-1.5 2.2-.9.3-.8 1.7-1.7 2-.3 1.3-1.1 2.6-1.6 3.4-.7 3-1.5 5.7-2.6 8.3.1.3.1.7.1 1-1 2.2-.4 5.8-.6 8.1.6.6.3 1.5.4 2.2 0 .4.3.7.3 1.1s-.2.8-.1 1.2c.1.6.6 1 .3 1.6 1 1.5 1.5 3.6 2.8 4.8 0 .2-.1.2-.1.3-.2.4.2.9.7 1.2zm155.5-126.8c-.8-.2-.6.7-1.4.5-.1.5-.5.6-.8.9 0-.1-.1-.1-.3-.1-1.5 1.2-3.2 2-4.8 2.8-.1-.1-.2-.1-.4-.1-.5.6-1.2.7-2 1.2.9.2 2 .2 2.1 1.2.1.6-.4 1.3-.8 1.8-.2.9-.5 1.5-1.6 1.4-.5-1.1.5-1.1.9-1.6s.4-1 .5-1.7c-.3-.3-.6-.2-1-.3-.3.7-1.4.6-1.5 1.4.6 0 .9 1 .9 2.1-.3.3-.5.7-.6 1.1 3.8-1.8 7-4.1 9.9-6.7 0-.3-.1-.3 0-.6.2-.1.4-.3.7-.3 0-.9.2-2.1.2-3zm-3.6 7.6c-.8.5-1.7.9-2.5 1.5-.6.4-1 1.2-1.9 1.2-.3.3-.6.6-1.1.6-.4.5-1.3.9-2.3 1.1-.9.7-2.2 1.1-3.5 1.4-3.1.7-6.2 1.9-8.7 1.6-1.1.3-2.6.2-3.7.3-.4 1.8-1.7 2.7-2.1 4.5-.9.5-.9 1.8-1.6 2.4-.7 2.6-2.3 4.3-3.3 6.6.4 0 .5-.3.9-.3.1.2.1.5.3.5.2-.7.8-.9 1.4-.6.6-.3 1.1-.7 2-.5 1-.6 2-.4 2.8-.4.1-.1.1-.3.3-.3 1.2 0 2.9-.5 4-.3.4-.4 1.4-.5 2-.2 1.7-.9 4.1-.5 6.3-.9.8-1 1.3-2.3 2.4-3.1-.1-.3.1-.3.1-.5 1.6-1.4 2.5-3.6 4-5.2 1.9-3.9 4.4-7.2 6.5-10.9-1 .3-1.5 1.1-2.3 1.5zm-17.1 3.1c-.3-.7-.9-1.2-1.9-1.2-.6 1.7.8 2.3 1.6 3.2-.1.1 0 .4-.2.5-1.4.1-2.4-1.6-2.5-3.1.2-.2.3-.5.3-.9 1-.4 2.7-.4 3.1.6.4-.2.5.6.9.6.3-1 .7-1.8 1.2-2.5-.4-.8-.4-1.9-1.4-2.1.1 1.1-.4 2.2.3 3-.1 0-.1.1-.1.3-1.3.7-1.2-.9-1.5-1.7-.6.6-1.4.3-2 0-.8 1.4-1.7 2.7-2.3 4.3.5-.3.7 0 1.1.2 0 1-.9.9-1.6.6-.1.7-.7.9-.8 1.6.9 0 1.3.1 2 .3.6-.2 1.1-.5 1.6-.1 2.5-.5 4.9-1 7.5-2-.5 0-.6-.4-.6-1 .6-.2 1.8-.3 1.9.8.9 0 1.2-.5 1.7-.9-.4 0-1.2 0-1.4-.3.1-.3.1-.6.4-.7.8.2 1.2 0 1.9-.3.2-.7.2-1.5-.3-1.9-1.1 0-1.2 1-1.9 1.4-.8-1.1.4-2.4 1.5-2.2 0-.5.8-.6.5-1-.9.2-1.5.7-2.4.9-.3.5-.4 1.1-.9 1.3.1 1.3-.2 2.2-1 2.6-.2-.3-.9.1-1-.4.2-.5 1-.5 1.2-.9.1-.9-.4-1.2-.9-1.5-.6.2-.6 1.1-1.4 1.1.1.5-.9 1-.4 1.9-.2.3-.3.6-.7.7-.1 0-.2-.1-.3-.1 0-.3-.2-.5-.3-.8-.2 0-.3 0-.5 0-.1.7.4 1 .2 1.6-1.3.9-1.8-2.1-.6-1.9zm2.6-22.6c0 1-.3 1.5-.4 2.2.9-.2.9-1.4.4-2.2zm.1-.7c-.3 0-.3.2-.3.4.5 0 .4-.1.3-.4zm-1.3 7c-.8 1.4-1.9 2.7-2.1 4.4.9-.1 1.4-.3 2.1-.1.1-1 .2-3.1 0-4.3zm-12.8 14c-1.4 1.7-1.8 4.4-2 6.8.7.1 1.2-.5 1.6-1-.8.1-.3-1.7 0-2.1.6.4.1 1.3.2 1.9.5 0 .5-.5.9-.5 0-1.9-.2-3.7-.7-5.1zm-.6-16.5c-.3-.1-.3.1-.5.1-.5 1.2-1.1 2.9-1.1 4.1.8-1 1.9-2.5 1.6-4.2zm-3.8-8.5c-.3.2-.2.7-.3 1 .5.2.6.8 1 1-.2-.6-.1-1.6-.7-2zm-2.7 6.8c0 2.4 1.1 4.3 2.5 5.5 0 .4.1.8.3.9.5-2.6-1.2-5-2.8-6.4zm.1 23.3c-.1.5-.2.4-.6.4 0-.3 0-.5.1-.7-.9-.5-1.2.4-1.6.8-.1-.2-.2-.5 0-.7-1.6.4-2.3 1.6-3.3 2.6 2.2.9 4.9.6 7.1.7.4-1.4-.9-2.4-1.7-3.1zm-.6-14.4c-.3-.1-.3-.5-.7-.6.3 3 1.1 5.7 2.8 7.7-.1-2.6-1.1-5.1-2.1-7.1zm-5.5 5.3c-.9.8-.4 2.2-.5 3.6 1.3-.1 1.4-2.8.5-3.6zm-3.3 8c-.6-.2-1-.9-1.8-.6-.1 1.2 1.4 1.4 1.8.6zm-3.3-27.4c-.3.7-.6 1.5-1.1 2 0 .2.1.3.1.5.5 0 .9-.1 1.2-.3 0-1 .9-1.9-.2-2.2zm-3.2 6.8c1-.3.7-2.4-.3-2.5-.8.7-.6 2.6.1 3.3 0-.4.2-.5.2-.8zm-1.7 11.5c-.2.1-.4.3-.5.6.2 0 .4-.2.6-.2 0-.1 0-.3-.1-.4zm-1.6-7.6c-.4.6 0 1.6.1 2.2.3.1.6.3.9.3 0-.8.2-2.4-1-2.5zm-1.1 16.7c-1.3 0-2.6 1.3-1.6 2.4.4-.9 2.2-.8 1.6-2.4zm-.5-3.2c0 1.1-.9 1.2-.7 2.4.4 0 .6-.2 1-.2.3-.8-.2-1.4-.3-2.2zm-1.9-1.2c-.3.9.3 1.5.2 2.5.1.2.5-.1.4.3 1-.5.3-2.6-.6-2.8zm-.1 4.7c0-.4.5-.3.4-.8-.8-1.1-.6-2.5-1.1-3.6.1.6-.2.9-.6 1 .1.9-.1 2.1-.6 2.4-.8-1.8.3-5.6-1.1-7.1-.4.3-.7.7-1.1.9-.4 1.2-1.2 2.1-1.6 3.4-.1 1.7-.5 3.1-.2 4.7-.1.2-.3.3-.4.5.5.5 1.8.9 1.2 2-1.7-2-4.3-3.2-5.9-5.3-1.7-.7-2.9-2-4.3-3-.7.4-1.2-.5-1.6-1-.6 0-.8-.5-1.6-.4-1.3-1.3-3.3-1.8-4.5-3.1-1.1.1-2.6-.1-3.4-.4-.5 3.8-1 8.6-.9 12.9.5.1.7.5 1.3.6.1-.4.3-.6.3-.9.8-.3.5-1.7 1.3-1.9.3.1.4.3.4.5.3 1.3-1.1 2-1 2.9.7.4 1.8.3 2.1 1.1.6-.1 1.3.2 1.6.7.3.6.1 1.4 0 1.8-.1.5 0 1.2-.1 1.8-.2 1.5-.6 3-.8 4.2.1.2.2.3.2.6-.3 1.4-.7 3-.5 4.3 1.2-1.1 2.2-2.5 3.2-3.9.2 0 .2.1.3 0-.4-1.6-1.7-3.8-1.6-5.7 0-.5.1-1 .6-1.2.4.3.7.6 1.1.8.1-.5-.2-.8-.3-1.3-.1-.9.4-3.4 1.1-3.5.7.6-.2 1.5-.3 2.3-.2 1.1.2 2.1-.3 2.8-.5.3-.6-.1-1.2-.2.1.5-.2.6-.2 1 .8 1.2.7 2.8 1.6 3.9-.2-.7-.5-2.6-.1-3.6.2 0 .2-.1.3-.1.5.8-.1 2.1.4 2.8 1.4-.9.7-3.4 2-4.5.5.1.1 1 .4 1.3.8-1.2 1.4-2.6 2.2-3.7 0-.3-.1-.7.3-.7 0 .7.1 1.4-.3 2 .3 0 .7.1 1.1.3-.1-1.9-.4-3.8 0-5.8.2-.3.5-.4.4-.9.3 0 .4-.2.7-.3.8.8 1 1.9.9 3.3.6 1.1.2 2.9.7 4.1-.2.5-.7 1.6.2 1.6.2-2.1.4-3.6.9-5.2.3 1.8 0 3.9-.1 5.6.3.1.5.3.8.3.1-1.6.6-3.1.7-4.5.8 1.3.1 3.1 0 4.7 1.1.3 2 1.6 3.1.8-.4-1.8-2.2-3-1.5-5.1.4 0 .4-.3.9-.3.4.9 1.3 1.3 1.7 2.1-.1-.7.4-.8.4-1.4 0-.9-1.1-1.8-.4-2.8-.7-1 .1-2.3.1-3.3.3 0 .3-.3.6-.3.2.3.7.3.8.6.2.5.1 1.1.3 1.3.6-.4 1-1 1-2.1zm-1.8 1.4c-.7 1.2-.2 2.5.3 3.7.5-.9.2-2.6-.3-3.7zm-2.6 5.5c-.4.5-.2 1.1 0 1.7.8.1.5 1.3 1.3 1.4.4-1.1-.3-2.6-1.3-3.1zm-4.8-18.1c-.3 1.9-1.2 3.2-.8 5.3.8-1.8 1.4-3.8 1.6-6.2-.3.2-.4.7-.8.9zm-.2-7.4c-1.5 1.9-1.3 6-2 8.4 1.1-2.5 2.4-5.3 2-8.4zm-2.1 23c0 1 .4 2.2.3 3 0 .5 0 1.6.7 1.5.4-.1.4-1.2.3-1.8-.2-2.1-.5-3.7-1-5.2 0 .8-.3 1.8-.3 2.5zm.7-12.9c-.2-.1-.2.1-.4.1.1.3 0 1.3.3 1.5-.1-.8.3-1.1.1-1.6zm-1.1-15.4c.4-1.1.1-2 .2-3.4-1.2 2.1-.8 5.1-.7 7.3.3-1.3.9-2.6.5-3.9zm-.9 9.5c-.5-1.2-1.4-2.3-2.2-3 0 .3-.2.3-.1.6.2.2.6.2.6.6 0 .7.1 1.8.8 2.1.3.9.8 1.6 1.4 2.2.2-.8-.1-1.6-.5-2.5zm-1 4c.3.8.8 1.5 1.5 2-.3-.9-.8-1.9-1.5-2zm-1.2-24.2c.2 2.2.3 4.5 1.2 6.5.1-2.7-.4-4.5-1.2-6.5zm.4 7.3c-1-.5-1-1.9-2-2.4 0 .6.5.8.3 1.4.9.7 1.4 1.8 1.7 3 .4-.1.2.3.4.3.3-.8-.5-1.2-.4-2.3zm-.1 20.6c-.1-.2-.4-.3-.6-.5-.6-.9-.7-2-1.1-3-.9-2.4-2.4-5.1-3.4-7.4-.6-1.4-1.7-2.3-2-3.9-.4.1-.2-.3-.5-.3.1.7.6.9.5 1.7.2.2.4.3.5.6 0 .7.4.9.7 1.3.6.7.8 2.1 1.3 2.8v.5c1 2.2 2.1 4.7 3 6.7-.1.2-.1.3-.1.5.6 1.1 1.1 2.3 2.2 2.9-.2-.7-.2-1.4-.5-1.9zm-8.9 18.1c.6-1.5 1.4-3.1 1.4-4.9-1-.7-2.2-1-3.4-1.6-.5 1.8-1 3.9-1.3 5.4.6-.2.8.5 1.3.4.3.7.6 1.4.8 2.2.3 0 .4.2.7.2.3-.3.8-1 .5-1.7zm-1.2 5.5c-.2.5-.6.9-.9 1.5s-.5 1.4-.9 2c-.3.6-.8 1-1.1 1.6-.5.9-.8 1.8-1.6 2.4v.5c-.3.3-.4.7-.8.9-1.2 2.5-3 4.3-4.4 6.6.3.1.4-.3.7-.3.5-.2 1.2.1 1.8-.1.2 0 .4-.3.5-.3 1.4-.5 3.7-.8 5.2-.9.1-.3.6-.2.7-.4.2.2.4.2.6 0 .6-4.3.7-9.4 1.8-13.4-.2-1.1.2-2.4.3-3.8-.9.8-1.3 2.4-1.9 3.7zm.4-42.4c.2.9.6 1.7 1.2 2.2-.3-.8-.8-1.5-1.2-2.2zm-6.1 21.2c0-.3.4-.2.3-.6-.6-.9-.9-2.1-1-3.5-.1-.1-.2-.2-.3-.3 0-1.7-.6-2.9-1.1-4.1.1.7-.4.8-.6 1.2-.3-.8-.4-2.3.3-2.8-.1-.6-.6-.8-.8-1.3-.5-1.3-.4-2.6-1.2-3.4-.2.8-.8 1.2-.8 2.2-.6.2-.5 1-.7 1.5-.2.4-.7.6-.5 1.1-.2.2-.3 0-.4.3v.7c-.2.3-.7.8-.9 1-.1.1.1.3 0 .4-.1.2-.5.3-.6.5-.1.1 0 .4-.1.6s-.4.3-.5.5c-.2.3-.4.9-.7 1.4-.8 1.4-.6 1.3-.2 2.8.1.4.1.9.2 1.1.1.1.3.1.3.3 1 2.5.7 5.5.1 7.7-.2-.1-.4-.1-.5-.3-.2-1.5.6-3.3-.2-4.2.5-1.6-.6-3.2-.9-4.8-1 .3-.8 1.8-1.9 1.9-.1 1-.9 1.2-1 2-.3 1.4 1.1 2 1.3 3.4.4.1.6.7.6 1 .2 1.2.1 3-.5 3.8 1.3-.6 2.1-2 3.8-2 .4-1.1 1.5-1.6 1.6-3.1.2-.1.3-.3.4-.5.4.2.4-.1.7-.2 1.3-2.4 2.1-5.6 2.5-8.5.2-.1 0-.4.3-.3-.5-1.4.7-1.5.9-.4.1.5-.4 1.4-.5 2.1-.1.6.1 1.1-.3 1-.3 3.3-2 6.4-3.5 9.1 2.2 0 4.2-1 6.6-1.1-.1-2.6.1-4.1-.2-6.2zm-2.4 12.5c-.1.5-.6.6-.3 1.2.7-.1 1.3.6 1.5 1.3.5 0 .6-.4 1-.5-.5-.9-.7-2.1-2.2-2zm-2.6 6.5c0-.4.4-.9.2-1.4 0-.1-.1-.1-.2-.1 0 .5-.4 1.2 0 1.5zm-18.7 2c-.1.9-1.3 1.6-.9 2.6.7 1.2 2.2 1.9 3.5 1.9 0 .1.2.1.2.3 2.4 0 4.5-.9 6.7-1.1.6-.1 1.2.2 1.7-.2.1-.1.2-.3.4-.3 1.6-.2 2.7-1.5 4.4-1.9.6-.6 1.3-1 1.9-1.6.3-2.2.6-5.6 3.6-5.4.1-.5-.8-.7-.9-1.4-.5.2-1.7-.3-2.3-.5-2.1 0-3.7 2.5-3.3 4.9.6.3 1.3.5 1.4 1.2-.6.6-1.4-.1-1.7-.6-1 .1-2.1-.5-2.8-.9-.3 0-.3.4-.6.4-.4-.2-.3 0-.7-.1-.2 1.1-1.3 1.4-1.7 2.3.5 1.3-1 2.5-1.8 2.8-.3-1.1.6-1.2.8-1.8.2-.4 0-1.1.2-1.7.3-.8 1.2-1.3 1.3-1.7.2-1-.6-1.4-1-1.8-.6-.6-1-1.3-1.9-1.5-.4-.8-.2-2.2-.7-2.9-.4-.1-.8-.2-.9-.6-.6.4-.9-.1-1.6.1-.1.8.1 1.6.1 2.5-.7 1.1.8 2.6.3 4 .5.6 1.3 1.3 1.6 1.9.7.2 1.5.7 2.1 1.2-1.1.3-2.1-.5-2.8.7-.2-.2-.6 0-.7.2.2.5.8.7.8 1.5-.6.1-1.1-.6-1.3-1.2-.2-.2-.2 0-.4 0-.7-.9-1.6-1.6-2.3-2.5-.8.1-.7.7-.7 1.2zm13.9-4.3c-.1 0-.2 0-.3 0 0 .4 0 .8.3.9 0-.3.2-.6 0-.9zm-.8-.2c-.3-1.2.9-3.1 0-3.9-.4.4-.7 1-1.6.9-.8.9-1.2 2.3-.8 3.8.7-.1 2.1.1 2.4-.8zm-8.7-32c-1.3 2.3-.6 5.3-.8 8.1-.4.2-.5-.1-.8 0 .4.4.4 1.1.9 1.3.3-2.8 1.1-6.4.7-9.4zm-2.9 7.8c-.1.5-.3.9-.2 1.3.3.7 1 1.7 1.1 2.4s.2.9.4 1.4c1-2-.3-3.8-1.3-5.1zm-.2 12.6c-.6-.3-.4-1.5 0-1.9-.1-.5-.3-1-.7-1.3 0-.4.1-.4 0-.7-.1-.2-.3.2-.3-.1-.5-1.4-.8-2.5-1.5-3.8-.5 0-.8-.3-1-.6-.7 1.4 0 3.2-.3 4.7.2.4.6.6.7 1.1 2.3.3 2.1 3.5 1.1 5.1.7-.4 1.1-1.1 2-1.4-.1-.5 0-.6 0-1.1zm-2 .4c.5-2-1-2.2-2-3.2 0-.3-.2-.3-.2-.6-.5-.3-.7-1-1.2-1.3-.2-.1-.2.1-.4.1 0-.2-.1-.3-.3-.3-1.8.3-1.9 2-3.6 2.5-.2 1.2-1.5 1.4-1.5 2.7.9-.1.6 1.4 1.1 2.1.3 0 .3-.2.5-.2 1.2.8 1.9-.8 3.4-.5.3-.6 1.3-.5 1.6-1.1 1.1 0 1.4.8 2.2 1.1-.1-.6.3-.8.4-1.3zm-1.6 1.5c-.5.3-.8-.2-1.4-.1-.5.1-1 .7-1.5.6-.2 0-.2-.2-.4-.2-.7.1-1.3.7-2.2.7-.6 0-1-.4-1.8-.3-.2-.4-.4-.8-.6-1.1-.4.6 0 1.1 0 1.9.4.2.8.3.9.9 1.1.3 1.2 1.7 2.2 2.2.9-.2 1.2-1.4 2.3-1.1.8-1.2 3.9-1.3 2.5-3.5zm-8.9 51c.9-.7.8-2.8.1-3.7-2.3-.7-2.5 5.6-.1 3.7zm-11.7 11.5c0-.8.1-1.7-.3-2.4.2-.3-.1-.8-.3-.9 0 .6 0 1.2-.3 1.6-.1 0-.3 0-.4 0 .1-3.5-2.1-4.7-4.4-5.9-.4.3-.5.4-1.1.3-1.3.4-2.5.9-3.5 1.6-.4 1.2-1.4 2.5-1.4 4 0 1 .7 1.7.8 2.7-.4.3-.6 0-1 .1-.1-.3-.2-.6-.3-.9-.4.6-1.1 1.1-1.7 1.6-.7-.2-1.1.5-1.5.9.9.9 2.8.1 3.4 1.4.7 0 .9.5 1.2.9 1.3.3 2.1 1.3 1.9 2.8.3.2 1 .1 1.4.3.3.3-.1.7.2.7 1.1-.1 2.2-.3 3.4-.4v.3c.6-.1 1.3-.4 1.8-.3.6 0 .7.6 1.3.8.6-3.4.6-5.9.8-9.2zm-16.6-18.8c1-1 .2-2.7-.1-3.9-.9.3-1.6-.2-2.6-.3-.3.9-.7 1.6-1.1 2.3.5.4.8 1 .9 1.8 1 .7 2.2.5 2.9.1z"/><path d="m14.4 133.6c.1-.4-.3-.3-.3-.6.3-.3.2-.9.3-1.4 1.1-1.4 1.7-3.3 2.9-4.6.2.5-.6 1.4-.7 2.2-.3.1-.4.5-.8.5-.1 1-.6 2-1.2 2.7.2.4.1.6.1 1.1-.1.2 0 .1-.3.1-.1 1.2-.4 2.2-1 2.8-.3 1.4-.7 2.3-.7 3.9-.2.2-.2 0-.3-.1.2.5-.1 1-.3 1.4.4.8.3 2-.1 2.8.5 1.2-.3 2.4.3 3.6-.1.3-.2.5-.3.7.3.8 0 1.7.2 2.6.1.5.5 1.8.6 2.6.1.6-.1 1.2.2 1.9.1.4.5.8.7 1.2.1.2 0 .5.1.6.3.5.7 1 1 1.5.2.4.3.9.5 1.3.3.5.9.8 1 1.4.6.4 1.5.6 1.9 1.3.3.2.8.2.9.6.4-.2.6.1.9.2 0 .2 0 .5.1.6.2-.4.8-.4 1.2-.6 0 .3-.1.4-.1.6-2.5.5-3.8-1-5.4-2-.2-.2-.3-.5-.4-.8-.3-.1-.4-.3-.7-.4-1.1-2.4-2.7-4.3-2.8-7.7 0-.3-.3-.4-.3-.6-.1-2.5 0-4.7-.3-7.3.2-2.7.7-5.4 1.3-7.9.9-1 .9-2.8 1.6-4.1-.1-.1.1-.1.2-.1z"/></g></svg>